SplineFontDB: 3.0
FontName: Oxygen-Light
FullName: Oxygen Light
FamilyName: Oxygen
Weight: Light
Copyright: Copyright (c) 2012, Vernon Adams (vern@newtypography.co.uk), with Reserved Font Names 'Oxygen'
Version: Release 0.2.3 webfont; ttfautohint (v0.93.3-1d66) -l 8 -r 50 -G 200 -x 0 -w "gGD" -c
ItalicAngle: 0
UnderlinePosition: 0
UnderlineWidth: 0
Ascent: 1638
Descent: 410
sfntRevision: 0x00003333
LayerCount: 2
Layer: 0 1 "Back"  1
Layer: 1 1 "Fore"  0
XUID: [1021 956 322941027 12040401]
FSType: 0
OS2Version: 1
OS2_WeightWidthSlopeOnly: 0
OS2_UseTypoMetrics: 1
CreationTime: 1336048760
ModificationTime: 1392238886
PfmFamily: 17
TTFWeight: 300
TTFWidth: 5
LineGap: 0
VLineGap: 0
Panose: 2 0 3 3 0 0 0 0 0 0
OS2TypoAscent: 2103
OS2TypoAOffset: 0
OS2TypoDescent: -483
OS2TypoDOffset: 0
OS2TypoLinegap: 0
OS2WinAscent: 2103
OS2WinAOffset: 0
OS2WinDescent: 483
OS2WinDOffset: 0
HheadAscent: 2103
HheadAOffset: 0
HheadDescent: -483
HheadDOffset: 0
OS2SubXSize: 1331
OS2SubYSize: 1433
OS2SubXOff: 0
OS2SubYOff: 286
OS2SupXSize: 1331
OS2SupYSize: 1433
OS2SupXOff: 0
OS2SupYOff: 983
OS2StrikeYSize: 102
OS2StrikeYPos: 530
OS2Vendor: 'newt'
OS2CodePages: 00000001.00000000
OS2UnicodeRanges: 8000006f.40002049.00000000.00000000
Lookup: 4 0 1 "'liga' Standard Ligatures lookup 0"  {"'liga' Standard Ligatures lookup 0 subtable"  } ['liga' ('DFLT' <'dflt' > 'cyrl' <'dflt' > 'grek' <'dflt' > 'latn' <'dflt' > ) ]
Lookup: 258 0 0 "'kern' Horizontal Kerning in Latin lookup 0"  {"'kern' Horizontal Kerning in Latin lookup 0 per glyph data 0"  "'kern' Horizontal Kerning in Latin lookup 0 kerning class 1"  } ['kern' ('DFLT' <'dflt' > 'latn' <'dflt' > ) ]
MarkAttachClasses: 1
DEI: 91125
KernClass2: 26 21 "'kern' Horizontal Kerning in Latin lookup 0 kerning class 1" 
 81 A Agrave Aacute Acircumflex Atilde Adieresis Aring Amacron Abreve Aogonek uni0202
 1 B
 75 D O Q Eth Ograve Oacute Ocircumflex Otilde Odieresis Oslash uni020C uni020E
 1 F
 1 K
 1 L
 1 P
 39 R Racute uni0156 Rcaron uni0210 uni0212

StartChar: .notdef
Encoding: 65536 -1 0
Width: 748
Flags: W
LayerCount: 2
Fore
SplineSet
68 0 m 1,0,-1
 68 1365 l 1,1,-1
 612 1365 l 1,2,-1
 612 0 l 1,3,-1
 68 0 l 1,0,-1
136 68 m 1,4,-1
 544 68 l 1,5,-1
 544 1297 l 1,6,-1
 136 1297 l 1,7,-1
 136 68 l 1,4,-1
EndSplineSet
EndChar

StartChar: exclam
Encoding: 33 33 4
Width: 650
GlyphClass: 2
Flags: W
LayerCount: 2
Fore
SplineSet
292 419 m 1,0,-1
 233 1425 l 1,1,-1
 233 1514 l 1,2,-1
 410 1514 l 1,3,-1
 410 1425 l 1,4,-1
 358 419 l 1,5,-1
 292 419 l 1,0,-1
325 -8 m 0,6,7
 264 -8 264 -8 233 27.5 c 128,-1,8
 202 63 202 63 202 111 c 0,9,10
 202 158 202 158 233 193 c 128,-1,11
 264 228 264 228 325 228 c 0,12,13
 387 228 387 228 418 193 c 128,-1,14
 449 158 449 158 449 111 c 0,15,16
 449 63 449 63 418 27.5 c 128,-1,17
 387 -8 387 -8 325 -8 c 0,6,7
EndSplineSet
EndChar

StartChar: quotedbl
Encoding: 34 34 5
Width: 676
GlyphClass: 2
Flags: W
LayerCount: 2
Fore
SplineSet
168 1034 m 1,0,-1
 153 1514 l 1,1,-1
 271 1514 l 1,2,-1
 239 1034 l 1,3,-1
 168 1034 l 1,0,-1
427 1034 m 1,4,-1
 412 1514 l 1,5,-1
 530 1514 l 1,6,-1
 498 1034 l 1,7,-1
 427 1034 l 1,4,-1
EndSplineSet
EndChar

StartChar: numbersign
Encoding: 35 35 6
Width: 1108
GlyphClass: 2
Flags: W
LayerCount: 2
Fore
SplineSet
180 -28 m 1,0,-1
 254 414 l 1,1,-1
 109 414 l 1,2,-1
 119 505 l 1,3,-1
 270 505 l 1,4,-1
 348 951 l 1,5,-1
 185 951 l 1,6,-1
 195 1041 l 1,7,-1
 363 1041 l 1,8,-1
 437 1464 l 1,9,-1
 541 1464 l 1,10,-1
 467 1041 l 1,11,-1
 737 1041 l 1,12,-1
 811 1464 l 1,13,-1
 915 1464 l 1,14,-1
 841 1041 l 1,15,-1
 984 1041 l 1,16,-1
 969 952 l 1,17,-1
 826 952 l 1,18,-1
 747 505 l 1,19,-1
 902 505 l 1,20,-1
 892 414 l 1,21,-1
 732 414 l 1,22,-1
 655 -28 l 1,23,-1
 550 -28 l 1,24,-1
 628 414 l 1,25,-1
 358 414 l 1,26,-1
 281 -28 l 1,27,-1
 180 -28 l 1,0,-1
374 505 m 1,28,-1
 644 505 l 1,29,-1
 721 952 l 1,30,-1
 452 952 l 1,31,-1
 374 505 l 1,28,-1
EndSplineSet
EndChar

StartChar: dollar
Encoding: 36 36 7
Width: 1247
GlyphClass: 2
Flags: W
LayerCount: 2
Fore
SplineSet
679 -23 m 1,0,-1
 679 -213 l 1,1,-1
 592 -213 l 1,2,-1
 592 -22 l 1,3,4
 426 -14 426 -14 298.5 24 c 128,-1,5
 171 62 171 62 99 105 c 1,6,-1
 147 196 l 1,7,8
 332 96 332 96 592 84 c 1,9,-1
 592 737 l 1,10,-1
 499 756 l 2,11,12
 298 796 298 796 197.5 882 c 128,-1,13
 97 968 97 968 97 1127 c 0,14,15
 97 1223 97 1223 132 1295.5 c 128,-1,16
 167 1368 167 1368 233.5 1413.5 c 128,-1,17
 300 1459 300 1459 389 1483.5 c 128,-1,18
 478 1508 478 1508 592 1513 c 1,19,-1
 592 1741 l 1,20,-1
 679 1741 l 1,21,-1
 679 1514 l 1,22,23
 799 1510 799 1510 912 1480 c 128,-1,24
 1025 1450 1025 1450 1098 1413 c 1,25,-1
 1065 1315 l 1,26,27
 1010 1345 1010 1345 903 1374 c 128,-1,28
 796 1403 796 1403 679 1407 c 1,29,-1
 679 838 l 1,30,-1
 761 821 l 2,31,32
 861 800 861 800 930.5 771 c 128,-1,33
 1000 742 1000 742 1053.5 696 c 128,-1,34
 1107 650 1107 650 1133 581.5 c 128,-1,35
 1159 513 1159 513 1159 419 c 0,36,37
 1159 282 1159 282 1097.5 182.5 c 128,-1,38
 1036 83 1036 83 929 32 c 128,-1,39
 822 -19 822 -19 679 -23 c 1,0,-1
592 856 m 1,40,-1
 592 1406 l 1,41,42
 410 1396 410 1396 319 1325.5 c 128,-1,43
 228 1255 228 1255 228 1114 c 0,44,45
 228 1019 228 1019 295 961.5 c 128,-1,46
 362 904 362 904 493 876 c 2,47,-1
 592 856 l 1,40,-1
679 720 m 1,48,-1
 679 82 l 1,49,50
 846 85 846 85 935.5 173.5 c 128,-1,51
 1025 262 1025 262 1025 422 c 0,52,53
 1025 482 1025 482 1014 523 c 128,-1,54
 1003 564 1003 564 973 601.5 c 128,-1,55
 943 639 943 639 885.5 664.5 c 128,-1,56
 828 690 828 690 739 708 c 2,57,-1
 679 720 l 1,48,-1
EndSplineSet
EndChar

StartChar: ampersand
Encoding: 38 38 8
Width: 1496
GlyphClass: 2
Flags: W
LayerCount: 2
Fore
SplineSet
638 -22 m 0,0,1
 505 -22 505 -22 406.5 9.5 c 128,-1,2
 308 41 308 41 251 97 c 128,-1,3
 194 153 194 153 167.5 223.5 c 128,-1,4
 141 294 141 294 141 380 c 0,5,6
 141 463 141 463 164.5 532.5 c 128,-1,7
 188 602 188 602 235 658.5 c 128,-1,8
 282 715 282 715 342.5 760 c 128,-1,9
 403 805 403 805 487 849 c 1,10,11
 450 893 450 893 433 914.5 c 128,-1,12
 416 936 416 936 389.5 971.5 c 128,-1,13
 363 1007 363 1007 351.5 1030.5 c 128,-1,14
 340 1054 340 1054 326 1085.5 c 128,-1,15
 312 1117 312 1117 307 1148 c 128,-1,16
 302 1179 302 1179 302 1213 c 0,17,18
 302 1346 302 1346 400.5 1430 c 128,-1,19
 499 1514 499 1514 678 1514 c 0,20,21
 830 1514 830 1514 928.5 1432 c 128,-1,22
 1027 1350 1027 1350 1027 1205 c 0,23,24
 1027 1143 1027 1143 1000.5 1087.5 c 128,-1,25
 974 1032 974 1032 922 985 c 128,-1,26
 870 938 870 938 807.5 899.5 c 128,-1,27
 745 861 745 861 659 821 c 1,28,-1
 1168 288 l 1,29,30
 1238 363 1238 363 1284 471 c 1,31,-1
 1356 414 l 1,32,33
 1314 315 1314 315 1235 216 c 1,34,-1
 1390 62 l 1,35,-1
 1315 -6 l 1,36,-1
 1161 147 l 1,37,38
 1055 67 1055 67 928.5 22.5 c 128,-1,39
 802 -22 802 -22 638 -22 c 0,0,1
626 74 m 0,40,41
 758 74 758 74 886 113.5 c 128,-1,42
 1014 153 1014 153 1089 219 c 1,43,-1
 564 773 l 1,44,45
 262 608 262 608 262 376 c 0,46,47
 262 298 262 298 291.5 238.5 c 128,-1,48
 321 179 321 179 372.5 144 c 128,-1,49
 424 109 424 109 488 91.5 c 128,-1,50
 552 74 552 74 626 74 c 0,40,41
601 891 m 1,51,52
 637 909 637 909 656.5 919 c 128,-1,53
 676 929 676 929 708 947 c 128,-1,54
 740 965 740 965 758 977 c 128,-1,55
 776 989 776 989 801.5 1007.5 c 128,-1,56
 827 1026 827 1026 841.5 1041.5 c 128,-1,57
 856 1057 856 1057 873 1078 c 128,-1,58
 890 1099 890 1099 898.5 1119.5 c 128,-1,59
 907 1140 907 1140 913 1165 c 128,-1,60
 919 1190 919 1190 919 1217 c 0,61,62
 919 1311 919 1311 853 1362.5 c 128,-1,63
 787 1414 787 1414 690 1414 c 0,64,65
 543 1414 543 1414 478 1360 c 128,-1,66
 413 1306 413 1306 413 1214 c 0,67,68
 413 1139 413 1139 471 1047.5 c 128,-1,69
 529 956 529 956 601 891 c 1,51,52
EndSplineSet
EndChar

StartChar: quotesingle
Encoding: 39 39 9
Width: 415
GlyphClass: 2
Flags: W
LayerCount: 2
Fore
SplineSet
152 1020 m 1,0,-1
 137 1514 l 1,1,-1
 267 1514 l 1,2,-1
 247 1020 l 1,3,-1
 152 1020 l 1,0,-1
EndSplineSet
EndChar

StartChar: parenleft
Encoding: 40 40 10
Width: 590
GlyphClass: 2
Flags: W
LayerCount: 2
Fore
SplineSet
379 -239 m 1,0,1
 252 -63 252 -63 180 166 c 128,-1,2
 108 395 108 395 108 627 c 0,3,4
 108 1111 108 1111 376 1514 c 1,5,-1
 495 1514 l 1,6,7
 355 1277 355 1277 298.5 1070 c 128,-1,8
 242 863 242 863 242 633 c 0,9,10
 242 182 242 182 495 -239 c 1,11,-1
 379 -239 l 1,0,1
EndSplineSet
EndChar

StartChar: parenright
Encoding: 41 41 11
Width: 590
GlyphClass: 2
Flags: W
LayerCount: 2
Fore
SplineSet
95 -239 m 1,0,1
 348 183 348 183 348 633 c 0,2,3
 348 862 348 862 291 1069.5 c 128,-1,4
 234 1277 234 1277 94 1514 c 1,5,-1
 212 1514 l 1,6,7
 482 1104 482 1104 482 627 c 0,8,9
 482 394 482 394 409.5 166.5 c 128,-1,10
 337 -61 337 -61 210 -239 c 1,11,-1
 95 -239 l 1,0,1
EndSplineSet
EndChar

StartChar: asterisk
Encoding: 42 42 12
Width: 1106
GlyphClass: 2
Flags: W
LayerCount: 2
Fore
SplineSet
352 573 m 1,0,-1
 218 655 l 1,1,-1
 468 1005 l 1,2,-1
 99 1092 l 1,3,-1
 143 1240 l 1,4,-1
 506 1077 l 1,5,-1
 468 1514 l 1,6,-1
 635 1514 l 1,7,-1
 598 1077 l 1,8,-1
 962 1240 l 1,9,-1
 1007 1093 l 1,10,-1
 633 1005 l 1,11,12
 652 976 652 976 738.5 862.5 c 128,-1,13
 825 749 825 749 888 655 c 1,14,15
 853 630 853 630 821 614 c 128,-1,16
 789 598 789 598 756 574 c 1,17,-1
 548 961 l 1,18,-1
 352 573 l 1,0,-1
EndSplineSet
EndChar

StartChar: plus
Encoding: 43 43 13
Width: 1101
GlyphClass: 2
Flags: W
LayerCount: 2
Fore
SplineSet
500 157 m 1,0,-1
 500 600 l 1,1,-1
 108 600 l 1,2,-1
 108 700 l 1,3,-1
 502 700 l 1,4,-1
 502 1135 l 1,5,-1
 610 1135 l 1,6,-1
 610 700 l 1,7,-1
 992 700 l 1,8,-1
 992 600 l 1,9,-1
 610 600 l 1,10,-1
 610 157 l 1,11,-1
 500 157 l 1,0,-1
EndSplineSet
EndChar

StartChar: comma
Encoding: 44 44 14
Width: 504
GlyphClass: 2
Flags: W
LayerCount: 2
Fore
SplineSet
130 -275 m 1,0,-1
 210 235 l 1,1,-1
 339 235 l 1,2,-1
 339 194 l 1,3,4
 298 16 298 16 202 -275 c 1,5,-1
 130 -275 l 1,0,-1
EndSplineSet
EndChar

StartChar: hyphen
Encoding: 45 45 15
Width: 670
GlyphClass: 2
Flags: W
LayerCount: 2
Fore
SplineSet
93 531 m 1,0,-1
 93 641 l 1,1,-1
 577 641 l 1,2,-1
 577 531 l 1,3,-1
 93 531 l 1,0,-1
EndSplineSet
EndChar

StartChar: period
Encoding: 46 46 16
Width: 517
GlyphClass: 2
Flags: W
LayerCount: 2
Fore
SplineSet
290 -8 m 0,0,1
 237 -8 237 -8 210 23 c 128,-1,2
 183 54 183 54 183 96 c 0,3,4
 183 137 183 137 210 168 c 128,-1,5
 237 199 237 199 290 199 c 0,6,7
 345 199 345 199 372 168 c 128,-1,8
 399 137 399 137 399 96 c 0,9,10
 399 54 399 54 372 23 c 128,-1,11
 345 -8 345 -8 290 -8 c 0,0,1
EndSplineSet
EndChar

StartChar: slash
Encoding: 47 47 17
Width: 953
GlyphClass: 2
Flags: W
LayerCount: 2
Fore
SplineSet
49 -174 m 1,0,-1
 750 1514 l 1,1,-1
 863 1514 l 1,2,-1
 161 -174 l 1,3,-1
 49 -174 l 1,0,-1
EndSplineSet
EndChar

StartChar: zero
Encoding: 48 48 18
Width: 1216
GlyphClass: 2
Flags: W
LayerCount: 2
Fore
SplineSet
608 91 m 0,0,1
 761 91 761 91 855 264.5 c 128,-1,2
 949 438 949 438 949 748 c 0,3,4
 949 1038 949 1038 855 1218.5 c 128,-1,5
 761 1399 761 1399 609 1399 c 0,6,7
 456 1399 456 1399 362 1218 c 128,-1,8
 268 1037 268 1037 269 746 c 0,9,10
 269 436 269 436 362.5 263.5 c 128,-1,11
 456 91 456 91 608 91 c 0,0,1
609 -24 m 128,-1,13
 483 -24 483 -24 387 33 c 128,-1,14
 291 90 291 90 231.5 195.5 c 128,-1,15
 172 301 172 301 142.5 433 c 128,-1,16
 113 565 113 565 113 743 c 0,17,18
 113 1104 113 1104 240.5 1309 c 128,-1,19
 368 1514 368 1514 609 1514 c 128,-1,20
 850 1514 850 1514 975.5 1309.5 c 128,-1,21
 1101 1105 1101 1105 1101 743 c 0,22,23
 1101 565 1101 565 1072 433 c 128,-1,24
 1043 301 1043 301 984 195.5 c 128,-1,25
 925 90 925 90 830 33 c 128,-1,12
 735 -24 735 -24 609 -24 c 128,-1,13
EndSplineSet
EndChar

StartChar: one
Encoding: 49 49 19
Width: 599
GlyphClass: 2
Flags: W
LayerCount: 2
Fore
SplineSet
274 0 m 1,0,-1
 274 1356 l 1,1,2
 242 1333 242 1333 172.5 1299 c 128,-1,3
 103 1265 103 1265 34 1241 c 1,4,-1
 34 1349 l 1,5,6
 244 1446 244 1446 297 1488 c 1,7,-1
 402 1488 l 1,8,-1
 402 0 l 1,9,-1
 274 0 l 1,0,-1
EndSplineSet
EndChar

StartChar: two
Encoding: 50 50 20
Width: 1144
GlyphClass: 2
Flags: W
LayerCount: 2
Fore
SplineSet
132 0 m 1,0,-1
 102 127 l 1,1,-1
 621 731 l 2,2,3
 723 852 723 852 773 941.5 c 128,-1,4
 823 1031 823 1031 823 1116 c 0,5,6
 823 1258 823 1258 756 1333.5 c 128,-1,7
 689 1409 689 1409 556 1409 c 0,8,9
 461 1409 461 1409 369.5 1380.5 c 128,-1,10
 278 1352 278 1352 220 1297 c 1,11,-1
 173 1394 l 1,12,13
 298 1514 298 1514 561 1514 c 0,14,15
 752 1514 752 1514 862.5 1409 c 128,-1,16
 973 1304 973 1304 973 1133 c 0,17,18
 973 1018 973 1018 914.5 906.5 c 128,-1,19
 856 795 856 795 722 640 c 2,20,-1
 272 123 l 1,21,-1
 985 123 l 1,22,-1
 977 0 l 1,23,-1
 132 0 l 1,0,-1
EndSplineSet
EndChar

StartChar: three
Encoding: 51 51 21
Width: 1115
GlyphClass: 2
Flags: W
LayerCount: 2
Fore
SplineSet
532 -23 m 0,0,1
 401 -23 401 -23 298 13 c 128,-1,2
 195 49 195 49 156 86 c 1,3,-1
 203 189 l 1,4,5
 339 83 339 83 520 83 c 0,6,7
 679 83 679 83 772.5 166.5 c 128,-1,8
 866 250 866 250 866 404 c 0,9,10
 866 481 866 481 843 540.5 c 128,-1,11
 820 600 820 600 781.5 636.5 c 128,-1,12
 743 673 743 673 684.5 697 c 0,13,14
 626 720 626 720 564 730 c 0,15,16
 484 742 484 742 424 743 c 2,17,-1
 366 743 l 1,18,-1
 366 855 l 1,19,-1
 410 855 l 2,20,21
 450 854 450 854 512 862 c 0,22,23
 558 868 558 868 608 879.5 c 128,-1,24
 658 891 658 891 695 912 c 128,-1,25
 732 933 732 933 763 963.5 c 128,-1,26
 794 994 794 994 810 1040 c 128,-1,27
 826 1086 826 1086 826 1145 c 0,28,29
 826 1407 826 1407 534 1407 c 0,30,31
 434 1407 434 1407 346 1378.5 c 128,-1,32
 258 1350 258 1350 203 1300 c 1,33,-1
 157 1404 l 1,34,35
 285 1514 285 1514 569 1514 c 0,36,37
 641 1514 641 1514 707.5 1492.5 c 128,-1,38
 774 1471 774 1471 828.5 1430 c 128,-1,39
 883 1389 883 1389 915.5 1320 c 128,-1,40
 948 1251 948 1251 948 1164 c 0,41,42
 948 881 948 881 687 802 c 1,43,44
 990 724 990 724 995 410 c 0,45,46
 998 217 998 217 869.5 97 c 128,-1,47
 741 -23 741 -23 532 -23 c 0,0,1
EndSplineSet
EndChar

StartChar: four
Encoding: 52 52 22
Width: 1192
GlyphClass: 2
Flags: W
LayerCount: 2
Fore
SplineSet
798 0 m 1,0,-1
 798 402 l 1,1,-1
 116 402 l 1,2,-1
 116 538 l 1,3,-1
 802 1488 l 5,4,-1
 922 1488 l 5,5,-1
 922 512 l 1,6,-1
 1108 512 l 1,7,-1
 1093 402 l 1,8,-1
 922 402 l 1,9,-1
 922 0 l 1,10,-1
 798 0 l 1,0,-1
253 512 m 1,11,-1
 798 512 l 1,12,-1
 798 1281 l 5,13,-1
 253 512 l 1,11,-1
EndSplineSet
EndChar

StartChar: five
Encoding: 53 53 23
Width: 1195
GlyphClass: 2
Flags: W
LayerCount: 2
Fore
SplineSet
563 -23 m 0,0,1
 296 -23 296 -23 129 111 c 1,2,-1
 174 207 l 1,3,4
 330 82 330 82 569 82 c 0,5,6
 732 82 732 82 830 191.5 c 128,-1,7
 928 301 928 301 928 478 c 0,8,9
 928 626 928 626 843.5 724.5 c 128,-1,10
 759 823 759 823 634 823 c 0,11,12
 543 823 543 823 479.5 798 c 128,-1,13
 416 773 416 773 335 711 c 1,14,-1
 210 720 l 1,15,-1
 244 1488 l 1,16,-1
 1005 1488 l 1,17,-1
 992 1377 l 1,18,-1
 353 1377 l 1,19,-1
 323 832 l 1,20,21
 450 928 450 928 610 931 c 0,22,23
 747 933 747 933 853 870.5 c 128,-1,24
 959 808 959 808 1013 706 c 128,-1,25
 1067 604 1067 604 1067 483 c 0,26,27
 1067 253 1067 253 930.5 115 c 128,-1,28
 794 -23 794 -23 563 -23 c 0,0,1
EndSplineSet
EndChar

StartChar: six
Encoding: 54 54 24
Width: 1196
GlyphClass: 2
Flags: W
LayerCount: 2
Fore
SplineSet
604 -23 m 0,0,1
 493 -23 493 -23 400 18.5 c 128,-1,2
 307 60 307 60 247 129.5 c 128,-1,3
 187 199 187 199 154 288 c 128,-1,4
 121 377 121 377 121 473 c 0,5,6
 121 517 121 517 126 554 c 128,-1,7
 131 591 131 591 138 623 c 128,-1,8
 145 655 145 655 165.5 696 c 128,-1,9
 186 737 186 737 202.5 768 c 128,-1,10
 219 799 219 799 259 856 c 0,11,12
 328 954 328 954 423 1081 c 5,13,14
 775 1488 l 1,15,-1
 912 1488 l 1,16,-1
 387 849 l 1,17,18
 447 884 447 884 508 900 c 128,-1,19
 569 916 569 916 646 916 c 0,20,21
 732 916 732 916 812 879.5 c 128,-1,22
 892 843 892 843 952 781 c 128,-1,23
 1012 719 1012 719 1048 630.5 c 128,-1,24
 1084 542 1084 542 1084 444 c 0,25,26
 1084 251 1084 251 948 114 c 128,-1,27
 812 -23 812 -23 604 -23 c 0,0,1
602 88 m 0,28,29
 758 88 758 88 856.5 194.5 c 128,-1,30
 955 301 955 301 955 443 c 0,31,32
 955 542 955 542 915 625 c 128,-1,33
 875 708 875 708 794.5 760.5 c 128,-1,34
 714 813 714 813 607 813 c 0,35,36
 521 813 521 813 452.5 783.5 c 128,-1,37
 384 754 384 754 341 703.5 c 128,-1,38
 298 653 298 653 275.5 587.5 c 128,-1,39
 253 522 253 522 253 448 c 0,40,41
 253 381 253 381 277.5 316.5 c 128,-1,42
 302 252 302 252 345.5 201 c 128,-1,43
 389 150 389 150 456 119 c 128,-1,44
 523 88 523 88 602 88 c 0,28,29
EndSplineSet
EndChar

StartChar: seven
Encoding: 55 55 25
Width: 1059
GlyphClass: 2
Flags: W
LayerCount: 2
Fore
SplineSet
276 0 m 1,0,-1
 817 1377 l 1,1,-1
 116 1377 l 1,2,-1
 131 1488 l 1,3,-1
 926 1488 l 1,4,-1
 942 1365 l 1,5,-1
 414 0 l 1,6,-1
 276 0 l 1,0,-1
EndSplineSet
EndChar

StartChar: eight
Encoding: 56 56 26
Width: 1196
GlyphClass: 2
Flags: W
LayerCount: 2
Fore
SplineSet
601 -23 m 0,0,1
 468 -23 468 -23 360.5 22.5 c 128,-1,2
 253 68 253 68 187 162 c 128,-1,3
 121 256 121 256 121 384 c 0,4,5
 121 531 121 531 212 644.5 c 128,-1,6
 303 758 303 758 466 803 c 1,7,8
 316 844 316 844 234.5 930.5 c 128,-1,9
 153 1017 153 1017 153 1144 c 0,10,11
 153 1314 153 1314 277 1414 c 128,-1,12
 401 1514 401 1514 602 1514 c 0,13,14
 800 1514 800 1514 921.5 1414.5 c 128,-1,15
 1043 1315 1043 1315 1043 1144 c 0,16,17
 1043 1017 1043 1017 965 930.5 c 128,-1,18
 887 844 887 844 747 803 c 1,19,20
 900 758 900 758 988 644.5 c 128,-1,21
 1076 531 1076 531 1076 384 c 0,22,23
 1076 288 1076 288 1038.5 209.5 c 128,-1,24
 1001 131 1001 131 936.5 81 c 128,-1,25
 872 31 872 31 786 4 c 128,-1,26
 700 -23 700 -23 601 -23 c 0,0,1
601 82 m 0,27,28
 747 82 747 82 844 163 c 128,-1,29
 941 244 941 244 941 378 c 0,30,31
 941 522 941 522 849 616.5 c 128,-1,32
 757 711 757 711 601 750 c 1,33,34
 445 710 445 710 350.5 615.5 c 128,-1,35
 256 521 256 521 256 379 c 0,36,37
 256 245 256 245 355 163.5 c 128,-1,38
 454 82 454 82 601 82 c 0,27,28
601 856 m 1,39,40
 912 917 912 917 912 1146 c 0,41,42
 912 1271 912 1271 821 1339 c 128,-1,43
 730 1407 730 1407 601 1407 c 0,44,45
 471 1407 471 1407 378.5 1338.5 c 128,-1,46
 286 1270 286 1270 286 1146 c 0,47,48
 286 919 286 919 601 856 c 1,39,40
EndSplineSet
EndChar

StartChar: nine
Encoding: 57 57 27
Width: 1142
GlyphClass: 2
Flags: W
LayerCount: 2
Fore
SplineSet
265 0 m 1,0,-1
 824 677 l 1,1,2
 768 641 768 641 696.5 618.5 c 128,-1,3
 625 596 625 596 557 596 c 0,4,5
 436 596 436 596 331 649.5 c 128,-1,6
 226 703 226 703 159.5 807.5 c 128,-1,7
 93 912 93 912 93 1046 c 0,8,9
 93 1141 93 1141 127 1226 c 128,-1,10
 161 1311 161 1311 223 1375 c 128,-1,11
 285 1439 285 1439 377.5 1476.5 c 128,-1,12
 470 1514 470 1514 581 1514 c 0,13,14
 697 1514 697 1514 789 1474.5 c 128,-1,15
 881 1435 881 1435 938.5 1367.5 c 128,-1,16
 996 1300 996 1300 1026 1213.5 c 128,-1,17
 1056 1127 1056 1127 1056 1030 c 0,18,19
 1056 883 1056 883 1011.5 782 c 128,-1,20
 967 681 967 681 824 478 c 1,21,-1
 725 358 l 2,22,23
 626 239 626 239 527 119.5 c 0,24,-1
 428 0 l 1,25,-1
 265 0 l 1,0,-1
577 704 m 0,26,27
 666 704 666 704 735.5 733 c 128,-1,28
 805 762 805 762 847 811 c 128,-1,29
 889 860 889 860 910.5 921 c 128,-1,30
 932 982 932 982 932 1050 c 0,31,32
 932 1120 932 1120 909.5 1183.5 c 128,-1,33
 887 1247 887 1247 844.5 1297 c 128,-1,34
 802 1347 802 1347 734.5 1377 c 128,-1,35
 667 1407 667 1407 584 1407 c 0,36,37
 474 1407 474 1407 389 1354 c 128,-1,38
 304 1301 304 1301 261.5 1220 c 128,-1,39
 219 1139 219 1139 219 1047 c 0,40,41
 219 898 219 898 317 801 c 128,-1,42
 415 704 415 704 577 704 c 0,26,27
EndSplineSet
EndChar

StartChar: colon
Encoding: 58 58 28
Width: 510
GlyphClass: 2
Flags: W
LayerCount: 2
Fore
SplineSet
167 -37 m 1,0,-1
 167 174 l 1,1,-1
 346 174 l 1,2,-1
 346 -37 l 1,3,-1
 167 -37 l 1,0,-1
167 927 m 1,4,-1
 167 1136 l 1,5,-1
 346 1136 l 1,6,-1
 346 927 l 1,7,-1
 167 927 l 1,4,-1
EndSplineSet
EndChar

StartChar: semicolon
Encoding: 59 59 29
Width: 550
GlyphClass: 2
Flags: W
LayerCount: 2
Fore
SplineSet
152 -302 m 1,0,-1
 208 165 l 1,1,-1
 370 165 l 1,2,-1
 245 -302 l 1,3,-1
 152 -302 l 1,0,-1
197 928 m 1,4,-1
 197 1136 l 1,5,-1
 376 1136 l 1,6,-1
 376 928 l 1,7,-1
 197 928 l 1,4,-1
EndSplineSet
EndChar

StartChar: less
Encoding: 60 60 30
Width: 1165
GlyphClass: 2
Flags: W
LayerCount: 2
Fore
SplineSet
1052 113 m 1,0,-1
 98 579 l 1,1,-1
 98 658 l 1,2,-1
 1054 1158 l 1,3,-1
 1054 1032 l 1,4,-1
 247 622 l 1,5,-1
 1052 240 l 1,6,-1
 1052 113 l 1,0,-1
EndSplineSet
EndChar

StartChar: equal
Encoding: 61 61 31
Width: 1240
GlyphClass: 2
Flags: W
LayerCount: 2
Fore
SplineSet
150 390 m 1,0,-1
 150 500 l 1,1,-1
 1090 500 l 1,2,-1
 1090 390 l 1,3,-1
 150 390 l 1,0,-1
149 829 m 1,4,-1
 149 941 l 1,5,-1
 1091 941 l 1,6,-1
 1091 829 l 1,7,-1
 149 829 l 1,4,-1
EndSplineSet
EndChar

StartChar: greater
Encoding: 62 62 32
Width: 1167
GlyphClass: 2
Flags: W
LayerCount: 2
Fore
SplineSet
113 122 m 1,0,-1
 113 250 l 1,1,-1
 919 622 l 1,2,-1
 116 1042 l 1,3,-1
 116 1165 l 1,4,-1
 1070 656 l 1,5,-1
 1070 577 l 1,6,-1
 113 122 l 1,0,-1
EndSplineSet
EndChar

StartChar: question
Encoding: 63 63 33
Width: 855
GlyphClass: 2
Flags: W
LayerCount: 2
Fore
SplineSet
314 395 m 1,0,1
 309 449 309 449 337.5 525 c 128,-1,2
 366 601 366 601 410.5 681 c 128,-1,3
 455 761 455 761 500 843 c 128,-1,4
 545 925 545 925 577 1013.5 c 128,-1,5
 609 1102 609 1102 609 1174 c 0,6,7
 608 1281 608 1281 545.5 1345.5 c 128,-1,8
 483 1410 483 1410 382 1410 c 0,9,10
 308 1410 308 1410 236 1384.5 c 128,-1,11
 164 1359 164 1359 117 1330 c 1,12,-1
 83 1426 l 1,13,14
 143 1468 143 1468 233 1492.5 c 128,-1,15
 323 1517 323 1517 394 1517 c 0,16,17
 556 1517 556 1517 649 1419 c 128,-1,18
 742 1321 742 1321 742 1173 c 0,19,20
 742 1105 742 1105 719 1035 c 128,-1,21
 696 965 696 965 656 894 c 128,-1,22
 616 823 616 823 571.5 753.5 c 128,-1,23
 527 684 527 684 472.5 586.5 c 128,-1,24
 418 489 418 489 379 395 c 1,25,-1
 314 395 l 1,0,1
363 -1 m 0,26,27
 313 -1 313 -1 287.5 28 c 128,-1,28
 262 57 262 57 262 96 c 0,29,30
 262 134 262 134 287.5 163 c 128,-1,31
 313 192 313 192 363 192 c 0,32,33
 414 192 414 192 439 163.5 c 128,-1,34
 464 135 464 135 464 96 c 128,-1,35
 464 57 464 57 439 28 c 128,-1,36
 414 -1 414 -1 363 -1 c 0,26,27
EndSplineSet
EndChar

StartChar: at
Encoding: 64 64 34
Width: 1867
GlyphClass: 2
Flags: W
LayerCount: 2
Fore
SplineSet
882 -82 m 0,0,1
 656 -82 656 -82 487 7.5 c 128,-1,2
 318 97 318 97 224.5 270.5 c 128,-1,3
 131 444 131 444 131 682 c 0,4,5
 131 857 131 857 193.5 1010 c 128,-1,6
 256 1163 256 1163 366 1274.5 c 128,-1,7
 476 1386 476 1386 634.5 1450 c 128,-1,8
 793 1514 793 1514 978 1514 c 0,9,10
 1194 1514 1194 1514 1365 1433.5 c 128,-1,11
 1536 1353 1536 1353 1635.5 1198.5 c 128,-1,12
 1735 1044 1735 1044 1735 839 c 0,13,14
 1735 747 1735 747 1709.5 664.5 c 128,-1,15
 1684 582 1684 582 1640 521 c 128,-1,16
 1596 460 1596 460 1538.5 415.5 c 128,-1,17
 1481 371 1481 371 1415 348.5 c 128,-1,18
 1349 326 1349 326 1281 326 c 0,19,20
 1204 326 1204 326 1151 373.5 c 128,-1,21
 1098 421 1098 421 1084 494 c 1,22,23
 1045 423 1045 423 968.5 377.5 c 128,-1,24
 892 332 892 332 784 332 c 0,25,26
 714 332 714 332 664.5 368.5 c 128,-1,27
 615 405 615 405 593 463.5 c 128,-1,28
 571 522 571 522 571 598 c 0,29,30
 571 669 571 669 591 745 c 128,-1,31
 611 821 611 821 651.5 892 c 128,-1,32
 692 963 692 963 747.5 1019 c 128,-1,33
 803 1075 803 1075 879.5 1109 c 128,-1,34
 956 1143 956 1143 1042 1143 c 0,35,36
 1104 1143 1104 1143 1187.5 1129 c 128,-1,37
 1271 1115 1271 1115 1332 1095 c 1,38,39
 1317 1048 1317 1048 1286 957 c 128,-1,40
 1255 866 1255 866 1238 815 c 128,-1,41
 1221 764 1221 764 1206.5 701.5 c 128,-1,42
 1192 639 1192 639 1192 599 c 0,43,44
 1192 522 1192 522 1218 469 c 128,-1,45
 1244 416 1244 416 1292 416 c 0,46,47
 1348 416 1348 416 1405 446 c 128,-1,48
 1462 476 1462 476 1509.5 529.5 c 128,-1,49
 1557 583 1557 583 1586.5 666.5 c 128,-1,50
 1616 750 1616 750 1616 848 c 0,51,52
 1616 1021 1616 1021 1534.5 1149 c 128,-1,53
 1453 1277 1453 1277 1311.5 1342 c 128,-1,54
 1170 1407 1170 1407 987 1407 c 0,55,56
 867 1407 867 1407 759.5 1379.5 c 128,-1,57
 652 1352 652 1352 558.5 1293 c 128,-1,58
 465 1234 465 1234 397 1148.5 c 128,-1,59
 329 1063 329 1063 290 940.5 c 128,-1,60
 251 818 251 818 251 670 c 0,61,62
 251 366 251 366 420 191.5 c 128,-1,63
 589 17 589 17 885 17 c 0,64,65
 1099 17 1099 17 1305 102 c 1,66,-1
 1331 5 l 1,67,68
 1243 -34 1243 -34 1122.5 -58 c 128,-1,69
 1002 -82 1002 -82 882 -82 c 0,0,1
806 423 m 0,70,71
 876 423 876 423 925.5 445 c 128,-1,72
 975 467 975 467 1009 520.5 c 128,-1,73
 1043 574 1043 574 1058 610 c 128,-1,74
 1073 646 1073 646 1099 727 c 0,75,76
 1104 741 1104 741 1106 748 c 0,77,78
 1148 878 1148 878 1193 1034 c 1,79,80
 1138 1060 1138 1060 1036 1060 c 0,81,82
 971 1060 971 1060 914 1031.5 c 128,-1,83
 857 1003 857 1003 817 956 c 128,-1,84
 777 909 777 909 748 849.5 c 128,-1,85
 719 790 719 790 705 728.5 c 128,-1,86
 691 667 691 667 691 610 c 0,87,88
 691 527 691 527 720.5 475 c 128,-1,89
 750 423 750 423 806 423 c 0,70,71
EndSplineSet
EndChar

StartChar: A
Encoding: 65 65 35
Width: 1276
GlyphClass: 2
Flags: W
LayerCount: 2
Fore
SplineSet
6 0 m 1,0,-1
 587 1488 l 1,1,-1
 710 1488 l 1,2,-1
 1270 0 l 1,3,-1
 1138 0 l 1,4,-1
 948 505 l 1,5,-1
 331 505 l 1,6,-1
 133 0 l 1,7,-1
 6 0 l 1,0,-1
370 599 m 1,8,-1
 912 599 l 1,9,10
 647 1359 l 1,11,12
 370 599 l 1,8,-1
EndSplineSet
EndChar

StartChar: B
Encoding: 66 66 36
Width: 1265
GlyphClass: 2
Flags: W
LayerCount: 2
Fore
SplineSet
182 0 m 1,0,-1
 182 1488 l 1,1,-1
 588 1488 l 2,2,3
 865 1488 865 1488 992.5 1396 c 128,-1,4
 1120 1304 1120 1304 1120 1116 c 0,5,6
 1120 1094 1120 1094 1119.5 1083 c 128,-1,7
 1119 1072 1119 1072 1115 1039.5 c 128,-1,8
 1111 1007 1111 1007 1102.5 985 c 128,-1,9
 1094 963 1094 963 1076 930.5 c 128,-1,10
 1058 898 1058 898 1032.5 874 c 128,-1,11
 1007 850 1007 850 966 825.5 c 128,-1,12
 925 801 925 801 873 785 c 1,13,14
 1029 762 1029 762 1112 660 c 128,-1,15
 1195 558 1195 558 1195 419 c 0,16,17
 1195 222 1195 222 1070 111 c 128,-1,18
 945 0 945 0 686 0 c 2,19,-1
 182 0 l 1,0,-1
310 100 m 1,20,-1
 653 100 l 2,21,22
 1058 100 1058 100 1058 419 c 0,23,24
 1058 592 1058 592 946 659.5 c 128,-1,25
 834 727 834 727 595 727 c 2,26,-1
 310 727 l 1,27,-1
 310 100 l 1,20,-1
310 825 m 1,28,-1
 651 825 l 2,29,30
 730 825 730 825 787 837 c 128,-1,31
 844 849 844 849 890.5 879.5 c 128,-1,32
 937 910 937 910 960.5 966.5 c 128,-1,33
 984 1023 984 1023 984 1107 c 0,34,35
 984 1263 984 1263 887.5 1323.5 c 128,-1,36
 791 1384 791 1384 582 1384 c 2,37,-1
 310 1384 l 1,38,-1
 310 825 l 1,28,-1
EndSplineSet
EndChar

StartChar: C
Encoding: 67 67 37
Width: 1286
GlyphClass: 2
Flags: W
LayerCount: 2
Fore
SplineSet
813 -23 m 0,0,1
 642 -23 642 -23 508 35.5 c 128,-1,2
 374 94 374 94 289.5 198 c 128,-1,3
 205 302 205 302 161.5 442 c 128,-1,4
 118 582 118 582 118 749 c 0,5,6
 118 971 118 971 199.5 1142.5 c 128,-1,7
 281 1314 281 1314 443 1414 c 128,-1,8
 605 1514 605 1514 826 1514 c 0,9,10
 1069 1514 1069 1514 1240 1412 c 1,11,-1
 1179 1313 l 1,12,13
 1023 1407 1023 1407 827 1407 c 0,14,15
 690 1407 690 1407 581 1355.5 c 128,-1,16
 472 1304 472 1304 402.5 1213 c 128,-1,17
 333 1122 333 1122 296.5 1002 c 128,-1,18
 260 882 260 882 260 742 c 0,19,20
 260 605 260 605 293.5 488.5 c 128,-1,21
 327 372 327 372 394.5 280.5 c 128,-1,22
 462 189 462 189 574 136.5 c 128,-1,23
 686 84 686 84 832 84 c 0,24,25
 989 84 989 84 1182 171 c 1,26,-1
 1208 68 l 1,27,28
 1062 -23 1062 -23 813 -23 c 0,0,1
EndSplineSet
EndChar

StartChar: D
Encoding: 68 68 38
Width: 1498
GlyphClass: 2
Flags: W
LayerCount: 2
Fore
SplineSet
310 107 m 1,0,-1
 602 107 l 2,1,2
 912 107 912 107 1074.5 265.5 c 128,-1,3
 1237 424 1237 424 1237 738 c 0,4,5
 1237 910 1237 910 1191.5 1035 c 128,-1,6
 1146 1160 1146 1160 1058 1235.5 c 128,-1,7
 970 1311 970 1311 850 1346.5 c 128,-1,8
 730 1382 730 1382 573 1382 c 2,9,-1
 310 1382 l 1,10,-1
 310 107 l 1,0,-1
182 0 m 1,11,-1
 182 1488 l 1,12,-1
 585 1488 l 2,13,14
 767 1488 767 1488 910.5 1445 c 128,-1,15
 1054 1402 1054 1402 1160 1313.5 c 128,-1,16
 1266 1225 1266 1225 1323 1080.5 c 128,-1,17
 1380 936 1380 936 1380 743 c 0,18,19
 1380 378 1380 378 1179 189 c 128,-1,20
 978 0 978 0 616 0 c 2,21,-1
 182 0 l 1,11,-1
EndSplineSet
EndChar

StartChar: E
Encoding: 69 69 39
Width: 1142
GlyphClass: 2
Flags: W
LayerCount: 2
Fore
SplineSet
182 0 m 1,0,-1
 182 1488 l 1,1,-1
 1011 1488 l 1,2,-1
 1006 1382 l 1,3,-1
 310 1382 l 5,4,-1
 310 822 l 1,5,-1
 972 822 l 1,6,-1
 972 713 l 1,7,-1
 310 713 l 1,8,-1
 310 107 l 1,9,-1
 1028 107 l 1,10,-1
 1017 0 l 1,11,-1
 182 0 l 1,0,-1
EndSplineSet
EndChar

StartChar: F
Encoding: 70 70 40
Width: 1025
GlyphClass: 2
Flags: W
LayerCount: 2
Fore
SplineSet
182 0 m 1,0,-1
 182 1488 l 1,1,-1
 982 1488 l 1,2,-1
 976 1382 l 1,3,-1
 311 1382 l 1,4,-1
 311 789 l 1,5,-1
 946 789 l 1,6,-1
 946 686 l 1,7,-1
 311 686 l 1,8,-1
 311 0 l 1,9,-1
 182 0 l 1,0,-1
EndSplineSet
EndChar

StartChar: G
Encoding: 71 71 41
Width: 1469
GlyphClass: 2
Flags: W
LayerCount: 2
Fore
SplineSet
821 -23 m 0,0,1
 685 -23 685 -23 570.5 15.5 c 128,-1,2
 456 54 456 54 373 123 c 128,-1,3
 290 192 290 192 232.5 287.5 c 128,-1,4
 175 383 175 383 146.5 497.5 c 128,-1,5
 118 612 118 612 118 740 c 0,6,7
 118 965 118 965 202 1138.5 c 128,-1,8
 286 1312 286 1312 452.5 1413 c 128,-1,9
 619 1514 619 1514 847 1514 c 0,10,11
 1097 1514 1097 1514 1291 1399 c 1,12,-1
 1234 1296 l 1,13,14
 1152 1346 1152 1346 1048.5 1376.5 c 128,-1,15
 945 1407 945 1407 848 1407 c 0,16,17
 702 1407 702 1407 587.5 1355 c 128,-1,18
 473 1303 473 1303 402 1211.5 c 128,-1,19
 331 1120 331 1120 294.5 1001 c 128,-1,20
 258 882 258 882 258 742 c 0,21,22
 258 593 258 593 295 473 c 128,-1,23
 332 353 332 353 406 265.5 c 128,-1,24
 480 178 480 178 596 130.5 c 128,-1,25
 712 83 712 83 864 83 c 0,26,27
 1021 83 1021 83 1210 158 c 1,28,-1
 1210 634 l 1,29,-1
 841 634 l 1,30,-1
 849 745 l 1,31,-1
 1329 745 l 1,32,-1
 1329 89 l 1,33,34
 1207 26 1207 26 1092.5 1.5 c 128,-1,35
 978 -23 978 -23 821 -23 c 0,0,1
EndSplineSet
EndChar

StartChar: H
Encoding: 72 72 42
Width: 1474
GlyphClass: 2
Flags: W
LayerCount: 2
Fore
SplineSet
182 0 m 1,0,-1
 182 1488 l 1,1,-1
 310 1488 l 1,2,-1
 310 830 l 1,3,-1
 1164 830 l 1,4,-1
 1164 1488 l 1,5,-1
 1292 1488 l 1,6,-1
 1292 0 l 1,7,-1
 1164 0 l 1,8,-1
 1164 718 l 1,9,-1
 310 718 l 1,10,-1
 310 0 l 1,11,-1
 182 0 l 1,0,-1
EndSplineSet
EndChar

StartChar: I
Encoding: 73 73 43
Width: 514
GlyphClass: 2
Flags: W
LayerCount: 2
Fore
SplineSet
193 0 m 1,0,-1
 193 1488 l 1,1,-1
 321 1488 l 1,2,-1
 321 0 l 1,3,-1
 193 0 l 1,0,-1
EndSplineSet
EndChar

StartChar: J
Encoding: 74 74 44
Width: 512
GlyphClass: 2
Flags: W
LayerCount: 2
Fore
SplineSet
1 -138 m 1,0,-1
 -7 -46 l 1,1,-1
 40 -43 l 2,2,3
 90 -40 90 -40 98 -38 c 0,4,5
 124 -33 124 -33 143 -26.5 c 128,-1,6
 162 -20 162 -20 176.5 -6 c 128,-1,7
 191 8 191 8 200.5 19 c 128,-1,8
 210 30 210 30 217 51.5 c 128,-1,9
 224 73 224 73 227 87 c 128,-1,10
 230 101 230 101 232 128 c 128,-1,11
 234 155 234 155 234 170.5 c 128,-1,12
 234 186 234 186 234 216 c 2,13,-1
 234 1488 l 1,14,-1
 367 1488 l 1,15,-1
 367 303 l 2,16,17
 367 240 367 240 366.5 209 c 128,-1,18
 366 178 366 178 363 128.5 c 128,-1,19
 360 79 360 79 353.5 56 c 128,-1,20
 347 33 347 33 335.5 -2 c 128,-1,21
 324 -37 324 -37 306 -52.5 c 128,-1,22
 288 -68 288 -68 261.5 -88.5 c 128,-1,23
 235 -109 235 -109 200 -117.5 c 128,-1,24
 165 -126 165 -126 118.5 -132 c 128,-1,25
 72 -138 72 -138 13 -138 c 2,26,-1
 1 -138 l 1,0,-1
EndSplineSet
EndChar

StartChar: K
Encoding: 75 75 45
Width: 1224
GlyphClass: 2
Flags: W
LayerCount: 2
Fore
SplineSet
182 0 m 1,0,-1
 182 1488 l 1,1,-1
 311 1488 l 1,2,-1
 311 719 l 1,3,4
 344 754 344 754 652 1096 c 2,5,-1
 1006 1488 l 1,6,-1
 1175 1488 l 1,7,-1
 554 817 l 1,8,-1
 1226 0 l 1,9,-1
 1063 0 l 1,10,-1
 456 739 l 1,11,-1
 311 603 l 1,12,-1
 311 0 l 1,13,-1
 182 0 l 1,0,-1
EndSplineSet
EndChar

StartChar: L
Encoding: 76 76 46
Width: 998
GlyphClass: 2
Flags: W
LayerCount: 2
Fore
SplineSet
182 0 m 1,0,-1
 182 1488 l 1,1,-1
 311 1488 l 1,2,-1
 311 113 l 1,3,-1
 980 113 l 1,4,-1
 974 0 l 1,5,-1
 182 0 l 1,0,-1
EndSplineSet
EndChar

StartChar: M
Encoding: 77 77 47
Width: 1804
GlyphClass: 2
Flags: W
LayerCount: 2
Fore
SplineSet
182 0 m 1,0,-1
 182 1488 l 1,1,-1
 362 1488 l 1,2,-1
 913 231 l 1,3,-1
 1449 1488 l 1,4,-1
 1622 1488 l 1,5,-1
 1622 0 l 1,6,-1
 1495 0 l 1,7,-1
 1495 1001 l 1,8,-1
 1502 1339 l 1,9,-1
 1465 1219 l 1,10,-1
 976 85 l 1,11,-1
 836 85 l 1,12,-1
 341 1222 l 1,13,-1
 302 1342 l 1,14,-1
 309 996 l 1,15,-1
 309 0 l 1,16,-1
 182 0 l 1,0,-1
EndSplineSet
EndChar

StartChar: N
Encoding: 78 78 48
Width: 1499
GlyphClass: 2
Flags: W
LayerCount: 2
Fore
SplineSet
182 0 m 1,0,-1
 182 1488 l 1,1,-1
 331 1488 l 1,2,-1
 1150 233 l 1,3,-1
 1203 160 l 1,4,5
 1196 468 1196 468 1196 543 c 2,6,-1
 1196 1488 l 1,7,-1
 1317 1488 l 1,8,-1
 1317 0 l 1,9,-1
 1165 0 l 1,10,-1
 348 1253 l 1,11,-1
 297 1326 l 1,12,13
 305 1101 305 1101 305 938 c 2,14,-1
 305 0 l 1,15,-1
 182 0 l 1,0,-1
EndSplineSet
EndChar

StartChar: O
Encoding: 79 79 49
Width: 1627
GlyphClass: 2
Flags: W
LayerCount: 2
Fore
SplineSet
815 82 m 0,0,1
 999 82 999 82 1124.5 166 c 128,-1,2
 1250 250 1250 250 1308.5 396.5 c 128,-1,3
 1367 543 1367 543 1367 745 c 0,4,5
 1367 1061 1367 1061 1227 1234 c 128,-1,6
 1087 1407 1087 1407 816 1407 c 0,7,8
 543 1407 543 1407 400.5 1234.5 c 128,-1,9
 258 1062 258 1062 258 745 c 0,10,11
 258 438 258 438 399.5 260 c 128,-1,12
 541 82 541 82 815 82 c 0,0,1
815 -23 m 0,13,14
 645 -23 645 -23 511.5 33.5 c 128,-1,15
 378 90 378 90 292.5 192.5 c 128,-1,16
 207 295 207 295 162.5 435 c 128,-1,17
 118 575 118 575 118 744 c 0,18,19
 118 1098 118 1098 300.5 1306 c 128,-1,20
 483 1514 483 1514 816 1514 c 0,21,22
 1143 1514 1143 1514 1326 1304.5 c 128,-1,23
 1509 1095 1509 1095 1509 743 c 0,24,25
 1509 578 1509 578 1464 438.5 c 128,-1,26
 1419 299 1419 299 1333.5 196 c 128,-1,27
 1248 93 1248 93 1115 35 c 128,-1,28
 982 -23 982 -23 815 -23 c 0,13,14
EndSplineSet
EndChar

StartChar: P
Encoding: 80 80 50
Width: 1167
GlyphClass: 2
Flags: W
LayerCount: 2
Fore
SplineSet
182 0 m 1,0,-1
 182 1488 l 1,1,-1
 637 1488 l 2,2,3
 733 1488 733 1488 812 1467.5 c 128,-1,4
 891 1447 891 1447 954.5 1404 c 128,-1,5
 1018 1361 1018 1361 1053 1287.5 c 128,-1,6
 1088 1214 1088 1214 1088 1116 c 0,7,8
 1088 1059 1088 1059 1082.5 1013.5 c 128,-1,9
 1077 968 1077 968 1062 920 c 128,-1,10
 1047 872 1047 872 1021.5 836 c 128,-1,11
 996 800 996 800 954.5 767 c 128,-1,12
 913 734 913 734 856.5 713 c 128,-1,13
 800 692 800 692 721 680 c 128,-1,14
 642 668 642 668 543 668 c 0,15,16
 437 668 437 668 311 681 c 1,17,-1
 311 0 l 1,18,-1
 182 0 l 1,0,-1
556 779 m 0,19,20
 672 779 672 779 753 802 c 128,-1,21
 834 825 834 825 874 854 c 128,-1,22
 914 883 914 883 935 936 c 128,-1,23
 956 989 956 989 958.5 1021 c 128,-1,24
 961 1053 961 1053 961 1111 c 0,25,26
 961 1115 961 1115 961 1117 c 0,27,28
 961 1248 961 1248 872 1312 c 128,-1,29
 783 1376 783 1376 642 1376 c 2,30,-1
 311 1376 l 1,31,-1
 311 791 l 1,32,33
 399 779 399 779 556 779 c 0,19,20
EndSplineSet
EndChar

StartChar: Q
Encoding: 81 81 51
Width: 1612
GlyphClass: 2
Flags: W
LayerCount: 2
Fore
SplineSet
1253 -470 m 2,0,1
 1252 -468 1252 -468 1228.5 -438 c 128,-1,2
 1205 -408 1205 -408 1168.5 -359 c 128,-1,3
 1132 -310 1132 -310 1092 -253 c 128,-1,4
 1052 -196 1052 -196 1011.5 -130.5 c 128,-1,5
 971 -65 971 -65 947 -12 c 1,6,7
 878 -23 878 -23 807 -23 c 0,8,9
 635 -23 635 -23 502.5 33.5 c 128,-1,10
 370 90 370 90 286.5 193 c 128,-1,11
 203 296 203 296 160.5 435.5 c 128,-1,12
 118 575 118 575 118 746 c 0,13,14
 118 1103 118 1103 295.5 1308.5 c 128,-1,15
 473 1514 473 1514 809 1514 c 0,16,17
 1138 1514 1138 1514 1316 1306.5 c 128,-1,18
 1494 1099 1494 1099 1494 745 c 0,19,20
 1494 482 1494 482 1388 290 c 128,-1,21
 1282 98 1282 98 1069 17 c 1,22,23
 1087 -15 1087 -15 1117.5 -65 c 128,-1,24
 1148 -115 1148 -115 1223 -224 c 128,-1,25
 1298 -333 1298 -333 1351 -386 c 1,26,-1
 1253 -470 l 2,0,1
807 91 m 128,-1,28
 1077 91 1077 91 1212 264 c 128,-1,29
 1347 437 1347 437 1347 747 c 0,30,31
 1347 1066 1347 1066 1211 1233 c 128,-1,32
 1075 1400 1075 1400 808 1400 c 0,33,34
 540 1400 540 1400 401 1233 c 128,-1,35
 262 1066 262 1066 262 747 c 0,36,37
 262 438 262 438 399.5 264.5 c 128,-1,27
 537 91 537 91 807 91 c 128,-1,28
EndSplineSet
EndChar

StartChar: R
Encoding: 82 82 52
Width: 1333
GlyphClass: 2
Flags: W
LayerCount: 2
Fore
SplineSet
182 0 m 1,0,-1
 182 1488 l 1,1,-1
 606 1488 l 2,2,3
 687 1488 687 1488 746.5 1485 c 128,-1,4
 806 1482 806 1482 868 1472 c 128,-1,5
 930 1462 930 1462 973.5 1445.5 c 128,-1,6
 1017 1429 1017 1429 1056.5 1401 c 128,-1,7
 1096 1373 1096 1373 1120 1333.5 c 128,-1,8
 1144 1294 1144 1294 1157.5 1239 c 128,-1,9
 1171 1184 1171 1184 1171 1114 c 0,10,11
 1171 977 1171 977 1104 879 c 128,-1,12
 1037 781 1037 781 899 746 c 1,13,14
 959 623 959 623 989 559 c 2,15,-1
 1233 0 l 1,16,-1
 1084 0 l 1,17,-1
 874 509 l 2,18,19
 853 559 853 559 780 725 c 1,20,21
 760 722 760 722 632 722 c 2,22,-1
 310 728 l 1,23,-1
 310 0 l 1,24,-1
 182 0 l 1,0,-1
687 828 m 0,25,26
 886 828 886 828 965 897.5 c 128,-1,27
 1044 967 1044 967 1044 1112 c 0,28,29
 1044 1242 1044 1242 972.5 1311.5 c 128,-1,30
 901 1381 901 1381 729 1381 c 2,31,-1
 310 1381 l 1,32,-1
 310 831 l 1,33,34
 545 828 545 828 687 828 c 0,25,26
EndSplineSet
EndChar

StartChar: S
Encoding: 83 83 53
Width: 1247
GlyphClass: 2
Flags: W
LayerCount: 2
Fore
SplineSet
658 -23 m 0,0,1
 469 -23 469 -23 324 17 c 128,-1,2
 179 57 179 57 99 105 c 1,3,-1
 147 196 l 1,4,5
 358 82 358 82 669 82 c 0,6,7
 840 82 840 82 932.5 171 c 128,-1,8
 1025 260 1025 260 1025 422 c 0,9,10
 1025 482 1025 482 1014 523 c 128,-1,11
 1003 564 1003 564 973 601.5 c 128,-1,12
 943 639 943 639 885.5 664.5 c 128,-1,13
 828 690 828 690 739 708 c 2,14,-1
 499 756 l 2,15,16
 298 796 298 796 197.5 882 c 128,-1,17
 97 968 97 968 97 1127 c 0,18,19
 97 1230 97 1230 137 1305.5 c 128,-1,20
 177 1381 177 1381 252.5 1426 c 128,-1,21
 328 1471 328 1471 427.5 1492.5 c 128,-1,22
 527 1514 527 1514 654 1514 c 4,23,24
 780 1514 780 1514 900.5 1483 c 128,-1,25
 1021 1452 1021 1452 1098 1413 c 1,26,-1
 1065 1315 l 1,27,28
 1006 1348 1006 1348 890.5 1377.5 c 128,-1,29
 775 1407 775 1407 651 1407 c 0,30,31
 440 1407 440 1407 334 1336.5 c 128,-1,32
 228 1266 228 1266 228 1114 c 0,33,34
 228 1019 228 1019 295 961.5 c 128,-1,35
 362 904 362 904 493 876 c 2,36,-1
 761 821 l 2,37,38
 861 800 861 800 930.5 771 c 128,-1,39
 1000 742 1000 742 1053.5 696 c 128,-1,40
 1107 650 1107 650 1133 581.5 c 128,-1,41
 1159 513 1159 513 1159 419 c 0,42,43
 1159 209 1159 209 1021.5 93 c 128,-1,44
 884 -23 884 -23 658 -23 c 0,0,1
EndSplineSet
EndChar

StartChar: T
Encoding: 84 84 54
Width: 1082
GlyphClass: 2
Flags: W
LayerCount: 2
Fore
SplineSet
476 0 m 1,0,-1
 476 1378 l 1,1,-1
 8 1378 l 1,2,-1
 8 1488 l 1,3,-1
 1074 1488 l 1,4,-1
 1074 1378 l 1,5,-1
 606 1378 l 1,6,-1
 606 0 l 1,7,-1
 476 0 l 1,0,-1
EndSplineSet
EndChar

StartChar: U
Encoding: 85 85 55
Width: 1408
GlyphClass: 2
Flags: W
LayerCount: 2
Fore
SplineSet
699 -23 m 0,0,1
 555 -23 555 -23 449 16 c 128,-1,2
 343 55 343 55 280 128 c 128,-1,3
 217 201 217 201 187 297.5 c 128,-1,4
 157 394 157 394 157 517 c 2,5,-1
 157 1488 l 1,6,-1
 285 1488 l 1,7,-1
 285 497 l 2,8,9
 285 284 285 284 390 181.5 c 128,-1,10
 495 79 495 79 707 79 c 0,11,12
 1123 79 1123 79 1123 498 c 2,13,-1
 1123 1488 l 1,14,-1
 1251 1488 l 1,15,-1
 1251 515 l 2,16,17
 1251 417 1251 417 1231.5 336 c 128,-1,18
 1212 255 1212 255 1170 188 c 128,-1,19
 1128 121 1128 121 1064 74.5 c 128,-1,20
 1000 28 1000 28 907.5 2.5 c 128,-1,21
 815 -23 815 -23 699 -23 c 0,0,1
EndSplineSet
EndChar

StartChar: V
Encoding: 86 86 56
Width: 1206
GlyphClass: 2
Flags: W
LayerCount: 2
Fore
SplineSet
531 0 m 1,0,-1
 -5 1488 l 1,1,-1
 137 1488 l 1,2,-1
 475 529 l 1,3,4
 599 137 l 1,5,6
 601 148 601 148 726 535 c 1,7,-1
 1067 1488 l 1,8,-1
 1211 1488 l 1,9,-1
 668 0 l 1,10,-1
 531 0 l 1,0,-1
EndSplineSet
EndChar

StartChar: W
Encoding: 87 87 57
Width: 1995
GlyphClass: 2
Flags: W
LayerCount: 2
Fore
SplineSet
464 0 m 1,0,-1
 2 1488 l 1,1,-1
 143 1488 l 1,2,-1
 539 142 l 1,3,-1
 919 1448 l 1,4,-1
 1087 1448 l 1,5,-1
 1458 143 l 1,6,-1
 1853 1488 l 1,7,-1
 1993 1488 l 1,8,-1
 1532 0 l 1,9,-1
 1389 0 l 1,10,-1
 1006 1321 l 1,11,-1
 606 0 l 1,12,-1
 464 0 l 1,0,-1
EndSplineSet
EndChar

StartChar: X
Encoding: 88 88 58
Width: 1196
GlyphClass: 2
Flags: W
LayerCount: 2
Fore
SplineSet
18 0 m 1,0,-1
 521 786 l 1,1,-1
 49 1488 l 1,2,-1
 202 1488 l 1,3,-1
 603 851 l 1,4,-1
 1021 1488 l 1,5,-1
 1158 1488 l 1,6,-1
 686 794 l 1,7,-1
 1178 0 l 1,8,-1
 1032 0 l 1,9,-1
 600 706 l 1,10,-1
 156 0 l 1,11,-1
 18 0 l 1,0,-1
EndSplineSet
EndChar

StartChar: Y
Encoding: 89 89 59
Width: 1166
GlyphClass: 2
Flags: W
LayerCount: 2
Fore
SplineSet
501 0 m 1,0,-1
 501 589 l 1,1,-1
 5 1488 l 1,2,-1
 144 1488 l 1,3,-1
 575 703 l 1,4,-1
 1020 1488 l 1,5,-1
 1161 1488 l 1,6,-1
 632 593 l 1,7,-1
 632 0 l 1,8,-1
 501 0 l 1,0,-1
EndSplineSet
EndChar

StartChar: Z
Encoding: 90 90 60
Width: 1173
GlyphClass: 2
Flags: W
LayerCount: 2
Fore
SplineSet
97 0 m 1,0,-1
 97 111 l 1,1,-1
 923 1376 l 1,2,-1
 127 1376 l 1,3,-1
 127 1488 l 1,4,-1
 1091 1488 l 1,5,-1
 1091 1384 l 1,6,-1
 259 113 l 1,7,-1
 1099 113 l 1,8,-1
 1091 0 l 1,9,-1
 97 0 l 1,0,-1
EndSplineSet
EndChar

StartChar: bracketleft
Encoding: 91 91 61
Width: 688
GlyphClass: 2
Flags: W
LayerCount: 2
Fore
SplineSet
147 -264 m 1,0,-1
 147 1514 l 1,1,-1
 595 1514 l 1,2,-1
 595 1414 l 1,3,-1
 283 1414 l 1,4,-1
 283 -164 l 1,5,-1
 595 -164 l 1,6,-1
 595 -264 l 1,7,-1
 147 -264 l 1,0,-1
EndSplineSet
EndChar

StartChar: backslash
Encoding: 92 92 62
Width: 816
GlyphClass: 2
Flags: W
LayerCount: 2
Fore
SplineSet
652 -11 m 1,0,-1
 62 1514 l 1,1,-1
 184 1514 l 1,2,-1
 774 -11 l 1,3,-1
 652 -11 l 1,0,-1
EndSplineSet
EndChar

StartChar: bracketright
Encoding: 93 93 63
Width: 688
GlyphClass: 2
Flags: W
LayerCount: 2
Fore
SplineSet
93 -264 m 1,0,-1
 93 -164 l 1,1,-1
 405 -164 l 1,2,-1
 405 1414 l 1,3,-1
 93 1414 l 1,4,-1
 93 1514 l 1,5,-1
 541 1514 l 1,6,-1
 541 -264 l 1,7,-1
 93 -264 l 1,0,-1
EndSplineSet
EndChar

StartChar: asciicircum
Encoding: 94 94 64
Width: 1158
GlyphClass: 2
Flags: W
LayerCount: 2
Fore
SplineSet
84 558 m 1,0,-1
 521 1488 l 1,1,-1
 611 1488 l 1,2,-1
 1071 558 l 1,3,-1
 958 558 l 1,4,-1
 565 1356 l 1,5,-1
 200 558 l 1,6,-1
 84 558 l 1,0,-1
EndSplineSet
EndChar

StartChar: underscore
Encoding: 95 95 65
Width: 1053
GlyphClass: 2
Flags: W
LayerCount: 2
Fore
SplineSet
73 -108 m 1,0,-1
 73 0 l 1,1,-1
 978 0 l 1,2,-1
 978 -108 l 1,3,-1
 73 -108 l 1,0,-1
EndSplineSet
EndChar

StartChar: grave
Encoding: 96 96 66
Width: 702
GlyphClass: 2
Flags: W
LayerCount: 2
Fore
SplineSet
460 1287 m 1,0,-1
 184 1674 l 1,1,-1
 342 1674 l 1,2,-1
 533 1287 l 1,3,-1
 460 1287 l 1,0,-1
EndSplineSet
EndChar

StartChar: a
Encoding: 97 97 67
Width: 1077
GlyphClass: 2
Flags: W
LayerCount: 2
Fore
SplineSet
440 -24 m 0,0,1
 285 -24 285 -24 192 54 c 128,-1,2
 99 132 99 132 99 277 c 0,3,4
 99 363 99 363 136 426.5 c 128,-1,5
 173 490 173 490 243.5 529.5 c 128,-1,6
 314 569 314 569 404.5 591 c 128,-1,7
 495 613 495 613 615 622 c 0,8,9
 743 630 743 630 805 635 c 1,10,-1
 805 757 l 2,11,12
 805 883 805 883 747.5 946.5 c 128,-1,13
 690 1010 690 1010 563 1010 c 0,14,15
 389 1010 389 1010 238 927 c 1,16,17
 234 937 234 937 219.5 970.5 c 128,-1,18
 205 1004 205 1004 199 1022 c 1,19,20
 261 1062 261 1062 361 1089 c 128,-1,21
 461 1116 461 1116 557 1116 c 0,22,23
 754 1116 754 1116 840 1031.5 c 128,-1,24
 926 947 926 947 926 732 c 2,25,-1
 926 0 l 1,26,-1
 829 0 l 1,27,28
 824 23 824 23 814.5 91 c 128,-1,29
 805 159 805 159 805 161 c 1,30,31
 676 -24 676 -24 440 -24 c 0,0,1
444 75 m 0,32,33
 572 75 572 75 671.5 150.5 c 128,-1,34
 771 226 771 226 802 360 c 1,35,-1
 802 547 l 1,36,37
 658 535 658 535 657 535 c 0,38,39
 413 513 413 513 318 455 c 128,-1,40
 223 397 223 397 223 275 c 0,41,42
 223 175 223 175 283.5 125 c 128,-1,43
 344 75 344 75 444 75 c 0,32,33
EndSplineSet
EndChar

StartChar: b
Encoding: 98 98 68
Width: 1187
GlyphClass: 2
Flags: W
LayerCount: 2
Fore
SplineSet
619 -24 m 0,0,1
 396 -24 396 -24 264 159 c 1,2,-1
 251 0 l 1,3,-1
 147 0 l 1,4,-1
 147 1521 l 1,5,-1
 270 1532 l 1,6,-1
 270 1163 l 2,7,8
 270 994 270 994 267 930 c 1,9,10
 328 1024 328 1024 422.5 1070 c 128,-1,11
 517 1116 517 1116 619 1116 c 0,12,13
 841 1116 841 1116 965.5 957.5 c 128,-1,14
 1090 799 1090 799 1090 549 c 0,15,16
 1090 381 1090 381 1038.5 253.5 c 128,-1,17
 987 126 987 126 879 51 c 128,-1,18
 771 -24 771 -24 619 -24 c 0,0,1
625 75 m 0,19,20
 717 75 717 75 784.5 114.5 c 128,-1,21
 852 154 852 154 888.5 222.5 c 128,-1,22
 925 291 925 291 941.5 370.5 c 128,-1,23
 958 450 958 450 958 543 c 0,24,25
 958 617 958 617 948.5 682.5 c 128,-1,26
 939 748 939 748 914.5 810.5 c 128,-1,27
 890 873 890 873 853.5 917 c 128,-1,28
 817 961 817 961 758.5 988 c 128,-1,29
 700 1015 700 1015 625 1015 c 0,30,31
 452 1015 452 1015 360.5 890.5 c 128,-1,32
 269 766 269 766 270 537 c 0,33,34
 270 432 270 432 289.5 349.5 c 128,-1,35
 309 267 309 267 350.5 204.5 c 128,-1,36
 392 142 392 142 461 108.5 c 128,-1,37
 530 75 530 75 625 75 c 0,19,20
EndSplineSet
EndChar

StartChar: c
Encoding: 99 99 69
Width: 965
GlyphClass: 2
Flags: W
LayerCount: 2
Fore
SplineSet
604 -24 m 0,0,1
 445 -24 445 -24 328 54 c 128,-1,2
 211 132 211 132 154 257.5 c 128,-1,3
 97 383 97 383 97 537 c 0,4,5
 97 655 97 655 131 759 c 128,-1,6
 165 863 165 863 227.5 943 c 128,-1,7
 290 1023 290 1023 388.5 1069.5 c 128,-1,8
 487 1116 487 1116 608 1116 c 0,9,10
 687 1116 687 1116 765.5 1095 c 128,-1,11
 844 1074 844 1074 882 1045 c 1,12,-1
 843 952 l 1,13,14
 740 1010 740 1010 599 1010 c 0,15,16
 428 1010 428 1010 328 880.5 c 128,-1,17
 228 751 228 751 228 537 c 0,18,19
 228 332 228 332 327.5 205.5 c 128,-1,20
 427 79 427 79 599 79 c 0,21,22
 719 79 719 79 857 139 c 1,23,-1
 876 50 l 1,24,25
 829 15 829 15 754 -4.5 c 128,-1,26
 679 -24 679 -24 604 -24 c 0,0,1
EndSplineSet
EndChar

StartChar: d
Encoding: 100 100 70
Width: 1183
GlyphClass: 2
Flags: W
LayerCount: 2
Fore
SplineSet
561 -23 m 0,0,1
 342 -23 342 -23 219.5 129 c 128,-1,2
 97 281 97 281 97 549 c 0,3,4
 97 801 97 801 223.5 958.5 c 128,-1,5
 350 1116 350 1116 557 1116 c 0,6,7
 659 1116 659 1116 761 1072 c 128,-1,8
 863 1028 863 1028 916 935 c 1,9,-1
 916 968 l 1,10,-1
 916 1521 l 1,11,-1
 1036 1532 l 1,12,-1
 1036 0 l 1,13,-1
 933 0 l 1,14,-1
 915 165 l 1,15,16
 858 72 858 72 760.5 24.5 c 128,-1,17
 663 -23 663 -23 561 -23 c 0,0,1
558 75 m 0,18,19
 651 75 651 75 721 109 c 128,-1,20
 791 143 791 143 833 205 c 128,-1,21
 875 267 875 267 895.5 347.5 c 128,-1,22
 916 428 916 428 916 526 c 0,23,24
 916 1015 916 1015 556 1015 c 0,25,26
 471 1015 471 1015 406 974.5 c 128,-1,27
 341 934 341 934 303.5 865.5 c 128,-1,28
 266 797 266 797 248 716.5 c 128,-1,29
 230 636 230 636 230 547 c 0,30,31
 230 470 230 470 241 402.5 c 128,-1,32
 252 335 252 335 277 274 c 128,-1,33
 302 213 302 213 339 169.5 c 128,-1,34
 376 126 376 126 432 100.5 c 128,-1,35
 488 75 488 75 558 75 c 0,18,19
EndSplineSet
EndChar

StartChar: e
Encoding: 101 101 71
Width: 1093
GlyphClass: 2
Flags: W
LayerCount: 2
Fore
SplineSet
591 -24 m 0,0,1
 364 -24 364 -24 230.5 128 c 128,-1,2
 97 280 97 280 97 540 c 0,3,4
 97 791 97 791 227.5 951 c 128,-1,5
 358 1111 358 1111 565 1116 c 1,6,7
 758 1116 758 1116 875 978 c 128,-1,8
 992 840 992 840 992 608 c 0,9,10
 992 599 992 599 991.5 571.5 c 128,-1,11
 991 544 991 544 991 533 c 1,12,-1
 228 533 l 1,13,14
 230 322 230 322 330 198.5 c 128,-1,15
 430 75 430 75 594 75 c 0,16,17
 701 75 701 75 780 100 c 128,-1,18
 859 125 859 125 945 171 c 1,19,-1
 966 78 l 1,20,21
 800 -24 800 -24 591 -24 c 0,0,1
233 633 m 1,22,-1
 857 633 l 1,23,24
 857 816 857 816 778 913.5 c 128,-1,25
 699 1011 699 1011 561 1011 c 0,26,27
 421 1011 421 1011 335 907 c 128,-1,28
 249 803 249 803 233 633 c 1,22,-1
EndSplineSet
EndChar

StartChar: f
Encoding: 102 102 72
Width: 638
GlyphClass: 2
Flags: W
LayerCount: 2
Fore
SplineSet
216 0 m 1,0,-1
 216 1005 l 1,1,-1
 36 1005 l 1,2,-1
 44 1082 l 1,3,-1
 216 1096 l 1,4,-1
 216 1137 l 2,5,6
 216 1353 216 1353 291.5 1451 c 128,-1,7
 367 1549 367 1549 523 1549 c 0,8,9
 568 1549 568 1549 676 1534 c 1,10,-1
 667 1452 l 1,11,12
 571 1463 571 1463 537 1463 c 0,13,14
 423 1463 423 1463 381.5 1389.5 c 128,-1,15
 340 1316 340 1316 340 1131 c 2,16,-1
 340 1096 l 1,17,-1
 607 1096 l 1,18,-1
 607 1005 l 1,19,-1
 340 1005 l 1,20,-1
 340 0 l 1,21,-1
 216 0 l 1,0,-1
EndSplineSet
EndChar

StartChar: g
Encoding: 103 103 73
Width: 1173
GlyphClass: 2
Flags: W
LayerCount: 2
Fore
SplineSet
316 -509 m 1,0,-1
 301 -398 l 1,1,-1
 533 -398 l 2,2,3
 610 -398 610 -398 669 -384.5 c 128,-1,4
 728 -371 728 -371 768.5 -349.5 c 128,-1,5
 809 -328 809 -328 837.5 -289.5 c 128,-1,6
 866 -251 866 -251 882 -213 c 128,-1,7
 898 -175 898 -175 906.5 -114.5 c 128,-1,8
 915 -54 915 -54 917 -3.5 c 128,-1,9
 919 47 919 47 919 124 c 1,10,11
 919 113 919 113 917 129 c 0,12,13
 912 198 l 1,14,15
 849 103 849 103 763 51.5 c 128,-1,16
 677 0 677 0 553 0 c 0,17,18
 455 0 455 0 374.5 35 c 128,-1,19
 294 70 294 70 242.5 126 c 128,-1,20
 191 182 191 182 156 254 c 128,-1,21
 121 326 121 326 106 397.5 c 128,-1,22
 91 469 91 469 91 539 c 0,23,24
 91 627 91 627 105.5 706.5 c 128,-1,25
 120 786 120 786 156 862 c 128,-1,26
 192 938 192 938 246 993.5 c 128,-1,27
 300 1049 300 1049 385 1082.5 c 128,-1,28
 470 1116 470 1116 577 1116 c 0,29,30
 682 1116 682 1116 762.5 1074.5 c 128,-1,31
 843 1033 843 1033 912 942 c 1,32,-1
 924 1096 l 1,33,-1
 1034 1096 l 1,34,-1
 1034 80 l 2,35,36
 1034 14 1034 14 1032.5 -26.5 c 128,-1,37
 1031 -67 1031 -67 1020.5 -136.5 c 128,-1,38
 1010 -206 1010 -206 991.5 -250.5 c 128,-1,39
 973 -295 973 -295 935 -349 c 128,-1,40
 897 -403 897 -403 843.5 -434 c 128,-1,41
 790 -465 790 -465 706.5 -487 c 128,-1,42
 623 -509 623 -509 517 -509 c 2,43,-1
 316 -509 l 1,0,-1
569 101 m 0,44,45
 642 101 642 101 701 124.5 c 128,-1,46
 760 148 760 148 798.5 186.5 c 128,-1,47
 837 225 837 225 863.5 277 c 128,-1,48
 890 329 890 329 901 384.5 c 128,-1,49
 912 440 912 440 912 499 c 2,50,-1
 912 613 l 2,51,52
 912 691 912 691 893 760 c 128,-1,53
 874 829 874 829 834.5 887.5 c 128,-1,54
 795 946 795 946 726 980 c 128,-1,55
 657 1014 657 1014 566 1014 c 0,56,57
 492 1014 492 1014 432.5 985.5 c 128,-1,58
 373 957 373 957 335 910 c 128,-1,59
 297 863 297 863 271 800 c 128,-1,60
 245 737 245 737 234.5 671.5 c 128,-1,61
 224 606 224 606 224 537 c 0,62,63
 224 476 224 476 233.5 418.5 c 128,-1,64
 243 361 243 361 267.5 302 c 128,-1,65
 292 243 292 243 330 199.5 c 128,-1,66
 368 156 368 156 429.5 128.5 c 128,-1,67
 491 101 491 101 569 101 c 0,44,45
EndSplineSet
EndChar

StartChar: h
Encoding: 104 104 74
Width: 1149
GlyphClass: 2
Flags: W
LayerCount: 2
Fore
SplineSet
147 0 m 1,0,-1
 147 1521 l 1,1,-1
 271 1532 l 1,2,-1
 271 1009 l 2,3,4
 271 988 271 988 271 980 c 128,-1,5
 271 972 271 972 270.5 971 c 128,-1,6
 270 970 270 970 269.5 960 c 128,-1,7
 269 950 269 950 268 930 c 1,8,9
 402 1116 402 1116 652 1116 c 0,10,11
 1009 1116 1009 1116 1009 685 c 2,12,-1
 1009 0 l 1,13,-1
 886 0 l 1,14,-1
 886 661 l 2,15,16
 886 846 886 846 829 928.5 c 128,-1,17
 772 1011 772 1011 628 1011 c 0,18,19
 485 1011 485 1011 390 935.5 c 128,-1,20
 295 860 295 860 273 741 c 1,21,22
 271 701 271 701 271 622 c 2,23,-1
 271 0 l 1,24,-1
 147 0 l 1,0,-1
EndSplineSet
EndChar

StartChar: i
Encoding: 105 105 75
Width: 445
GlyphClass: 2
Flags: W
LayerCount: 2
Fore
SplineSet
160 0 m 1,0,-1
 160 1096 l 1,1,-1
 285 1096 l 1,2,-1
 285 0 l 1,3,-1
 160 0 l 1,0,-1
160 1320 m 1,4,-1
 160 1488 l 1,5,-1
 284 1488 l 1,6,-1
 284 1320 l 1,7,-1
 160 1320 l 1,4,-1
EndSplineSet
EndChar

StartChar: j
Encoding: 106 106 76
Width: 408
GlyphClass: 2
Flags: W
LayerCount: 2
Fore
SplineSet
-58 -550 m 1,0,-1
 -77 -450 l 1,1,-1
 -28 -450 l 2,2,3
 42 -450 42 -450 81 -439.5 c 128,-1,4
 120 -429 120 -429 137.5 -394.5 c 128,-1,5
 155 -360 155 -360 158 -328.5 c 128,-1,6
 161 -297 161 -297 161 -222 c 0,7,8
 161 -220 161 -220 161 -219 c 2,9,-1
 161 1096 l 1,10,-1
 286 1096 l 1,11,-1
 286 -247 l 2,12,13
 286 -341 286 -341 273.5 -397 c 128,-1,14
 261 -453 261 -453 226.5 -488.5 c 128,-1,15
 192 -524 192 -524 137.5 -537 c 128,-1,16
 83 -550 83 -550 -9 -550 c 2,17,-1
 -58 -550 l 1,0,-1
161 1321 m 1,18,-1
 161 1488 l 1,19,-1
 286 1488 l 1,20,-1
 286 1321 l 1,21,-1
 161 1321 l 1,18,-1
EndSplineSet
EndChar

StartChar: k
Encoding: 107 107 77
Width: 986
GlyphClass: 2
Flags: W
LayerCount: 2
Fore
SplineSet
149 0 m 1,0,-1
 149 1522 l 1,1,-1
 272 1532 l 1,2,-1
 272 663 l 1,3,-1
 272 568 l 1,4,5
 281 579 281 579 336 639 c 128,-1,6
 391 699 391 699 398 707 c 2,7,-1
 777 1096 l 1,8,-1
 944 1096 l 1,9,-1
 485 638 l 1,10,-1
 976 0 l 1,11,-1
 819 0 l 1,12,-1
 400 568 l 1,13,-1
 272 450 l 1,14,-1
 272 0 l 1,15,-1
 149 0 l 1,0,-1
EndSplineSet
EndChar

StartChar: l
Encoding: 108 108 78
Width: 581
GlyphClass: 2
Flags: W
LayerCount: 2
Fore
SplineSet
423 -23 m 0,0,1
 285 -23 285 -23 221 39.5 c 128,-1,2
 157 102 157 102 157 243 c 2,3,-1
 157 1522 l 1,4,-1
 279 1532 l 1,5,-1
 279 250 l 2,6,7
 279 150 279 150 315.5 112 c 128,-1,8
 352 74 352 74 426 74 c 0,9,10
 486 74 486 74 576 97 c 1,11,-1
 581 1 l 1,12,13
 483 -23 483 -23 423 -23 c 0,0,1
EndSplineSet
EndChar

StartChar: m
Encoding: 109 109 79
Width: 1805
GlyphClass: 2
Flags: W
LayerCount: 2
Fore
SplineSet
150 0 m 1,0,1
 147 994 147 994 147 1096 c 1,2,-1
 255 1096 l 1,3,-1
 271 928 l 1,4,5
 319 1010 319 1010 414.5 1063 c 128,-1,6
 510 1116 510 1116 617 1116 c 0,7,8
 880 1116 880 1116 947 909 c 1,9,10
 1064 1116 1064 1116 1316 1116 c 0,11,12
 1496 1116 1496 1116 1580.5 1013.5 c 128,-1,13
 1665 911 1665 911 1665 708 c 2,14,-1
 1665 0 l 1,15,-1
 1541 0 l 1,16,-1
 1541 536 l 2,17,18
 1541 612 1541 612 1539 663 c 128,-1,19
 1537 714 1537 714 1529.5 774 c 128,-1,20
 1522 834 1522 834 1506.5 872 c 128,-1,21
 1491 910 1491 910 1466 944 c 128,-1,22
 1441 978 1441 978 1402 994 c 128,-1,23
 1363 1010 1363 1010 1310 1010 c 0,24,25
 1184 1010 1184 1010 1096.5 935.5 c 128,-1,26
 1009 861 1009 861 975 726 c 1,27,28
 977 624 977 624 980 568 c 2,29,-1
 980 0 l 1,30,-1
 857 0 l 1,31,-1
 857 558 l 2,32,33
 857 643 857 643 852 705.5 c 128,-1,34
 847 768 847 768 832 828 c 128,-1,35
 817 888 817 888 791.5 926 c 128,-1,36
 766 964 766 964 723.5 987 c 128,-1,37
 681 1010 681 1010 622 1010 c 0,38,39
 486 1010 486 1010 394.5 937.5 c 128,-1,40
 303 865 303 865 276 740 c 1,41,42
 274 699 274 699 274 623 c 2,43,-1
 274 0 l 1,44,-1
 150 0 l 1,0,1
EndSplineSet
EndChar

StartChar: n
Encoding: 110 110 80
Width: 1152
GlyphClass: 2
Flags: W
LayerCount: 2
Fore
SplineSet
147 0 m 1,0,-1
 147 1096 l 1,1,-1
 255 1096 l 1,2,-1
 272 927 l 1,3,4
 331 1015 331 1015 430.5 1065.5 c 128,-1,5
 530 1116 530 1116 645 1116 c 0,6,7
 834 1116 834 1116 923 1012 c 128,-1,8
 1012 908 1012 908 1012 680 c 2,9,-1
 1012 0 l 1,10,-1
 887 0 l 1,11,-1
 887 736 l 1,12,13
 882 882 882 882 825 946 c 128,-1,14
 768 1010 768 1010 638 1010 c 0,15,16
 489 1010 489 1010 394.5 935 c 128,-1,17
 300 860 300 860 276 741 c 1,18,19
 272 694 272 694 272 643 c 2,20,-1
 272 0 l 1,21,-1
 147 0 l 1,0,-1
EndSplineSet
EndChar

StartChar: o
Encoding: 111 111 81
Width: 1190
GlyphClass: 2
Flags: W
LayerCount: 2
Fore
SplineSet
601 75 m 0,0,1
 721 75 721 75 803.5 138.5 c 128,-1,2
 886 202 886 202 923.5 306 c 128,-1,3
 961 410 961 410 961 545 c 0,4,5
 961 757 961 757 871 886 c 128,-1,6
 781 1015 781 1015 597 1015 c 0,7,8
 477 1015 477 1015 392.5 950.5 c 128,-1,9
 308 886 308 886 269 781.5 c 128,-1,10
 230 677 230 677 230 542 c 0,11,12
 230 337 230 337 325.5 206 c 128,-1,13
 421 75 421 75 601 75 c 0,0,1
592 -24 m 0,14,15
 443 -24 443 -24 329.5 51 c 128,-1,16
 216 126 216 126 156.5 254.5 c 128,-1,17
 97 383 97 383 97 545 c 0,18,19
 97 667 97 667 131.5 771.5 c 128,-1,20
 166 876 166 876 230 952.5 c 128,-1,21
 294 1029 294 1029 389 1072.5 c 128,-1,22
 484 1116 484 1116 600 1116 c 0,23,24
 754 1116 754 1116 867 1040.5 c 128,-1,25
 980 965 980 965 1036.5 837.5 c 128,-1,26
 1093 710 1093 710 1093 547 c 0,27,28
 1093 383 1093 383 1035 255 c 128,-1,29
 977 127 977 127 862 51.5 c 128,-1,30
 747 -24 747 -24 592 -24 c 0,14,15
EndSplineSet
EndChar

StartChar: p
Encoding: 112 112 82
Width: 1175
GlyphClass: 2
Flags: W
LayerCount: 2
Fore
SplineSet
147 -488 m 1,0,-1
 147 1096 l 1,1,-1
 258 1096 l 1,2,-1
 269 940 l 1,3,4
 346 1028 346 1028 425.5 1072 c 128,-1,5
 505 1116 505 1116 611 1116 c 0,6,7
 845 1116 845 1116 961.5 960.5 c 128,-1,8
 1078 805 1078 805 1078 535 c 0,9,10
 1078 289 1078 289 955 132.5 c 128,-1,11
 832 -24 832 -24 622 -24 c 0,12,13
 514 -24 514 -24 418 27 c 128,-1,14
 322 78 322 78 266 161 c 1,15,16
 271 38 271 38 271 -81 c 2,17,-1
 271 -479 l 1,18,-1
 147 -488 l 1,0,-1
614 78 m 0,19,20
 699 78 699 78 765 119 c 128,-1,21
 831 160 831 160 870 228 c 128,-1,22
 909 296 909 296 928.5 376.5 c 128,-1,23
 948 457 948 457 948 544 c 0,24,25
 948 632 948 632 929 712 c 128,-1,26
 910 792 910 792 871.5 860.5 c 128,-1,27
 833 929 833 929 766 970 c 128,-1,28
 699 1011 699 1011 613 1011 c 0,29,30
 520 1011 520 1011 452.5 977.5 c 128,-1,31
 385 944 385 944 345.5 882 c 128,-1,32
 306 820 306 820 288 741 c 128,-1,33
 270 662 270 662 270 563 c 0,34,35
 270 449 270 449 287 364 c 128,-1,36
 304 279 304 279 342.5 212.5 c 128,-1,37
 381 146 381 146 449 112 c 128,-1,38
 517 78 517 78 614 78 c 0,19,20
EndSplineSet
EndChar

StartChar: q
Encoding: 113 113 83
Width: 1179
GlyphClass: 2
Flags: W
LayerCount: 2
Fore
SplineSet
908 -488 m 1,0,-1
 908 13 l 2,1,2
 908 97 908 97 913 165 c 1,3,4
 855 72 855 72 754.5 24 c 128,-1,5
 654 -24 654 -24 554 -24 c 0,6,7
 410 -24 410 -24 305 49 c 128,-1,8
 200 122 200 122 148.5 246.5 c 128,-1,9
 97 371 97 371 97 532 c 0,10,11
 97 705 97 705 148.5 835 c 128,-1,12
 200 965 200 965 306.5 1040.5 c 128,-1,13
 413 1116 413 1116 562 1116 c 0,14,15
 767 1116 767 1116 913 931 c 1,16,-1
 921 1096 l 1,17,-1
 1032 1096 l 1,18,-1
 1032 -481 l 1,19,-1
 908 -488 l 1,0,-1
554 84 m 0,20,21
 900 84 900 84 905 525 c 0,22,23
 905 637 905 637 886.5 723 c 128,-1,24
 868 809 868 809 828 874.5 c 128,-1,25
 788 940 788 940 719 974.5 c 128,-1,26
 650 1009 650 1009 553 1009 c 0,27,28
 482 1009 482 1009 425.5 982 c 128,-1,29
 369 955 369 955 333 910 c 128,-1,30
 297 865 297 865 272.5 804 c 128,-1,31
 248 743 248 743 238 678.5 c 128,-1,32
 228 614 228 614 228 544 c 0,33,34
 228 451 228 451 245 372 c 128,-1,35
 262 293 262 293 298.5 226.5 c 128,-1,36
 335 160 335 160 400.5 122 c 128,-1,37
 466 84 466 84 554 84 c 0,20,21
EndSplineSet
EndChar

StartChar: r
Encoding: 114 114 84
Width: 715
GlyphClass: 2
Flags: W
LayerCount: 2
Fore
SplineSet
149 0 m 1,0,1
 147 965 147 965 147 1096 c 1,2,-1
 249 1096 l 1,3,-1
 257 880 l 1,4,5
 316 978 316 978 407 1040 c 128,-1,6
 498 1102 498 1102 597 1102 c 0,7,8
 638 1102 638 1102 685 1095 c 1,9,-1
 676 992 l 1,10,11
 640 998 640 998 600 998 c 0,12,13
 461 998 461 998 366.5 888.5 c 128,-1,14
 272 779 272 779 272 629 c 2,15,-1
 272 0 l 1,16,-1
 149 0 l 1,0,1
EndSplineSet
EndChar

StartChar: s
Encoding: 115 115 85
Width: 944
GlyphClass: 2
Flags: W
LayerCount: 2
Fore
SplineSet
467 -25 m 0,0,1
 361 -25 361 -25 268 1 c 128,-1,2
 175 27 175 27 121 63 c 1,3,-1
 139 167 l 1,4,5
 304 81 304 81 455 81 c 0,6,7
 726 81 726 81 736 282 c 1,8,9
 736 366 736 366 681.5 414 c 128,-1,10
 627 462 627 462 463 514 c 0,11,12
 377 544 377 544 368 547 c 0,13,14
 111 625 111 625 109 824 c 0,15,16
 109 939 109 939 210.5 1027.5 c 128,-1,17
 312 1116 312 1116 485 1116 c 128,-1,18
 658 1116 658 1116 810 1048 c 1,19,-1
 768 956 l 1,20,21
 614 1014 614 1014 482 1014 c 0,22,23
 366 1014 366 1014 299.5 962 c 128,-1,24
 233 910 233 910 233 822 c 0,25,26
 233 748 233 748 276.5 708.5 c 128,-1,27
 320 669 320 669 449 633 c 0,28,29
 463 629 463 629 500.5 615 c 128,-1,30
 538 601 538 601 542 600 c 0,31,32
 715 547 715 547 783.5 474.5 c 128,-1,33
 852 402 852 402 852 277 c 0,34,35
 849 133 849 133 744.5 54 c 128,-1,36
 640 -25 640 -25 467 -25 c 0,0,1
EndSplineSet
EndChar

StartChar: t
Encoding: 116 116 86
Width: 676
GlyphClass: 2
Flags: W
LayerCount: 2
Fore
SplineSet
456 -23 m 0,0,1
 318 -23 318 -23 254 39.5 c 128,-1,2
 190 102 190 102 190 243 c 2,3,-1
 190 1005 l 1,4,-1
 35 1005 l 1,5,-1
 44 1080 l 1,6,-1
 192 1094 l 1,7,-1
 225 1345 l 1,8,-1
 312 1351 l 1,9,-1
 312 1096 l 1,10,-1
 632 1096 l 1,11,-1
 632 1005 l 1,12,-1
 312 1005 l 1,13,-1
 312 269 l 2,14,15
 312 153 312 153 350 113.5 c 128,-1,16
 388 74 388 74 484 74 c 0,17,18
 546 74 546 74 638 97 c 1,19,-1
 643 1 l 1,20,21
 522 -23 522 -23 456 -23 c 0,0,1
EndSplineSet
EndChar

StartChar: u
Encoding: 117 117 87
Width: 1106
GlyphClass: 2
Flags: W
LayerCount: 2
Fore
SplineSet
555 -27 m 0,0,1
 469 -27 469 -27 395.5 -7.5 c 128,-1,2
 322 12 322 12 259 53.5 c 128,-1,3
 196 95 196 95 159.5 171 c 128,-1,4
 123 247 123 247 123 350 c 2,5,-1
 123 1096 l 1,6,-1
 247 1096 l 1,7,-1
 247 347 l 2,8,9
 247 269 247 269 271 215 c 128,-1,10
 295 161 295 161 340 133.5 c 128,-1,11
 385 106 385 106 436 95 c 128,-1,12
 487 84 487 84 555 84 c 0,13,14
 622 84 622 84 673 95.5 c 128,-1,15
 724 107 724 107 768 135 c 128,-1,16
 812 163 812 163 835.5 216.5 c 128,-1,17
 859 270 859 270 859 347 c 2,18,-1
 859 1096 l 1,19,-1
 983 1096 l 1,20,-1
 983 350 l 2,21,22
 983 266 983 266 959 200 c 128,-1,23
 935 134 935 134 895 92 c 128,-1,24
 855 50 855 50 798.5 22.5 c 128,-1,25
 742 -5 742 -5 682.5 -16 c 128,-1,26
 623 -27 623 -27 555 -27 c 0,0,1
EndSplineSet
EndChar

StartChar: v
Encoding: 118 118 88
Width: 989
GlyphClass: 2
Flags: W
LayerCount: 2
Fore
SplineSet
419 0 m 1,0,-1
 1 1096 l 1,1,-1
 134 1096 l 1,2,-1
 388 405 l 2,3,4
 408 340 408 340 435.5 266.5 c 128,-1,5
 463 193 463 193 480 152 c 2,6,-1
 497 111 l 1,7,8
 516 175 516 175 546.5 248.5 c 128,-1,9
 577 322 577 322 602 402 c 0,10,11
 629 488 629 488 700 661.5 c 128,-1,12
 771 835 771 835 855 1096 c 1,13,-1
 988 1096 l 1,14,-1
 563 0 l 1,15,-1
 419 0 l 1,0,-1
EndSplineSet
EndChar

StartChar: w
Encoding: 119 119 89
Width: 1557
GlyphClass: 2
Flags: W
LayerCount: 2
Fore
SplineSet
328 0 m 1,0,-1
 22 1096 l 1,1,-1
 152 1096 l 1,2,-1
 405 117 l 1,3,4
 678 995 678 995 710 1096 c 1,5,-1
 862 1096 l 1,6,7
 1161 120 1161 120 1164 120 c 2,8,-1
 1406 1096 l 1,9,-1
 1535 1096 l 1,10,-1
 1234 0 l 1,11,-1
 1090 0 l 2,12,13
 1087 -1 1087 -1 949 461 c 128,-1,14
 811 923 811 923 789 1004 c 1,15,16
 777 950 777 950 698 699.5 c 128,-1,17
 619 449 619 449 546 224 c 128,-1,18
 473 -1 473 -1 472 0 c 2,19,-1
 328 0 l 1,0,-1
EndSplineSet
EndChar

StartChar: x
Encoding: 120 120 90
Width: 1012
GlyphClass: 2
Flags: W
LayerCount: 2
Fore
SplineSet
37 0 m 1,0,-1
 446 555 l 1,1,-1
 50 1096 l 1,2,-1
 188 1096 l 1,3,-1
 508 644 l 1,4,-1
 826 1096 l 1,5,-1
 967 1096 l 1,6,-1
 572 551 l 1,7,-1
 975 0 l 1,8,-1
 842 0 l 1,9,-1
 509 465 l 1,10,-1
 177 0 l 1,11,-1
 37 0 l 1,0,-1
EndSplineSet
EndChar

StartChar: y
Encoding: 121 121 91
Width: 981
GlyphClass: 2
Flags: W
LayerCount: 2
Fore
SplineSet
98 -520 m 0,0,1
 56 -520 56 -520 13 -512 c 1,2,-1
 4 -410 l 2,3,4
 7 -410 7 -410 33.5 -411.5 c 128,-1,5
 60 -413 60 -413 73 -413 c 0,6,7
 199 -413 199 -413 262 -370 c 128,-1,8
 325 -327 325 -327 374 -202 c 0,9,10
 380 -185 380 -185 405.5 -116 c 128,-1,11
 431 -47 431 -47 445 -7 c 1,12,-1
 7 1096 l 1,13,-1
 137 1096 l 1,14,-1
 510 110 l 1,15,16
 555 248 l 0,17,18
 830 1107 830 1107 837 1106 c 0,19,20
 838 1106 838 1106 836 1096 c 1,21,-1
 966 1096 l 1,22,23
 528 -135 528 -135 508 -192 c 0,24,25
 439 -358 439 -358 346 -439 c 128,-1,26
 253 -520 253 -520 98 -520 c 0,0,1
EndSplineSet
EndChar

StartChar: z
Encoding: 122 122 92
Width: 882
GlyphClass: 2
Flags: W
LayerCount: 2
Fore
SplineSet
89 0 m 1,0,-1
 89 104 l 1,1,-1
 668 997 l 1,2,-1
 99 997 l 1,3,-1
 99 1096 l 1,4,-1
 798 1096 l 1,5,-1
 798 979 l 1,6,-1
 217 93 l 1,7,-1
 816 93 l 1,8,-1
 816 0 l 1,9,-1
 89 0 l 1,0,-1
EndSplineSet
EndChar

StartChar: braceleft
Encoding: 123 123 93
Width: 709
GlyphClass: 2
Flags: W
LayerCount: 2
Fore
SplineSet
613 -277 m 1,0,1
 443 -276 443 -276 368.5 -181 c 128,-1,2
 294 -86 294 -86 294 95 c 2,3,-1
 294 255 l 2,4,5
 294 317 294 317 290.5 360 c 128,-1,6
 287 403 287 403 275 450 c 128,-1,7
 263 497 263 497 241 525 c 128,-1,8
 219 553 219 553 180 571.5 c 128,-1,9
 141 590 141 590 86 590 c 1,10,-1
 86 689 l 1,11,12
 121 690 121 690 148.5 694.5 c 128,-1,13
 176 699 176 699 196.5 707.5 c 128,-1,14
 217 716 217 716 233 728 c 128,-1,15
 249 740 249 740 259.5 755.5 c 128,-1,16
 270 771 270 771 277 790 c 128,-1,17
 284 809 284 809 287 831 c 128,-1,18
 290 853 290 853 292 878.5 c 128,-1,19
 294 904 294 904 294 932 c 128,-1,20
 294 960 294 960 294 991 c 0,21,22
 294 1013 294 1013 294 1025 c 2,23,-1
 294 1236 l 2,24,25
 294 1384 294 1384 378 1470.5 c 128,-1,26
 462 1557 462 1557 613 1557 c 1,27,-1
 613 1461 l 1,28,29
 503 1460 503 1460 461.5 1400.5 c 128,-1,30
 420 1341 420 1341 420 1197 c 2,31,-1
 420 934 l 2,32,33
 420 769 420 769 247 637 c 1,34,35
 294 618 294 618 329 584 c 128,-1,36
 364 550 364 550 383 508.5 c 128,-1,37
 402 467 402 467 411 426 c 128,-1,38
 420 385 420 385 420 342 c 2,39,-1
 420 82 l 2,40,41
 420 -65 420 -65 461.5 -122.5 c 128,-1,42
 503 -180 503 -180 613 -181 c 1,43,-1
 613 -277 l 1,0,1
EndSplineSet
EndChar

StartChar: bar
Encoding: 124 124 94
Width: 817
GlyphClass: 2
Flags: W
LayerCount: 2
Fore
SplineSet
349 -413 m 1,0,-1
 349 1606 l 1,1,-1
 468 1606 l 1,2,-1
 468 -413 l 1,3,-1
 349 -413 l 1,0,-1
EndSplineSet
EndChar

StartChar: braceright
Encoding: 125 125 95
Width: 716
GlyphClass: 2
Flags: W
LayerCount: 2
Fore
SplineSet
99 -277 m 1,0,-1
 99 -181 l 1,1,2
 208 -180 208 -180 250.5 -122 c 128,-1,3
 293 -64 293 -64 293 82 c 2,4,-1
 293 342 l 2,5,6
 293 431 293 431 326.5 491 c 128,-1,7
 360 551 360 551 464 646 c 1,8,9
 418 660 418 660 383 692.5 c 128,-1,10
 348 725 348 725 329 766 c 128,-1,11
 310 807 310 807 301.5 849.5 c 128,-1,12
 293 892 293 892 293 934 c 2,13,-1
 293 1197 l 2,14,15
 293 1340 293 1340 250.5 1400 c 128,-1,16
 208 1460 208 1460 99 1461 c 1,17,-1
 99 1557 l 1,18,19
 418 1557 418 1557 418 1184 c 2,20,-1
 418 1025 l 2,21,22
 418 972 418 972 420 936.5 c 128,-1,23
 422 901 422 901 428.5 858.5 c 128,-1,24
 435 816 435 816 449 789 c 128,-1,25
 463 762 463 762 485.5 738 c 128,-1,26
 508 714 508 714 544 702 c 128,-1,27
 580 690 580 690 628 689 c 1,28,-1
 628 590 l 1,29,30
 572 590 572 590 532.5 571.5 c 128,-1,31
 493 553 493 553 471 524.5 c 128,-1,32
 449 496 449 496 437 449 c 128,-1,33
 425 402 425 402 421.5 359.5 c 128,-1,34
 418 317 418 317 418 255 c 2,35,-1
 418 42 l 2,36,37
 418 -104 418 -104 335.5 -190 c 128,-1,38
 253 -276 253 -276 99 -277 c 1,0,-1
EndSplineSet
EndChar

StartChar: asciitilde
Encoding: 126 126 96
Width: 1236
GlyphClass: 2
Flags: W
LayerCount: 2
Fore
SplineSet
156 524 m 1,0,-1
 116 603 l 1,1,2
 151 693 151 693 219 748 c 128,-1,3
 287 803 287 803 379 803 c 0,4,5
 436 803 436 803 485.5 788.5 c 128,-1,6
 535 774 535 774 618 735 c 0,7,8
 637 727 637 727 674.5 709 c 128,-1,9
 712 691 712 691 731 683 c 128,-1,10
 750 675 750 675 777 664.5 c 128,-1,11
 804 654 804 654 824 649.5 c 128,-1,12
 844 645 844 645 861 645 c 0,13,14
 920 645 920 645 976.5 696.5 c 128,-1,15
 1033 748 1033 748 1057 814 c 1,16,-1
 1106 744 l 1,17,18
 1068 638 1068 638 1010 587.5 c 128,-1,19
 952 537 952 537 861 537 c 0,20,21
 777 537 777 537 640 598 c 0,22,23
 564 634 564 634 532.5 648.5 c 128,-1,24
 501 663 501 663 455.5 677.5 c 128,-1,25
 410 692 410 692 377 692 c 0,26,27
 313 692 313 692 253 644.5 c 128,-1,28
 193 597 193 597 156 524 c 1,0,-1
EndSplineSet
EndChar

StartChar: exclamdown
Encoding: 161 161 97
Width: 650
GlyphClass: 2
Flags: W
LayerCount: 2
Fore
SplineSet
235 -402 m 1,0,-1
 235 -312 l 1,1,-1
 285 694 l 1,2,-1
 351 694 l 1,3,-1
 412 -312 l 1,4,-1
 412 -402 l 1,5,-1
 235 -402 l 1,0,-1
325 892 m 0,6,7
 263 892 263 892 232.5 927 c 128,-1,8
 202 962 202 962 202 1009 c 128,-1,9
 202 1056 202 1056 232.5 1091.5 c 128,-1,10
 263 1127 263 1127 325 1127 c 0,11,12
 386 1127 386 1127 417.5 1091.5 c 128,-1,13
 449 1056 449 1056 449 1009 c 128,-1,14
 449 962 449 962 417.5 927 c 128,-1,15
 386 892 386 892 325 892 c 0,6,7
EndSplineSet
EndChar

StartChar: cent
Encoding: 162 162 98
Width: 985
GlyphClass: 2
Flags: W
LayerCount: 2
Fore
SplineSet
567 -162 m 1,0,-1
 567 -28 l 1,1,2
 476 -19 476 -19 397.5 18.5 c 128,-1,3
 319 56 319 56 265 112.5 c 128,-1,4
 211 169 211 169 172.5 240 c 128,-1,5
 134 311 134 311 115.5 386.5 c 128,-1,6
 97 462 97 462 97 537 c 0,7,8
 98 613 98 613 116.5 691 c 128,-1,9
 135 769 135 769 174 843 c 128,-1,10
 213 917 213 917 267.5 976.5 c 128,-1,11
 322 1036 322 1036 399.5 1076.5 c 128,-1,12
 477 1117 477 1117 567 1126 c 1,13,-1
 567 1281 l 1,14,-1
 644 1281 l 1,15,-1
 644 1127 l 1,16,17
 729 1123 729 1123 800.5 1098 c 128,-1,18
 872 1073 872 1073 911 1033 c 1,19,-1
 870 950 l 1,20,21
 774 1014 774 1014 644 1023 c 1,22,-1
 644 75 l 1,23,24
 765 87 765 87 870 156 c 1,25,-1
 908 73 l 1,26,27
 865 30 865 30 792.5 4 c 128,-1,28
 720 -22 720 -22 644 -28 c 1,29,-1
 644 -162 l 1,30,-1
 567 -162 l 1,0,-1
567 77 m 1,31,-1
 567 1022 l 1,32,33
 472 1008 472 1008 395 937.5 c 128,-1,34
 318 867 318 867 275.5 760.5 c 128,-1,35
 233 654 233 654 233 535 c 0,36,37
 233 422 233 422 273.5 323.5 c 128,-1,38
 314 225 314 225 391 158.5 c 128,-1,39
 468 92 468 92 567 77 c 1,31,-1
EndSplineSet
EndChar

StartChar: sterling
Encoding: 163 163 99
Width: 1124
GlyphClass: 2
Flags: W
LayerCount: 2
Fore
SplineSet
101 0 m 1,0,-1
 92 105 l 1,1,2
 277 169 277 169 277 436 c 2,3,-1
 277 696 l 1,4,-1
 91 696 l 1,5,-1
 91 800 l 1,6,-1
 277 800 l 1,7,-1
 277 890 l 2,8,9
 277 961 277 961 280.5 1019.5 c 128,-1,10
 284 1078 284 1078 295 1144.5 c 128,-1,11
 306 1211 306 1211 324 1262.5 c 128,-1,12
 342 1314 342 1314 374 1363 c 128,-1,13
 406 1412 406 1412 448.5 1444 c 128,-1,14
 491 1476 491 1476 553.5 1495.5 c 128,-1,15
 616 1515 616 1515 693 1515 c 0,16,17
 889 1515 889 1515 1037 1390 c 1,18,-1
 971 1303 l 1,19,20
 841 1407 841 1407 690 1407 c 0,21,22
 533 1407 533 1407 469 1296.5 c 128,-1,23
 405 1186 405 1186 405 977 c 2,24,-1
 405 800 l 1,25,-1
 832 800 l 1,26,-1
 832 695 l 1,27,-1
 405 695 l 1,28,-1
 405 526 l 2,29,30
 405 461 405 461 402.5 416 c 128,-1,31
 400 371 400 371 391.5 319.5 c 128,-1,32
 383 268 383 268 367.5 231.5 c 128,-1,33
 352 195 352 195 324.5 159 c 128,-1,34
 297 123 297 123 257 96 c 1,35,36
 307 99 307 99 376.5 106.5 c 128,-1,37
 446 114 446 114 516 114 c 2,38,-1
 1041 114 l 1,39,-1
 1055 0 l 1,40,-1
 101 0 l 1,0,-1
EndSplineSet
EndChar

StartChar: currency
Encoding: 164 164 100
Width: 1146
GlyphClass: 2
Flags: W
LayerCount: 2
Fore
SplineSet
1027 234 m 1,0,-1
 840 412 l 1,1,2
 723 314 723 314 574 314 c 0,3,4
 419 314 419 314 306 412 c 1,5,-1
 121 235 l 1,6,-1
 58 294 l 1,7,-1
 243 474 l 1,8,9
 157 590 157 590 157 732 c 0,10,11
 157 872 157 872 243 989 c 1,12,-1
 57 1171 l 1,13,-1
 121 1230 l 1,14,-1
 306 1053 l 1,15,16
 419 1151 419 1151 574 1151 c 0,17,18
 725 1151 725 1151 840 1053 c 1,19,-1
 1027 1230 l 1,20,-1
 1088 1168 l 1,21,-1
 904 989 l 1,22,23
 990 865 990 865 990 732 c 0,24,25
 990 585 990 585 905 474 c 1,26,-1
 1087 295 l 1,27,-1
 1027 234 l 1,0,-1
574 402 m 0,28,29
 707 402 707 402 801.5 499 c 128,-1,30
 896 596 896 596 896 732 c 128,-1,31
 896 868 896 868 801.5 965.5 c 128,-1,32
 707 1063 707 1063 574 1063 c 0,33,34
 440 1063 440 1063 346 966 c 128,-1,35
 252 869 252 869 252 732 c 128,-1,36
 252 595 252 595 346 498.5 c 128,-1,37
 440 402 440 402 574 402 c 0,28,29
EndSplineSet
EndChar

StartChar: yen
Encoding: 165 165 101
Width: 1166
GlyphClass: 2
Flags: W
LayerCount: 2
Fore
SplineSet
501 0 m 1,0,-1
 501 338 l 1,1,-1
 96 338 l 1,2,-1
 96 448 l 1,3,-1
 501 448 l 1,4,-1
 501 629 l 1,5,-1
 95 629 l 1,6,-1
 95 741 l 1,7,-1
 430 741 l 1,8,-1
 5 1488 l 1,9,-1
 144 1488 l 1,10,-1
 575 705 l 1,11,-1
 1020 1488 l 1,12,-1
 1161 1488 l 1,13,-1
 719 741 l 1,14,-1
 1037 741 l 1,15,-1
 1037 629 l 1,16,-1
 632 629 l 1,17,-1
 632 448 l 1,18,-1
 1036 448 l 1,19,-1
 1036 338 l 1,20,-1
 632 338 l 1,21,-1
 632 0 l 1,22,-1
 501 0 l 1,0,-1
EndSplineSet
EndChar

StartChar: brokenbar
Encoding: 166 166 102
Width: 775
GlyphClass: 2
Flags: W
LayerCount: 2
Fore
SplineSet
329 -200 m 1,0,-1
 329 502 l 1,1,-1
 449 502 l 1,2,-1
 449 -200 l 1,3,-1
 329 -200 l 1,0,-1
329 850 m 1,4,-1
 329 1549 l 1,5,-1
 449 1549 l 1,6,-1
 449 850 l 1,7,-1
 329 850 l 1,4,-1
EndSplineSet
EndChar

StartChar: dieresis
Encoding: 168 168 103
Width: 769
GlyphClass: 2
Flags: W
LayerCount: 2
Fore
SplineSet
136 1266 m 1,0,-1
 136 1443 l 1,1,-1
 272 1443 l 1,2,-1
 272 1266 l 1,3,-1
 136 1266 l 1,0,-1
512 1266 m 1,4,-1
 512 1443 l 1,5,-1
 649 1443 l 1,6,-1
 649 1266 l 1,7,-1
 512 1266 l 1,4,-1
EndSplineSet
EndChar

StartChar: copyright
Encoding: 169 169 104
Width: 1886
GlyphClass: 2
Flags: W
LayerCount: 2
Fore
SplineSet
930 174 m 0,0,1
 793 174 793 174 682.5 243.5 c 128,-1,2
 572 313 572 313 511 434.5 c 128,-1,3
 450 556 450 556 450 707 c 0,4,5
 450 861 450 861 510.5 981 c 128,-1,6
 571 1101 571 1101 684 1169 c 128,-1,7
 797 1237 797 1237 946 1237 c 0,8,9
 1120 1237 1120 1237 1254 1142 c 1,10,-1
 1230 1032 l 1,11,12
 1186 1073 1186 1073 1103 1101.5 c 128,-1,13
 1020 1130 1020 1130 940 1130 c 0,14,15
 869 1130 869 1130 809 1107.5 c 128,-1,16
 749 1085 749 1085 707.5 1046 c 128,-1,17
 666 1007 666 1007 637 953.5 c 128,-1,18
 608 900 608 900 595 840 c 128,-1,19
 582 780 582 780 582 714 c 0,20,21
 582 621 582 621 605 543 c 128,-1,22
 628 465 628 465 673 405.5 c 128,-1,23
 718 346 718 346 791.5 313 c 128,-1,24
 865 280 865 280 960 280 c 0,25,26
 1028 280 1028 280 1105.5 305 c 128,-1,27
 1183 330 1183 330 1222 359 c 1,28,-1
 1258 257 l 1,29,30
 1205 225 1205 225 1112 199.5 c 128,-1,31
 1019 174 1019 174 930 174 c 0,0,1
927 -24 m 0,32,33
 1032 -24 1032 -24 1131 4.5 c 128,-1,34
 1230 33 1230 33 1318 92 c 128,-1,35
 1406 151 1406 151 1472 234.5 c 128,-1,36
 1538 318 1538 318 1576 436.5 c 128,-1,37
 1614 555 1614 555 1614 694 c 0,38,39
 1614 834 1614 834 1574.5 954.5 c 128,-1,40
 1535 1075 1535 1075 1467.5 1160 c 128,-1,41
 1400 1245 1400 1245 1311 1305.5 c 128,-1,42
 1222 1366 1222 1366 1121 1395 c 128,-1,43
 1020 1424 1020 1424 915 1424 c 0,44,45
 812 1424 812 1424 715 1396 c 128,-1,46
 618 1368 618 1368 531.5 1309 c 128,-1,47
 445 1250 445 1250 380.5 1166.5 c 128,-1,48
 316 1083 316 1083 278.5 963 c 128,-1,49
 241 843 241 843 241 701 c 0,50,51
 241 583 241 583 268 479.5 c 128,-1,52
 295 376 295 376 343 297.5 c 128,-1,53
 391 219 391 219 455.5 157 c 128,-1,54
 520 95 520 95 597 56 c 128,-1,55
 674 17 674 17 757 -3.5 c 128,-1,56
 840 -24 840 -24 927 -24 c 0,32,33
924 -116 m 0,57,58
 803 -116 803 -116 688.5 -84 c 128,-1,59
 574 -52 574 -52 472 14.5 c 128,-1,60
 370 81 370 81 294 175.5 c 128,-1,61
 218 270 218 270 173.5 405 c 128,-1,62
 129 540 129 540 129 698 c 0,63,64
 129 858 129 858 173 993 c 128,-1,65
 217 1128 217 1128 292.5 1222.5 c 128,-1,66
 368 1317 368 1317 469 1384 c 128,-1,67
 570 1451 570 1451 683.5 1482.5 c 128,-1,68
 797 1514 797 1514 918 1514 c 0,69,70
 1040 1514 1040 1514 1156.5 1481.5 c 128,-1,71
 1273 1449 1273 1449 1376.5 1381.5 c 128,-1,72
 1480 1314 1480 1314 1557.5 1219 c 128,-1,73
 1635 1124 1635 1124 1680.5 989.5 c 128,-1,74
 1726 855 1726 855 1726 698 c 0,75,76
 1726 540 1726 540 1681 406 c 128,-1,77
 1636 272 1636 272 1559 177 c 128,-1,78
 1482 82 1482 82 1379.5 15 c 128,-1,79
 1277 -52 1277 -52 1161.5 -84 c 128,-1,80
 1046 -116 1046 -116 924 -116 c 0,57,58
EndSplineSet
EndChar

StartChar: ordfeminine
Encoding: 170 170 105
Width: 830
GlyphClass: 2
Flags: W
LayerCount: 2
Fore
SplineSet
358 892 m 0,0,1
 305 892 305 892 255.5 912 c 128,-1,2
 206 932 206 932 169.5 978 c 128,-1,3
 133 1024 133 1024 133 1088 c 0,4,5
 133 1141 133 1141 155.5 1180 c 128,-1,6
 178 1219 178 1219 213 1243 c 128,-1,7
 248 1267 248 1267 307 1284.5 c 128,-1,8
 366 1302 366 1302 422 1310.5 c 128,-1,9
 478 1319 478 1319 560 1326 c 1,10,-1
 560 1349 l 2,11,12
 560 1449 560 1449 529.5 1498 c 128,-1,13
 499 1547 499 1547 424 1547 c 0,14,15
 364 1547 364 1547 291 1528 c 128,-1,16
 218 1509 218 1509 178 1481 c 1,17,-1
 141 1554 l 1,18,19
 259 1624 259 1624 428 1624 c 0,20,21
 529 1624 529 1624 592.5 1564 c 128,-1,22
 656 1504 656 1504 656 1371 c 2,23,-1
 656 1027 l 1,24,-1
 656 902 l 1,25,-1
 595 902 l 1,26,-1
 572 1010 l 1,27,28
 544 951 544 951 486.5 921.5 c 128,-1,29
 429 892 429 892 358 892 c 0,0,1
363 968 m 2,30,-1
 369 968 l 2,31,32
 459 970 459 970 511 1036.5 c 128,-1,33
 563 1103 563 1103 563 1217 c 2,34,-1
 563 1256 l 1,35,36
 529 1254 529 1254 511 1252.5 c 128,-1,37
 493 1251 493 1251 453 1246 c 128,-1,38
 413 1241 413 1241 388 1234.5 c 128,-1,39
 363 1228 363 1228 330 1216 c 128,-1,40
 297 1204 297 1204 278.5 1189 c 128,-1,41
 260 1174 260 1174 246 1151.5 c 128,-1,42
 232 1129 232 1129 232 1101 c 2,43,-1
 232 1098 l 2,44,45
 235 968 235 968 363 968 c 2,30,-1
144 720 m 1,46,-1
 144 798 l 1,47,-1
 682 798 l 1,48,-1
 682 720 l 1,49,-1
 144 720 l 1,46,-1
EndSplineSet
EndChar

StartChar: guillemotleft
Encoding: 171 171 106
Width: 962
GlyphClass: 2
Flags: W
LayerCount: 2
Fore
SplineSet
391 157 m 1,0,-1
 141 503 l 1,1,-1
 107 553 l 1,2,-1
 394 959 l 1,3,-1
 508 935 l 1,4,-1
 237 561 l 1,5,-1
 503 182 l 1,6,-1
 391 157 l 1,0,-1
752 157 m 1,7,-1
 460 573 l 1,8,-1
 754 959 l 1,9,-1
 849 935 l 1,10,-1
 597 561 l 1,11,-1
 846 182 l 1,12,-1
 752 157 l 1,7,-1
EndSplineSet
EndChar

StartChar: logicalnot
Encoding: 172 172 107
Width: 1197
GlyphClass: 2
Flags: W
LayerCount: 2
Fore
SplineSet
967 268 m 1,0,-1
 967 707 l 1,1,-1
 99 707 l 1,2,-1
 99 817 l 1,3,-1
 1076 817 l 1,4,-1
 1076 268 l 1,5,-1
 967 268 l 1,0,-1
EndSplineSet
EndChar

StartChar: uni00AD
Encoding: 173 173 108
Width: 1038
GlyphClass: 2
Flags: W
LayerCount: 2
Fore
SplineSet
123 140 m 1,0,-1
 123 255 l 1,1,-1
 922 255 l 1,2,-1
 922 140 l 1,3,-1
 123 140 l 1,0,-1
EndSplineSet
EndChar

StartChar: registered
Encoding: 174 174 109
Width: 1865
GlyphClass: 2
Flags: W
LayerCount: 2
Fore
SplineSet
623 212 m 1,0,-1
 623 1202 l 1,1,-1
 966 1202 l 2,2,3
 1138 1202 1138 1202 1220 1132.5 c 128,-1,4
 1302 1063 1302 1063 1302 936 c 0,5,6
 1302 891 1302 891 1289.5 850.5 c 128,-1,7
 1277 810 1277 810 1250.5 772 c 128,-1,8
 1224 734 1224 734 1174.5 709 c 128,-1,9
 1125 684 1125 684 1058 678 c 1,10,11
 1077 652 1077 652 1096 623 c 128,-1,12
 1115 594 1115 594 1144.5 547 c 128,-1,13
 1174 500 1174 500 1195 465.5 c 128,-1,14
 1216 431 1216 431 1266 348.5 c 128,-1,15
 1316 266 1316 266 1349 212 c 1,16,-1
 1214 212 l 1,17,18
 1021 544 1021 544 941 658 c 1,19,-1
 735 658 l 1,20,-1
 735 212 l 1,21,-1
 623 212 l 1,0,-1
736 754 m 1,22,-1
 941 754 l 2,23,24
 1071 754 1071 754 1130.5 790.5 c 128,-1,25
 1190 827 1190 827 1190 924 c 0,26,27
 1190 1034 1190 1034 1134 1070.5 c 128,-1,28
 1078 1107 1078 1107 931 1107 c 2,29,-1
 736 1107 l 1,30,-1
 736 754 l 1,22,-1
927 -24 m 0,31,32
 1032 -24 1032 -24 1131 4.5 c 128,-1,33
 1230 33 1230 33 1318 92 c 128,-1,34
 1406 151 1406 151 1472 234.5 c 128,-1,35
 1538 318 1538 318 1576 436.5 c 128,-1,36
 1614 555 1614 555 1614 694 c 0,37,38
 1614 834 1614 834 1574.5 954.5 c 128,-1,39
 1535 1075 1535 1075 1467.5 1160 c 128,-1,40
 1400 1245 1400 1245 1311 1305.5 c 128,-1,41
 1222 1366 1222 1366 1121 1395 c 128,-1,42
 1020 1424 1020 1424 915 1424 c 0,43,44
 812 1424 812 1424 715 1396 c 128,-1,45
 618 1368 618 1368 531.5 1309 c 128,-1,46
 445 1250 445 1250 380.5 1166.5 c 128,-1,47
 316 1083 316 1083 278.5 963 c 128,-1,48
 241 843 241 843 241 701 c 0,49,50
 241 583 241 583 268 479.5 c 128,-1,51
 295 376 295 376 343 297.5 c 128,-1,52
 391 219 391 219 455.5 157 c 128,-1,53
 520 95 520 95 597 56 c 128,-1,54
 674 17 674 17 757 -3.5 c 128,-1,55
 840 -24 840 -24 927 -24 c 0,31,32
924 -116 m 0,56,57
 803 -116 803 -116 688.5 -84 c 128,-1,58
 574 -52 574 -52 472 14.5 c 128,-1,59
 370 81 370 81 294 175.5 c 128,-1,60
 218 270 218 270 173.5 405 c 128,-1,61
 129 540 129 540 129 698 c 0,62,63
 129 858 129 858 173 993 c 128,-1,64
 217 1128 217 1128 292.5 1222.5 c 128,-1,65
 368 1317 368 1317 469 1384 c 128,-1,66
 570 1451 570 1451 683.5 1482.5 c 128,-1,67
 797 1514 797 1514 918 1514 c 0,68,69
 1040 1514 1040 1514 1156.5 1481.5 c 128,-1,70
 1273 1449 1273 1449 1376.5 1381.5 c 128,-1,71
 1480 1314 1480 1314 1557.5 1219 c 128,-1,72
 1635 1124 1635 1124 1680.5 989.5 c 128,-1,73
 1726 855 1726 855 1726 698 c 0,74,75
 1726 540 1726 540 1681 406 c 128,-1,76
 1636 272 1636 272 1559 177 c 128,-1,77
 1482 82 1482 82 1379.5 15 c 128,-1,78
 1277 -52 1277 -52 1161.5 -84 c 128,-1,79
 1046 -116 1046 -116 924 -116 c 0,56,57
EndSplineSet
EndChar

StartChar: macron
Encoding: 175 175 110
Width: 1131
GlyphClass: 2
Flags: W
LayerCount: 2
Fore
SplineSet
256 1270 m 1,0,-1
 256 1376 l 1,1,-1
 874 1376 l 1,2,-1
 874 1270 l 1,3,-1
 256 1270 l 1,0,-1
EndSplineSet
EndChar

StartChar: degree
Encoding: 176 176 111
Width: 844
GlyphClass: 2
Flags: W
LayerCount: 2
Fore
SplineSet
422.5 1011 m 128,-1,1
 475 1011 475 1011 520.5 1034.5 c 128,-1,2
 566 1058 566 1058 596.5 1109.5 c 128,-1,3
 627 1161 627 1161 627 1231 c 0,4,5
 627 1302 627 1302 596.5 1354 c 128,-1,6
 566 1406 566 1406 520.5 1430 c 128,-1,7
 475 1454 475 1454 422 1454 c 256,8,9
 369 1454 369 1454 324 1430 c 128,-1,10
 279 1406 279 1406 249 1354 c 128,-1,11
 219 1302 219 1302 219 1231 c 0,12,13
 219 1161 219 1161 249 1109.5 c 128,-1,14
 279 1058 279 1058 324.5 1034.5 c 128,-1,0
 370 1011 370 1011 422.5 1011 c 128,-1,1
418 932 m 0,15,16
 359 932 359 932 305 951 c 128,-1,17
 251 970 251 970 207.5 1006 c 128,-1,18
 164 1042 164 1042 138 1100 c 128,-1,19
 112 1158 112 1158 112 1231 c 128,-1,20
 112 1304 112 1304 138.5 1363 c 128,-1,21
 165 1422 165 1422 209.5 1458 c 128,-1,22
 254 1494 254 1494 308.5 1513.5 c 128,-1,23
 363 1533 363 1533 422.5 1533 c 128,-1,24
 482 1533 482 1533 536.5 1514 c 128,-1,25
 591 1495 591 1495 635 1458.5 c 128,-1,26
 679 1422 679 1422 705.5 1363 c 128,-1,27
 732 1304 732 1304 732 1231 c 0,28,29
 732 1160 732 1160 705 1101.5 c 128,-1,30
 678 1043 678 1043 633.5 1007 c 128,-1,31
 589 971 589 971 533.5 951.5 c 128,-1,32
 478 932 478 932 418 932 c 0,15,16
EndSplineSet
EndChar

StartChar: plusminus
Encoding: 177 177 112
Width: 1163
GlyphClass: 2
Flags: W
LayerCount: 2
Fore
SplineSet
526 215 m 1,0,-1
 526 654 l 1,1,-1
 95 654 l 1,2,-1
 95 765 l 1,3,-1
 525 765 l 1,4,-1
 525 1213 l 1,5,-1
 632 1213 l 1,6,-1
 632 765 l 1,7,-1
 1067 765 l 1,8,-1
 1067 654 l 1,9,-1
 635 654 l 1,10,-1
 635 215 l 1,11,-1
 526 215 l 1,0,-1
95 0 m 1,12,-1
 95 121 l 1,13,-1
 1070 121 l 1,14,-1
 1070 0 l 1,15,-1
 95 0 l 1,12,-1
EndSplineSet
EndChar

StartChar: acute
Encoding: 180 180 113
Width: 648
GlyphClass: 2
Flags: W
LayerCount: 2
Fore
SplineSet
126 1287 m 1,0,-1
 320 1674 l 1,1,-1
 474 1674 l 1,2,-1
 201 1287 l 1,3,-1
 126 1287 l 1,0,-1
EndSplineSet
EndChar

StartChar: paragraph
Encoding: 182 182 114
Width: 1007
GlyphClass: 2
Flags: W
LayerCount: 2
Fore
SplineSet
494 0 m 1,0,1
 492 863 492 863 491 863 c 0,2,3
 394 863 394 863 314.5 892 c 128,-1,4
 235 921 235 921 184.5 969.5 c 128,-1,5
 134 1018 134 1018 107 1077.5 c 128,-1,6
 80 1137 80 1137 80 1201 c 0,7,8
 80 1262 80 1262 105 1317 c 128,-1,9
 130 1372 130 1372 178.5 1416.5 c 128,-1,10
 227 1461 227 1461 307 1487.5 c 128,-1,11
 387 1514 387 1514 487 1514 c 2,12,-1
 925 1514 l 1,13,-1
 925 1417 l 1,14,-1
 853 1417 l 1,15,-1
 853 0 l 1,16,-1
 761 0 l 1,17,-1
 761 1417 l 1,18,-1
 588 1417 l 1,19,-1
 588 0 l 1,20,-1
 494 0 l 1,0,1
EndSplineSet
EndChar

StartChar: periodcentered
Encoding: 183 183 115
Width: 489
GlyphClass: 2
Flags: W
LayerCount: 2
Fore
SplineSet
169 610 m 1,0,-1
 169 772 l 1,1,-1
 319 772 l 1,2,-1
 319 610 l 1,3,-1
 169 610 l 1,0,-1
EndSplineSet
EndChar

StartChar: cedilla
Encoding: 184 184 116
Width: 599
GlyphClass: 2
Flags: W
LayerCount: 2
Fore
SplineSet
138 -410 m 1,0,-1
 245 11 l 1,1,-1
 304 11 l 1,2,-1
 267 -410 l 1,3,-1
 138 -410 l 1,0,-1
EndSplineSet
EndChar

StartChar: uni00B9
Encoding: 185 185 117
Width: 656
GlyphClass: 2
Flags: W
LayerCount: 2
Fore
SplineSet
181 681 m 1,0,-1
 181 747 l 1,1,-1
 285 747 l 1,2,-1
 285 1416 l 1,3,4
 256 1394 256 1394 171 1344 c 1,5,-1
 171 1425 l 1,6,7
 265 1479 265 1479 293 1514 c 1,8,-1
 378 1514 l 1,9,-1
 378 747 l 1,10,-1
 485 747 l 1,11,-1
 485 681 l 1,12,-1
 181 681 l 1,0,-1
EndSplineSet
EndChar

StartChar: guillemotright
Encoding: 187 187 118
Width: 941
GlyphClass: 2
Flags: W
LayerCount: 2
Fore
SplineSet
192 157 m 1,0,-1
 97 182 l 1,1,-1
 349 562 l 1,2,-1
 99 935 l 1,3,-1
 192 959 l 1,4,-1
 486 547 l 1,5,-1
 192 157 l 1,0,-1
564 157 m 1,6,-1
 455 182 l 1,7,-1
 721 562 l 1,8,-1
 460 935 l 1,9,-1
 567 959 l 1,10,-1
 844 547 l 1,11,-1
 564 157 l 1,6,-1
EndSplineSet
EndChar

StartChar: onequarter
Encoding: 188 188 119
Width: 1553
GlyphClass: 2
Flags: W
LayerCount: 2
Fore
SplineSet
149 681 m 1,0,-1
 149 747 l 1,1,-1
 253 747 l 1,2,-1
 253 1416 l 1,3,4
 224 1394 224 1394 139 1344 c 1,5,-1
 139 1425 l 1,6,7
 233 1479 233 1479 261 1514 c 1,8,-1
 346 1514 l 1,9,-1
 346 747 l 1,10,-1
 453 747 l 1,11,-1
 453 681 l 1,12,-1
 149 681 l 1,0,-1
1270 0 m 1,13,-1
 1270 218 l 1,14,-1
 895 218 l 1,15,-1
 895 289 l 1,16,-1
 1270 861 l 1,17,-1
 1363 861 l 1,18,-1
 1363 300 l 1,19,-1
 1455 300 l 1,20,-1
 1463 218 l 1,21,-1
 1363 218 l 1,22,-1
 1363 0 l 1,23,-1
 1270 0 l 1,13,-1
281 0 m 1,24,-1
 1169 1514 l 1,25,-1
 1262 1514 l 1,26,-1
 381 0 l 1,27,-1
 281 0 l 1,24,-1
995 300 m 1,28,-1
 1270 300 l 1,29,30
 1269 685 1269 685 1270 727 c 1,31,-1
 995 300 l 1,28,-1
EndSplineSet
EndChar

StartChar: onehalf
Encoding: 189 189 120
Width: 1493
GlyphClass: 2
Flags: W
LayerCount: 2
Fore
SplineSet
149 681 m 1,0,-1
 149 747 l 1,1,-1
 253 747 l 1,2,-1
 253 1416 l 1,3,4
 224 1394 224 1394 139 1344 c 1,5,-1
 139 1425 l 1,6,7
 233 1479 233 1479 261 1514 c 1,8,-1
 346 1514 l 1,9,-1
 346 747 l 1,10,-1
 453 747 l 1,11,-1
 453 681 l 1,12,-1
 149 681 l 1,0,-1
892 0 m 1,13,-1
 892 77 l 1,14,15
 1175 380 1175 380 1262 492 c 128,-1,16
 1349 604 1349 604 1349 679 c 0,17,18
 1349 749 1349 749 1301.5 790.5 c 128,-1,19
 1254 832 1254 832 1192 832 c 0,20,21
 1134 832 1134 832 1085 804 c 128,-1,22
 1036 776 1036 776 991 704 c 1,23,-1
 909 735 l 1,24,25
 946 824 946 824 1022.5 872 c 128,-1,26
 1099 920 1099 920 1189 920 c 0,27,28
 1298 920 1298 920 1375 853 c 128,-1,29
 1452 786 1452 786 1452 671 c 0,30,31
 1452 627 1452 627 1435.5 581.5 c 128,-1,32
 1419 536 1419 536 1397.5 499 c 128,-1,33
 1376 462 1376 462 1328.5 407 c 128,-1,34
 1281 352 1281 352 1245.5 314.5 c 128,-1,35
 1210 277 1210 277 1138 203.5 c 128,-1,36
 1066 130 1066 130 1021 82 c 1,37,-1
 1435 82 l 1,38,-1
 1443 0 l 1,39,-1
 892 0 l 1,13,-1
270 0 m 1,40,-1
 1158 1514 l 1,41,-1
 1251 1514 l 1,42,-1
 370 0 l 1,43,-1
 270 0 l 1,40,-1
EndSplineSet
EndChar

StartChar: threequarters
Encoding: 190 190 121
Width: 1606
GlyphClass: 2
Flags: W
LayerCount: 2
Fore
SplineSet
359 625 m 0,0,1
 293 625 293 625 230 645 c 128,-1,2
 167 665 167 665 129 703 c 1,3,-1
 167 771 l 1,4,5
 223 728 223 728 265 715.5 c 128,-1,6
 307 703 307 703 355 703 c 0,7,8
 419 703 419 703 468.5 748.5 c 128,-1,9
 518 794 518 794 518 863 c 0,10,11
 518 1035 518 1035 325 1035 c 2,12,-1
 236 1035 l 1,13,-1
 236 1109 l 1,14,-1
 316 1109 l 2,15,16
 396 1109 396 1109 443.5 1147 c 128,-1,17
 491 1185 491 1185 487 1271 c 0,18,19
 484 1331 484 1331 443 1369.5 c 128,-1,20
 402 1408 402 1408 336 1408 c 0,21,22
 292 1408 292 1408 244.5 1393 c 128,-1,23
 197 1378 197 1378 174 1358 c 1,24,-1
 133 1429 l 1,25,26
 165 1452 165 1452 221.5 1468 c 128,-1,27
 278 1484 278 1484 335 1484 c 0,28,29
 384 1484 384 1484 427.5 1472.5 c 128,-1,30
 471 1461 471 1461 507 1437 c 128,-1,31
 543 1413 543 1413 564 1371 c 128,-1,32
 585 1329 585 1329 585 1273 c 0,33,34
 585 1237 585 1237 576 1207 c 128,-1,35
 567 1177 567 1177 557 1159.5 c 128,-1,36
 547 1142 547 1142 525 1123.5 c 128,-1,37
 503 1105 503 1105 491 1098 c 128,-1,38
 479 1091 479 1091 452 1076 c 1,39,40
 605 1033 605 1033 605 870 c 0,41,42
 605 754 605 754 535.5 689.5 c 128,-1,43
 466 625 466 625 359 625 c 0,0,1
1340 0 m 1,44,-1
 1340 218 l 1,45,-1
 965 218 l 1,46,-1
 965 289 l 1,47,-1
 1340 861 l 1,48,-1
 1433 861 l 1,49,-1
 1433 300 l 1,50,-1
 1525 300 l 1,51,-1
 1533 218 l 1,52,-1
 1433 218 l 1,53,-1
 1433 0 l 1,54,-1
 1340 0 l 1,44,-1
351 0 m 1,55,-1
 1239 1514 l 1,56,-1
 1332 1514 l 1,57,-1
 451 0 l 1,58,-1
 351 0 l 1,55,-1
1065 300 m 1,59,-1
 1340 300 l 1,60,61
 1339 685 1339 685 1340 727 c 1,62,-1
 1065 300 l 1,59,-1
EndSplineSet
EndChar

StartChar: AE
Encoding: 198 198 129
Width: 1915
GlyphClass: 2
Flags: W
LayerCount: 2
Fore
SplineSet
6 0 m 1,0,-1
 892 1488 l 1,1,-1
 1786 1488 l 1,2,-1
 1779 1377 l 1,3,-1
 1060 1377 l 1,4,-1
 1101 822 l 1,5,-1
 1744 822 l 1,6,-1
 1744 713 l 1,7,-1
 1109 713 l 1,8,-1
 1158 111 l 1,9,-1
 1801 111 l 1,10,-1
 1790 0 l 1,11,-1
 1053 0 l 1,12,-1
 1014 505 l 1,13,-1
 441 505 l 1,14,-1
 148 0 l 1,15,-1
 6 0 l 1,0,-1
495 600 m 1,16,-1
 1006 600 l 1,17,-1
 950 1378 l 1,18,-1
 495 600 l 1,16,-1
EndSplineSet
EndChar

StartChar: Eth
Encoding: 208 208 139
AltUni2: 000110.ffffffff.0
Width: 1498
GlyphClass: 2
Flags: W
LayerCount: 2
Fore
SplineSet
310 107 m 1,0,-1
 602 107 l 2,1,2
 912 107 912 107 1074.5 265.5 c 128,-1,3
 1237 424 1237 424 1237 738 c 0,4,5
 1237 910 1237 910 1191.5 1035 c 128,-1,6
 1146 1160 1146 1160 1058 1235.5 c 128,-1,7
 970 1311 970 1311 850 1346.5 c 128,-1,8
 730 1382 730 1382 573 1382 c 2,9,-1
 310 1382 l 1,10,-1
 310 833 l 1,11,-1
 552 833 l 1,12,-1
 552 737 l 1,13,-1
 310 737 l 1,14,-1
 310 107 l 1,0,-1
182 0 m 1,15,-1
 182 737 l 1,16,-1
 40 737 l 1,17,-1
 40 833 l 1,18,-1
 182 833 l 1,19,-1
 182 1488 l 1,20,-1
 585 1488 l 2,21,22
 767 1488 767 1488 910.5 1445 c 128,-1,23
 1054 1402 1054 1402 1160 1313.5 c 128,-1,24
 1266 1225 1266 1225 1323 1080.5 c 128,-1,25
 1380 936 1380 936 1380 743 c 0,26,27
 1380 378 1380 378 1179 189 c 128,-1,28
 978 0 978 0 616 0 c 2,29,-1
 182 0 l 1,15,-1
EndSplineSet
EndChar

StartChar: multiply
Encoding: 215 215 146
Width: 1101
GlyphClass: 2
Flags: W
LayerCount: 2
Fore
SplineSet
864 261 m 1,0,-1
 557 569 l 1,1,-1
 249 262 l 1,2,-1
 172 339 l 1,3,-1
 480 646 l 1,4,-1
 173 954 l 1,5,-1
 250 1031 l 1,6,-1
 557 723 l 1,7,-1
 865 1030 l 1,8,-1
 942 953 l 1,9,-1
 634 646 l 1,10,-1
 941 338 l 1,11,-1
 864 261 l 1,0,-1
EndSplineSet
EndChar

StartChar: Oslash
Encoding: 216 216 147
Width: 1627
GlyphClass: 2
Flags: W
LayerCount: 2
Fore
SplineSet
480 -229 m 1,0,-1
 391 -192 l 1,1,-1
 487 44 l 1,2,3
 306 130 306 130 212 312.5 c 128,-1,4
 118 495 118 495 118 744 c 0,5,6
 118 977 118 977 197.5 1150 c 128,-1,7
 277 1323 277 1323 435.5 1420 c 128,-1,8
 594 1517 594 1517 816 1517 c 0,9,10
 953 1517 953 1517 1070 1477 c 1,11,-1
 1163 1706 l 1,12,-1
 1257 1673 l 1,13,-1
 1161 1437 l 1,14,15
 1329 1347 1329 1347 1419 1167 c 128,-1,16
 1509 987 1509 987 1509 743 c 0,17,18
 1509 578 1509 578 1464 438.5 c 128,-1,19
 1419 299 1419 299 1333.5 196 c 128,-1,20
 1248 93 1248 93 1115 35 c 128,-1,21
 982 -23 982 -23 815 -23 c 0,22,23
 684 -23 684 -23 578 10 c 1,24,-1
 480 -229 l 1,0,-1
530 150 m 1,25,-1
 1029 1376 l 1,26,27
 932 1410 932 1410 816 1410 c 0,28,29
 544 1410 544 1410 401 1236 c 128,-1,30
 258 1062 258 1062 258 745 c 0,31,32
 258 533 258 533 326.5 379.5 c 128,-1,33
 395 226 395 226 530 150 c 1,25,-1
815 82 m 0,34,35
 999 82 999 82 1124.5 166 c 128,-1,36
 1250 250 1250 250 1308.5 396.5 c 128,-1,37
 1367 543 1367 543 1367 745 c 0,38,39
 1367 1176 1367 1176 1118 1332 c 1,40,-1
 619 111 l 1,41,42
 708 82 708 82 815 82 c 0,34,35
EndSplineSet
EndChar

StartChar: Thorn
Encoding: 222 222 153
Width: 1275
GlyphClass: 2
Flags: W
LayerCount: 2
Fore
SplineSet
182 0 m 1,0,-1
 182 1488 l 1,1,-1
 310 1488 l 1,2,-1
 310 1191 l 1,3,-1
 679 1191 l 2,4,5
 960 1191 960 1191 1088 1095.5 c 128,-1,6
 1216 1000 1216 1000 1216 765 c 0,7,8
 1216 694 1216 694 1202.5 635 c 128,-1,9
 1189 576 1189 576 1155 523 c 128,-1,10
 1121 470 1121 470 1068 434 c 128,-1,11
 1015 398 1015 398 931 377 c 128,-1,12
 847 356 847 356 738 356 c 2,13,-1
 310 356 l 1,14,-1
 310 0 l 1,15,-1
 182 0 l 1,0,-1
310 458 m 1,16,-1
 744 458 l 2,17,18
 823 458 823 458 883 474.5 c 128,-1,19
 943 491 943 491 981 519 c 128,-1,20
 1019 547 1019 547 1042.5 588.5 c 128,-1,21
 1066 630 1066 630 1075.5 675 c 128,-1,22
 1085 720 1085 720 1085 775 c 0,23,24
 1085 884 1085 884 1050.5 949.5 c 128,-1,25
 1016 1015 1016 1015 929.5 1050 c 128,-1,26
 843 1085 843 1085 695 1085 c 2,27,-1
 310 1085 l 1,28,-1
 310 458 l 1,16,-1
EndSplineSet
EndChar

StartChar: germandbls
Encoding: 223 223 154
Width: 1205
GlyphClass: 2
Flags: W
LayerCount: 2
Fore
SplineSet
123 0 m 1,0,-1
 123 1060 l 2,1,2
 123 1293 123 1293 230 1420.5 c 128,-1,3
 337 1548 337 1548 561 1548 c 0,4,5
 748 1548 748 1548 852 1455 c 128,-1,6
 956 1362 956 1362 956 1205 c 0,7,8
 956 1157 956 1157 943.5 1118 c 128,-1,9
 931 1079 931 1079 914 1053 c 128,-1,10
 897 1027 897 1027 863.5 999.5 c 128,-1,11
 830 972 830 972 803.5 956 c 128,-1,12
 777 940 777 940 728.5 911.5 c 128,-1,13
 680 883 680 883 650 864 c 1,14,15
 691 830 691 830 753 790 c 128,-1,16
 815 750 815 750 865.5 719.5 c 128,-1,17
 916 689 916 689 971 647.5 c 128,-1,18
 1026 606 1026 606 1063.5 566 c 128,-1,19
 1101 526 1101 526 1125.5 470 c 128,-1,20
 1150 414 1150 414 1150 351 c 0,21,22
 1150 0 1150 0 783 0 c 2,23,-1
 416 0 l 1,24,-1
 428 108 l 1,25,-1
 807 108 l 2,26,27
 909 108 909 108 967.5 175.5 c 128,-1,28
 1026 243 1026 243 1026 347 c 0,29,30
 1026 396 1026 396 995 446 c 128,-1,31
 964 496 964 496 908 542 c 128,-1,32
 852 588 852 588 802.5 622 c 128,-1,33
 753 656 753 656 686 697 c 128,-1,34
 619 738 619 738 595 755 c 0,35,36
 586 761 586 761 571.5 771.5 c 128,-1,37
 557 782 557 782 550.5 786.5 c 128,-1,38
 544 791 544 791 535 799.5 c 128,-1,39
 526 808 526 808 522 814 c 128,-1,40
 518 820 518 820 515 828 c 128,-1,41
 512 836 512 836 512 846 c 0,42,43
 512 905 512 905 576 945 c 0,44,45
 601 961 601 961 643.5 985.5 c 128,-1,46
 686 1010 686 1010 707.5 1023 c 128,-1,47
 729 1036 729 1036 758 1058.5 c 128,-1,48
 787 1081 787 1081 801 1101.5 c 128,-1,49
 815 1122 815 1122 825.5 1152 c 128,-1,50
 836 1182 836 1182 836 1218 c 0,51,52
 836 1323 836 1323 767 1386 c 128,-1,53
 698 1449 698 1449 567 1449 c 0,54,55
 481 1449 481 1449 418.5 1420.5 c 128,-1,56
 356 1392 356 1392 320 1340.5 c 128,-1,57
 284 1289 284 1289 267.5 1225 c 128,-1,58
 251 1161 251 1161 251 1082 c 2,59,-1
 251 0 l 1,60,-1
 123 0 l 1,0,-1
EndSplineSet
EndChar

StartChar: ae
Encoding: 230 230 161
Width: 1650
GlyphClass: 2
Flags: W
LayerCount: 2
Fore
SplineSet
436 -24 m 0,0,1
 372 -24 372 -24 315.5 -8.5 c 128,-1,2
 259 7 259 7 208.5 40.5 c 128,-1,3
 158 74 158 74 128.5 138 c 128,-1,4
 99 202 99 202 99 289 c 0,5,6
 99 347 99 347 117 394 c 128,-1,7
 135 441 135 441 164.5 473 c 128,-1,8
 194 505 194 505 239.5 529 c 128,-1,9
 285 553 285 553 332.5 567 c 128,-1,10
 380 581 380 581 443 590 c 128,-1,11
 506 599 506 599 561 602.5 c 128,-1,12
 616 606 616 606 686 607 c 2,13,-1
 739 607 l 1,14,-1
 739 803 l 2,15,16
 739 1009 739 1009 550 1009 c 0,17,18
 347 1009 347 1009 189 913 c 1,19,-1
 146 1019 l 1,20,21
 203 1056 203 1056 315.5 1086.5 c 128,-1,22
 428 1117 428 1117 527 1117 c 0,23,24
 574 1117 574 1117 623.5 1104 c 128,-1,25
 673 1091 673 1091 720.5 1065 c 128,-1,26
 768 1039 768 1039 800 993 c 128,-1,27
 832 947 832 947 837 889 c 1,28,29
 873 971 873 971 934 1023.5 c 128,-1,30
 995 1076 995 1076 1060 1096.5 c 128,-1,31
 1125 1117 1125 1117 1199 1117 c 0,32,33
 1277 1117 1277 1117 1339 1090 c 128,-1,34
 1401 1063 1401 1063 1439 1020.5 c 128,-1,35
 1477 978 1477 978 1502 922.5 c 128,-1,36
 1527 867 1527 867 1536.5 814 c 128,-1,37
 1546 761 1546 761 1546 708 c 0,38,39
 1546 620 1546 620 1488.5 575.5 c 128,-1,40
 1431 531 1431 531 1293 530 c 1,41,42
 924 513 924 513 869 513 c 2,43,-1
 865 513 l 1,44,45
 872 309 872 309 951.5 192 c 128,-1,46
 1031 75 1031 75 1191 75 c 0,47,48
 1293 75 1293 75 1367 99.5 c 128,-1,49
 1441 124 1441 124 1535 175 c 1,50,-1
 1556 75 l 1,51,52
 1419 -24 1419 -24 1183 -24 c 0,53,54
 996 -24 996 -24 880 95 c 1,55,56
 777 43 777 43 656.5 9.5 c 128,-1,57
 536 -24 536 -24 436 -24 c 0,0,1
446 75 m 0,58,59
 596 75 596 75 822 165 c 1,60,61
 777 254 777 254 757.5 332 c 128,-1,62
 738 410 738 410 732 515 c 1,63,64
 601 515 601 515 507.5 503 c 128,-1,65
 414 491 414 491 359 472 c 128,-1,66
 304 453 304 453 273 421.5 c 128,-1,67
 242 390 242 390 232.5 358.5 c 128,-1,68
 223 327 223 327 223 282 c 0,69,70
 223 173 223 173 285 124 c 128,-1,71
 347 75 347 75 446 75 c 0,58,59
868 607 m 1,72,73
 1273 619 1273 619 1293 621 c 0,74,75
 1376 627 1376 627 1400.5 646.5 c 128,-1,76
 1425 666 1425 666 1425 713 c 0,77,78
 1425 852 1425 852 1365 931.5 c 128,-1,79
 1305 1011 1305 1011 1196 1011 c 0,80,81
 1127 1011 1127 1011 1071 987 c 128,-1,82
 1015 963 1015 963 979 924 c 128,-1,83
 943 885 943 885 918 831 c 128,-1,84
 893 777 893 777 882 722 c 128,-1,85
 871 667 871 667 868 607 c 1,72,73
EndSplineSet
EndChar

StartChar: eth
Encoding: 240 240 171
Width: 1194
GlyphClass: 2
Flags: W
LayerCount: 2
Fore
SplineSet
593 -28 m 0,0,1
 498 -28 498 -28 416.5 0.5 c 128,-1,2
 335 29 335 29 278 78.5 c 128,-1,3
 221 128 221 128 180.5 194 c 128,-1,4
 140 260 140 260 120.5 334 c 128,-1,5
 101 408 101 408 101 487 c 0,6,7
 101 703 101 703 234.5 836.5 c 128,-1,8
 368 970 368 970 586 970 c 0,9,10
 636 970 636 970 681.5 960 c 128,-1,11
 727 950 727 950 757.5 937.5 c 128,-1,12
 788 925 788 925 824.5 900.5 c 128,-1,13
 861 876 861 876 878 861 c 128,-1,14
 895 846 895 846 929 816 c 1,15,16
 883 900 883 900 771.5 1026.5 c 128,-1,17
 660 1153 660 1153 554 1252 c 1,18,-1
 272 1133 l 1,19,-1
 246 1229 l 1,20,-1
 483 1324 l 1,21,-1
 232 1546 l 1,22,-1
 390 1546 l 1,23,-1
 579 1374 l 1,24,-1
 868 1500 l 1,25,-1
 897 1408 l 1,26,-1
 649 1299 l 1,27,28
 674 1273 674 1273 715 1230.5 c 128,-1,29
 756 1188 756 1188 781 1162 c 128,-1,30
 806 1136 806 1136 843 1096 c 128,-1,31
 880 1056 880 1056 903 1027 c 128,-1,32
 926 998 926 998 955.5 956.5 c 128,-1,33
 985 915 985 915 1003 879.5 c 128,-1,34
 1021 844 1021 844 1041 798 c 128,-1,35
 1061 752 1061 752 1071.5 707.5 c 128,-1,36
 1082 663 1082 663 1089 609.5 c 128,-1,37
 1096 556 1096 556 1096 499 c 0,38,39
 1096 496 1096 496 1096 492 c 0,40,41
 1096 386 1096 386 1065 293.5 c 128,-1,42
 1034 201 1034 201 974 128.5 c 128,-1,43
 914 56 914 56 816 14 c 128,-1,44
 718 -28 718 -28 593 -28 c 0,0,1
598 72 m 0,45,46
 773 72 773 72 873 186.5 c 128,-1,47
 973 301 973 301 973 472 c 0,48,49
 973 543 973 543 948 612.5 c 128,-1,50
 923 682 923 682 876.5 740.5 c 128,-1,51
 830 799 830 799 756 835.5 c 128,-1,52
 682 872 682 872 592 872 c 0,53,54
 482 872 482 872 398.5 817 c 128,-1,55
 315 762 315 762 273.5 676 c 128,-1,56
 232 590 232 590 232 490 c 0,57,58
 232 412 232 412 254.5 339 c 128,-1,59
 277 266 277 266 320.5 205.5 c 128,-1,60
 364 145 364 145 436 108.5 c 128,-1,61
 508 72 508 72 598 72 c 0,45,46
EndSplineSet
EndChar

StartChar: divide
Encoding: 247 247 178
Width: 1099
GlyphClass: 2
Flags: W
LayerCount: 2
Fore
SplineSet
446 82 m 1,0,-1
 446 284 l 1,1,-1
 637 284 l 1,2,-1
 637 82 l 1,3,-1
 446 82 l 1,0,-1
60 554 m 1,4,-1
 60 675 l 1,5,-1
 1017 675 l 1,6,-1
 1017 554 l 1,7,-1
 60 554 l 1,4,-1
446 913 m 1,8,-1
 446 1115 l 1,9,-1
 637 1115 l 1,10,-1
 637 913 l 1,11,-1
 446 913 l 1,8,-1
EndSplineSet
EndChar

StartChar: oslash
Encoding: 248 248 179
Width: 1190
GlyphClass: 2
Flags: W
LayerCount: 2
Fore
SplineSet
284 -311 m 1,0,-1
 220 -283 l 1,1,-1
 351 38 l 1,2,3
 231 107 231 107 164 241 c 128,-1,4
 97 375 97 375 97 545 c 0,5,6
 97 667 97 667 131.5 771.5 c 128,-1,7
 166 876 166 876 230 952.5 c 128,-1,8
 294 1029 294 1029 389 1072.5 c 128,-1,9
 484 1116 484 1116 600 1116 c 0,10,11
 694 1116 694 1116 778 1086 c 1,12,-1
 910 1410 l 1,13,-1
 979 1386 l 1,14,-1
 844 1055 l 1,15,16
 963 987 963 987 1028 852.5 c 128,-1,17
 1093 718 1093 718 1093 547 c 0,18,19
 1093 383 1093 383 1035 255 c 128,-1,20
 977 127 977 127 862 51.5 c 128,-1,21
 747 -24 747 -24 592 -24 c 0,22,23
 498 -24 498 -24 414 7 c 1,24,-1
 284 -311 l 1,0,-1
392 139 m 1,25,-1
 739 990 l 1,26,27
 675 1015 675 1015 597 1015 c 0,28,29
 477 1015 477 1015 392.5 950.5 c 128,-1,30
 308 886 308 886 269 781.5 c 128,-1,31
 230 677 230 677 230 542 c 0,32,33
 230 410 230 410 271 304 c 128,-1,34
 312 198 312 198 392 139 c 1,25,-1
601 75 m 0,35,36
 721 75 721 75 803.5 138.5 c 128,-1,37
 886 202 886 202 923.5 306 c 128,-1,38
 961 410 961 410 961 545 c 0,39,40
 961 840 961 840 802 955 c 1,41,-1
 454 104 l 1,42,43
 520 75 520 75 601 75 c 0,35,36
EndSplineSet
EndChar

StartChar: thorn
Encoding: 254 254 185
Width: 1175
GlyphClass: 2
Flags: W
LayerCount: 2
Fore
SplineSet
147 -488 m 1,0,-1
 147 1514 l 1,1,-1
 271 1514 l 1,2,-1
 271 907 l 1,3,4
 311 986 311 986 400 1050.5 c 128,-1,5
 489 1115 489 1115 611 1116 c 0,6,7
 833 1116 833 1116 955.5 966 c 128,-1,8
 1078 816 1078 816 1078 560 c 0,9,10
 1078 395 1078 395 1029 265.5 c 128,-1,11
 980 136 980 136 876 56.5 c 128,-1,12
 772 -23 772 -23 625 -23 c 0,13,14
 558 -23 558 -23 493.5 -3 c 128,-1,15
 429 17 429 17 367.5 65 c 128,-1,16
 306 113 306 113 271 183 c 1,17,-1
 271 -479 l 1,18,-1
 147 -488 l 1,0,-1
621 78 m 0,19,20
 683 78 683 78 734.5 100.5 c 128,-1,21
 786 123 786 123 821 162 c 128,-1,22
 856 201 856 201 881.5 249.5 c 128,-1,23
 907 298 907 298 921 354 c 128,-1,24
 935 410 935 410 941.5 461.5 c 128,-1,25
 948 513 948 513 948 564 c 0,26,27
 948 622 948 622 938.5 679.5 c 128,-1,28
 929 737 929 737 904.5 798.5 c 128,-1,29
 880 860 880 860 842 906 c 128,-1,30
 804 952 804 952 741.5 981.5 c 128,-1,31
 679 1011 679 1011 599 1011 c 0,32,33
 513 1011 513 1011 447.5 973.5 c 128,-1,34
 382 936 382 936 344.5 871.5 c 128,-1,35
 307 807 307 807 288.5 730 c 128,-1,36
 270 653 270 653 270 564 c 0,37,38
 270 487 270 487 280.5 419 c 128,-1,39
 291 351 291 351 316.5 287.5 c 128,-1,40
 342 224 342 224 381 178.5 c 128,-1,41
 420 133 420 133 481.5 105.5 c 128,-1,42
 543 78 543 78 621 78 c 0,19,20
EndSplineSet
EndChar

StartChar: dcaron
Encoding: 271 271 202
Width: 1183
GlyphClass: 2
Flags: W
LayerCount: 2
Fore
SplineSet
1189 1082 m 1,0,-1
 1327 1532 l 1,1,-1
 1463 1532 l 1,2,-1
 1293 1082 l 1,3,-1
 1189 1082 l 1,0,-1
561 -23 m 0,4,5
 342 -23 342 -23 219.5 129 c 128,-1,6
 97 281 97 281 97 549 c 0,7,8
 97 801 97 801 223.5 958.5 c 128,-1,9
 350 1116 350 1116 557 1116 c 0,10,11
 659 1116 659 1116 761 1072 c 128,-1,12
 863 1028 863 1028 916 935 c 1,13,-1
 916 968 l 1,14,-1
 916 1521 l 1,15,-1
 1036 1532 l 1,16,-1
 1036 0 l 1,17,-1
 933 0 l 1,18,-1
 915 165 l 1,19,20
 858 72 858 72 760.5 24.5 c 128,-1,21
 663 -23 663 -23 561 -23 c 0,4,5
558 75 m 0,22,23
 651 75 651 75 721 109 c 128,-1,24
 791 143 791 143 833 205 c 128,-1,25
 875 267 875 267 895.5 347.5 c 128,-1,26
 916 428 916 428 916 526 c 0,27,28
 916 1015 916 1015 556 1015 c 0,29,30
 471 1015 471 1015 406 974.5 c 128,-1,31
 341 934 341 934 303.5 865.5 c 128,-1,32
 266 797 266 797 248 716.5 c 128,-1,33
 230 636 230 636 230 547 c 0,34,35
 230 470 230 470 241 402.5 c 128,-1,36
 252 335 252 335 277 274 c 128,-1,37
 302 213 302 213 339 169.5 c 128,-1,38
 376 126 376 126 432 100.5 c 128,-1,39
 488 75 488 75 558 75 c 0,22,23
EndSplineSet
EndChar

StartChar: dcroat
Encoding: 273 273 203
Width: 1183
GlyphClass: 2
Flags: W
LayerCount: 2
Fore
SplineSet
659 1254 m 1,0,-1
 659 1335 l 1,1,-1
 1138 1335 l 1,2,-1
 1138 1254 l 1,3,-1
 659 1254 l 1,0,-1
561 -23 m 0,4,5
 342 -23 342 -23 219.5 129 c 128,-1,6
 97 281 97 281 97 549 c 0,7,8
 97 801 97 801 223.5 958.5 c 128,-1,9
 350 1116 350 1116 557 1116 c 0,10,11
 659 1116 659 1116 761 1072 c 128,-1,12
 863 1028 863 1028 916 935 c 1,13,-1
 916 968 l 1,14,-1
 916 1521 l 1,15,-1
 1036 1532 l 1,16,-1
 1036 0 l 1,17,-1
 933 0 l 1,18,-1
 915 165 l 1,19,20
 858 72 858 72 760.5 24.5 c 128,-1,21
 663 -23 663 -23 561 -23 c 0,4,5
558 75 m 0,22,23
 651 75 651 75 721 109 c 128,-1,24
 791 143 791 143 833 205 c 128,-1,25
 875 267 875 267 895.5 347.5 c 128,-1,26
 916 428 916 428 916 526 c 0,27,28
 916 1015 916 1015 556 1015 c 0,29,30
 471 1015 471 1015 406 974.5 c 128,-1,31
 341 934 341 934 303.5 865.5 c 128,-1,32
 266 797 266 797 248 716.5 c 128,-1,33
 230 636 230 636 230 547 c 0,34,35
 230 470 230 470 241 402.5 c 128,-1,36
 252 335 252 335 277 274 c 128,-1,37
 302 213 302 213 339 169.5 c 128,-1,38
 376 126 376 126 432 100.5 c 128,-1,39
 488 75 488 75 558 75 c 0,22,23
EndSplineSet
EndChar

StartChar: uni0123
Encoding: 291 291 220
Width: 1150
GlyphClass: 2
Flags: W
LayerCount: 2
Fore
SplineSet
508 1275 m 1,0,-1
 673 1762 l 1,1,-1
 771 1762 l 1,2,-1
 661 1275 l 1,3,-1
 508 1275 l 1,0,-1
316 -509 m 1,4,-1
 301 -398 l 1,5,-1
 533 -398 l 2,6,7
 610 -398 610 -398 669 -384.5 c 128,-1,8
 728 -371 728 -371 768.5 -349.5 c 128,-1,9
 809 -328 809 -328 837.5 -289.5 c 128,-1,10
 866 -251 866 -251 882 -213 c 128,-1,11
 898 -175 898 -175 906.5 -114.5 c 128,-1,12
 915 -54 915 -54 917 -3.5 c 128,-1,13
 919 47 919 47 919 124 c 1,14,15
 919 113 919 113 917 129 c 0,16,17
 912 198 l 1,18,19
 849 103 849 103 763 51.5 c 128,-1,20
 677 0 677 0 553 0 c 0,21,22
 455 0 455 0 374.5 35 c 128,-1,23
 294 70 294 70 242.5 126 c 128,-1,24
 191 182 191 182 156 254 c 128,-1,25
 121 326 121 326 106 397.5 c 128,-1,26
 91 469 91 469 91 539 c 0,27,28
 91 627 91 627 105.5 706.5 c 128,-1,29
 120 786 120 786 156 862 c 128,-1,30
 192 938 192 938 246 993.5 c 128,-1,31
 300 1049 300 1049 385 1082.5 c 128,-1,32
 470 1116 470 1116 577 1116 c 0,33,34
 682 1116 682 1116 762.5 1074.5 c 128,-1,35
 843 1033 843 1033 912 942 c 1,36,-1
 924 1096 l 1,37,-1
 1034 1096 l 1,38,-1
 1034 80 l 2,39,40
 1034 14 1034 14 1032.5 -26.5 c 128,-1,41
 1031 -67 1031 -67 1020.5 -136.5 c 128,-1,42
 1010 -206 1010 -206 991.5 -250.5 c 128,-1,43
 973 -295 973 -295 935 -349 c 128,-1,44
 897 -403 897 -403 843.5 -434 c 128,-1,45
 790 -465 790 -465 706.5 -487 c 128,-1,46
 623 -509 623 -509 517 -509 c 2,47,-1
 316 -509 l 1,4,-1
569 101 m 0,48,49
 642 101 642 101 701 124.5 c 128,-1,50
 760 148 760 148 798.5 186.5 c 128,-1,51
 837 225 837 225 863.5 277 c 128,-1,52
 890 329 890 329 901 384.5 c 128,-1,53
 912 440 912 440 912 499 c 2,54,-1
 912 613 l 2,55,56
 912 691 912 691 893 760 c 128,-1,57
 874 829 874 829 834.5 887.5 c 128,-1,58
 795 946 795 946 726 980 c 128,-1,59
 657 1014 657 1014 566 1014 c 0,60,61
 492 1014 492 1014 432.5 985.5 c 128,-1,62
 373 957 373 957 335 910 c 128,-1,63
 297 863 297 863 271 800 c 128,-1,64
 245 737 245 737 234.5 671.5 c 128,-1,65
 224 606 224 606 224 537 c 0,66,67
 224 476 224 476 233.5 418.5 c 128,-1,68
 243 361 243 361 267.5 302 c 128,-1,69
 292 243 292 243 330 199.5 c 128,-1,70
 368 156 368 156 429.5 128.5 c 128,-1,71
 491 101 491 101 569 101 c 0,48,49
EndSplineSet
EndChar

StartChar: Hbar
Encoding: 294 294 223
Width: 1450
GlyphClass: 2
Flags: W
LayerCount: 2
Fore
SplineSet
155 0 m 1,0,-1
 155 1125 l 1,1,-1
 62 1125 l 1,2,-1
 62 1212 l 1,3,-1
 155 1212 l 1,4,-1
 155 1521 l 1,5,-1
 290 1521 l 1,6,-1
 290 1212 l 1,7,-1
 1162 1212 l 1,8,-1
 1162 1521 l 1,9,-1
 1297 1521 l 1,10,-1
 1297 1212 l 1,11,-1
 1389 1212 l 1,12,-1
 1389 1125 l 1,13,-1
 1297 1125 l 1,14,-1
 1297 0 l 1,15,-1
 1162 0 l 1,16,-1
 1162 721 l 1,17,-1
 290 721 l 1,18,-1
 290 0 l 1,19,-1
 155 0 l 1,0,-1
290 845 m 1,20,-1
 1162 845 l 1,21,-1
 1162 1125 l 1,22,-1
 290 1125 l 1,23,-1
 290 845 l 1,20,-1
EndSplineSet
EndChar

StartChar: hbar
Encoding: 295 295 224
Width: 1077
GlyphClass: 2
Flags: W
LayerCount: 2
Fore
SplineSet
117 0 m 1,0,-1
 117 1300 l 1,1,-1
 28 1300 l 1,2,-1
 28 1403 l 1,3,-1
 117 1403 l 1,4,-1
 117 1486 l 1,5,-1
 246 1507 l 1,6,-1
 246 1403 l 1,7,-1
 512 1403 l 1,8,-1
 512 1300 l 1,9,-1
 246 1300 l 1,10,-1
 246 933 l 1,11,12
 394 1127 394 1127 652 1127 c 0,13,14
 738 1127 738 1127 801 1091.5 c 128,-1,15
 864 1056 864 1056 899.5 990.5 c 128,-1,16
 935 925 935 925 951 844 c 128,-1,17
 967 763 967 763 967 662 c 2,18,-1
 967 0 l 1,19,-1
 839 0 l 1,20,-1
 839 593 l 2,21,22
 839 686 839 686 834 749 c 128,-1,23
 829 812 829 812 814 866 c 128,-1,24
 799 920 799 920 772.5 950.5 c 128,-1,25
 746 981 746 981 703.5 998 c 128,-1,26
 661 1015 661 1015 600 1015 c 0,27,28
 533 1015 533 1015 468.5 989 c 128,-1,29
 404 963 404 963 358.5 923.5 c 128,-1,30
 313 884 313 884 282.5 837.5 c 128,-1,31
 252 791 252 791 246 750 c 1,32,-1
 246 0 l 1,33,-1
 117 0 l 1,0,-1
EndSplineSet
EndChar

StartChar: dotlessi
Encoding: 305 305 234
Width: 376
GlyphClass: 2
Flags: W
LayerCount: 2
Fore
SplineSet
138 0 m 1,0,-1
 138 1096 l 1,1,-1
 263 1096 l 1,2,-1
 263 0 l 1,3,-1
 138 0 l 1,0,-1
EndSplineSet
EndChar

StartChar: kgreenlandic
Encoding: 312 312 241
Width: 986
GlyphClass: 2
Flags: W
LayerCount: 2
Fore
SplineSet
149 0 m 1,0,-1
 149 1096 l 1,1,-1
 272 1096 l 1,2,-1
 272 541 l 1,3,4
 281 552 281 552 336 612 c 128,-1,5
 391 672 391 672 398 680 c 2,6,-1
 777 1096 l 1,7,-1
 944 1096 l 1,8,-1
 485 611 l 1,9,-1
 976 0 l 1,10,-1
 819 0 l 1,11,-1
 400 541 l 1,12,-1
 272 423 l 1,13,-1
 272 0 l 1,14,-1
 149 0 l 1,0,-1
EndSplineSet
EndChar

StartChar: Lcaron
Encoding: 317 317 246
Width: 998
GlyphClass: 2
Flags: W
LayerCount: 2
Fore
SplineSet
1133 1064 m 1,0,-1
 1271 1514 l 1,1,-1
 1407 1514 l 1,2,-1
 1237 1064 l 1,3,-1
 1133 1064 l 1,0,-1
182 0 m 1,4,-1
 182 1488 l 1,5,-1
 311 1488 l 1,6,-1
 311 113 l 1,7,-1
 980 113 l 1,8,-1
 974 0 l 1,9,-1
 182 0 l 1,4,-1
EndSplineSet
EndChar

StartChar: lcaron
Encoding: 318 318 247
Width: 581
GlyphClass: 2
Flags: W
LayerCount: 2
Fore
SplineSet
734 1082 m 1,0,-1
 872 1532 l 1,1,-1
 1008 1532 l 1,2,-1
 838 1082 l 1,3,-1
 734 1082 l 1,0,-1
423 -23 m 0,4,5
 285 -23 285 -23 221 39.5 c 128,-1,6
 157 102 157 102 157 243 c 2,7,-1
 157 1522 l 1,8,-1
 279 1532 l 1,9,-1
 279 250 l 2,10,11
 279 150 279 150 315.5 112 c 128,-1,12
 352 74 352 74 426 74 c 0,13,14
 486 74 486 74 576 97 c 1,15,-1
 581 1 l 1,16,17
 483 -23 483 -23 423 -23 c 0,4,5
EndSplineSet
EndChar

StartChar: Lslash
Encoding: 321 321 250
Width: 936
GlyphClass: 2
Flags: W
LayerCount: 2
Fore
SplineSet
156 0 m 1,0,-1
 156 618 l 1,1,-1
 9 545 l 1,2,-1
 9 669 l 1,3,-1
 156 744 l 1,4,-1
 156 1518 l 1,5,-1
 291 1518 l 1,6,-1
 291 801 l 1,7,-1
 653 998 l 1,8,-1
 653 862 l 1,9,-1
 291 672 l 1,10,-1
 291 124 l 1,11,-1
 966 124 l 1,12,-1
 955 0 l 1,13,-1
 156 0 l 1,0,-1
EndSplineSet
EndChar

StartChar: lslash
Encoding: 322 322 251
Width: 548
GlyphClass: 2
Flags: W
LayerCount: 2
Fore
SplineSet
395 -25 m 0,0,1
 358 -25 358 -25 328.5 -22 c 128,-1,2
 299 -19 299 -19 275 -9.5 c 128,-1,3
 251 0 251 0 233 9.5 c 128,-1,4
 215 19 215 19 201 40 c 128,-1,5
 187 61 187 61 177.5 79 c 128,-1,6
 168 97 168 97 161.5 132 c 128,-1,7
 155 167 155 167 151.5 195 c 128,-1,8
 148 223 148 223 146 274 c 128,-1,9
 144 325 144 325 143.5 365.5 c 128,-1,10
 143 406 143 406 143 474 c 2,11,-1
 143 493 l 1,12,-1
 31 394 l 1,13,-1
 31 514 l 1,14,-1
 143 613 l 1,15,-1
 143 1487 l 1,16,-1
 272 1507 l 1,17,-1
 272 729 l 1,18,-1
 456 892 l 1,19,-1
 456 770 l 1,20,-1
 272 608 l 1,21,-1
 272 427 l 2,22,23
 272 378 272 378 272 351.5 c 128,-1,24
 272 325 272 325 273 288 c 128,-1,25
 274 251 274 251 276 232.5 c 128,-1,26
 278 214 278 214 281.5 188 c 128,-1,27
 285 162 285 162 290 150.5 c 128,-1,28
 295 139 295 139 303 123 c 128,-1,29
 311 107 311 107 320.5 100.5 c 128,-1,30
 330 94 330 94 343.5 87 c 128,-1,31
 357 80 357 80 373.5 78 c 128,-1,32
 390 76 390 76 411 76 c 0,33,34
 434 76 434 76 564 88 c 1,35,-1
 579 -12 l 1,36,37
 470 -25 470 -25 395 -25 c 0,0,1
EndSplineSet
EndChar

StartChar: OE
Encoding: 338 338 264
Width: 1949
GlyphClass: 2
Flags: W
LayerCount: 2
Fore
SplineSet
817 -23 m 0,0,1
 640 -23 640 -23 505.5 34 c 128,-1,2
 371 91 371 91 286.5 198 c 128,-1,3
 202 305 202 305 160 452.5 c 128,-1,4
 118 600 118 600 118 785 c 0,5,6
 118 949 118 949 169.5 1086 c 128,-1,7
 221 1223 221 1223 311 1316.5 c 128,-1,8
 401 1410 401 1410 527 1462 c 128,-1,9
 653 1514 653 1514 799 1514 c 0,10,11
 907 1514 907 1514 997.5 1492 c 128,-1,12
 1088 1470 1088 1470 1139 1435 c 1,13,-1
 1139 1488 l 1,14,-1
 1813 1488 l 1,15,-1
 1797 1382 l 1,16,-1
 1267 1382 l 1,17,-1
 1267 822 l 1,18,-1
 1758 822 l 1,19,-1
 1758 713 l 1,20,-1
 1267 713 l 1,21,-1
 1267 107 l 1,22,-1
 1835 107 l 1,23,-1
 1821 0 l 1,24,-1
 1139 0 l 1,25,-1
 1139 60 l 1,26,27
 1120 37 1120 37 1008.5 7 c 128,-1,28
 897 -23 897 -23 817 -23 c 0,0,1
819 82 m 0,29,30
 872 82 872 82 921.5 90.5 c 128,-1,31
 971 99 971 99 1000.5 107 c 128,-1,32
 1030 115 1030 115 1065 132.5 c 128,-1,33
 1100 150 1100 150 1108 155 c 128,-1,34
 1116 160 1116 160 1139 175 c 1,35,-1
 1139 1318 l 1,36,37
 1003 1407 1003 1407 807 1407 c 0,38,39
 553 1407 553 1407 405.5 1242 c 128,-1,40
 258 1077 258 1077 258 771 c 0,41,42
 258 655 258 655 274 557.5 c 128,-1,43
 290 460 290 460 330 370.5 c 128,-1,44
 370 281 370 281 432.5 218.5 c 128,-1,45
 495 156 495 156 593.5 119 c 128,-1,46
 692 82 692 82 819 82 c 0,29,30
EndSplineSet
EndChar

StartChar: oe
Encoding: 339 339 265
Width: 1930
GlyphClass: 2
Flags: W
LayerCount: 2
Fore
SplineSet
586 -24 m 0,0,1
 437 -24 437 -24 325 51 c 128,-1,2
 213 126 213 126 155 254.5 c 128,-1,3
 97 383 97 383 97 545 c 0,4,5
 97 709 97 709 154.5 837 c 128,-1,6
 212 965 212 965 326 1040.5 c 128,-1,7
 440 1116 440 1116 594 1116 c 0,8,9
 750 1116 750 1116 858 1039.5 c 128,-1,10
 966 963 966 963 1020 828 c 1,11,12
 1073 962 1073 962 1176 1037.5 c 128,-1,13
 1279 1113 1279 1113 1419 1116 c 0,14,15
 1611 1116 1611 1116 1723.5 978.5 c 128,-1,16
 1836 841 1836 841 1836 608 c 0,17,18
 1836 599 1836 599 1835.5 571.5 c 128,-1,19
 1835 544 1835 544 1835 533 c 1,20,-1
 1082 533 l 1,21,22
 1084 322 1084 322 1184 198.5 c 128,-1,23
 1284 75 1284 75 1448 75 c 0,24,25
 1496 75 1496 75 1536 80 c 128,-1,26
 1576 85 1576 85 1615 99 c 128,-1,27
 1654 113 1654 113 1673 120.5 c 128,-1,28
 1692 128 1692 128 1735 150.5 c 128,-1,29
 1778 173 1778 173 1789 179 c 1,30,-1
 1810 78 l 1,31,32
 1725 26 1725 26 1641.5 1 c 128,-1,33
 1558 -24 1558 -24 1445 -24 c 0,34,35
 1290 -24 1290 -24 1181 51 c 128,-1,36
 1072 126 1072 126 1019 264 c 1,37,38
 964 129 964 129 853.5 52.5 c 128,-1,39
 743 -24 743 -24 586 -24 c 0,0,1
595 75 m 0,40,41
 685 75 685 75 754.5 111 c 128,-1,42
 824 147 824 147 866.5 211.5 c 128,-1,43
 909 276 909 276 930 360 c 128,-1,44
 951 444 951 444 951 545 c 0,45,46
 951 648 951 648 930.5 731.5 c 128,-1,47
 910 815 910 815 868 879.5 c 128,-1,48
 826 944 826 944 755.5 979.5 c 128,-1,49
 685 1015 685 1015 591 1015 c 0,50,51
 471 1015 471 1015 388 950.5 c 128,-1,52
 305 886 305 886 267.5 782 c 128,-1,53
 230 678 230 678 230 542 c 0,54,55
 230 443 230 443 252 359.5 c 128,-1,56
 274 276 274 276 318 211.5 c 128,-1,57
 362 147 362 147 432.5 111 c 128,-1,58
 503 75 503 75 595 75 c 0,40,41
1087 633 m 1,59,-1
 1701 633 l 1,60,61
 1701 639 1701 639 1701 644 c 0,62,63
 1699 823 1699 823 1624 917 c 128,-1,64
 1549 1011 1549 1011 1415 1011 c 0,65,66
 1275 1011 1275 1011 1189 907 c 128,-1,67
 1103 803 1103 803 1087 633 c 1,59,-1
EndSplineSet
EndChar

StartChar: tcaron
Encoding: 357 357 280
Width: 676
GlyphClass: 2
Flags: W
LayerCount: 2
Fore
SplineSet
796 901 m 1,0,-1
 934 1351 l 1,1,-1
 1070 1351 l 1,2,-1
 900 901 l 1,3,-1
 796 901 l 1,0,-1
456 -23 m 0,4,5
 318 -23 318 -23 254 39.5 c 128,-1,6
 190 102 190 102 190 243 c 2,7,-1
 190 1005 l 1,8,-1
 35 1005 l 1,9,-1
 44 1080 l 1,10,-1
 192 1094 l 1,11,-1
 225 1345 l 1,12,-1
 312 1351 l 1,13,-1
 312 1096 l 1,14,-1
 632 1096 l 1,15,-1
 632 1005 l 1,16,-1
 312 1005 l 1,17,-1
 312 269 l 2,18,19
 312 153 312 153 350 113.5 c 128,-1,20
 388 74 388 74 484 74 c 0,21,22
 546 74 546 74 638 97 c 1,23,-1
 643 1 l 1,24,25
 522 -23 522 -23 456 -23 c 0,4,5
EndSplineSet
EndChar

StartChar: florin
Encoding: 402 402 300
Width: 943
GlyphClass: 2
Flags: W
LayerCount: 2
Fore
SplineSet
101 -359 m 0,0,1
 52 -359 52 -359 11 -335 c 1,2,-1
 34 -247 l 1,3,4
 63 -260 63 -260 96 -260 c 0,5,6
 202 -260 202 -260 250 -11 c 0,7,8
 253 5 253 5 293 246.5 c 128,-1,9
 333 488 333 488 371.5 721.5 c 0,10,-1
 410 955 l 1,11,-1
 242 955 l 1,12,-1
 251 1046 l 1,13,-1
 432 1046 l 1,14,-1
 460 1231 l 2,15,16
 472 1310 472 1310 489 1366 c 128,-1,17
 506 1422 506 1422 538 1476.5 c 128,-1,18
 570 1531 570 1531 623.5 1559.5 c 128,-1,19
 677 1588 677 1588 752 1588 c 0,20,21
 801 1588 801 1588 865 1568 c 1,22,-1
 858 1471 l 1,23,24
 807 1491 807 1491 764 1491 c 0,25,26
 693 1491 693 1491 650 1435 c 128,-1,27
 607 1379 607 1379 593 1287 c 2,28,-1
 556 1046 l 1,29,-1
 759 1046 l 1,30,-1
 749 956 l 1,31,-1
 538 956 l 1,32,-1
 393 84 l 2,33,34
 383 24 383 24 375.5 -15.5 c 128,-1,35
 368 -55 368 -55 357 -102 c 128,-1,36
 346 -149 346 -149 334.5 -179 c 128,-1,37
 323 -209 323 -209 307 -241.5 c 128,-1,38
 291 -274 291 -274 272 -293 c 128,-1,39
 253 -312 253 -312 227.5 -328.5 c 128,-1,40
 202 -345 202 -345 170.5 -352 c 128,-1,41
 139 -359 139 -359 101 -359 c 0,0,1
EndSplineSet
EndChar

StartChar: uni0237
Encoding: 567 567 343
Width: 406
GlyphClass: 2
Flags: W
LayerCount: 2
Fore
SplineSet
-63 -594 m 1,0,-1
 -92 -473 l 1,1,-1
 -33 -473 l 2,2,3
 -1 -473 -1 -473 23.5 -470 c 128,-1,4
 48 -467 48 -467 67.5 -462.5 c 128,-1,5
 87 -458 87 -458 101 -447.5 c 128,-1,6
 115 -437 115 -437 124.5 -429 c 128,-1,7
 134 -421 134 -421 140.5 -402 c 128,-1,8
 147 -383 147 -383 150 -371 c 128,-1,9
 153 -359 153 -359 154.5 -332 c 128,-1,10
 156 -305 156 -305 156.5 -288.5 c 128,-1,11
 157 -272 157 -272 157 -237 c 2,12,-1
 157 1104 l 1,13,-1
 294 1104 l 1,14,-1
 294 -296 l 2,15,16
 294 -389 294 -389 282 -443.5 c 128,-1,17
 270 -498 270 -498 235.5 -533.5 c 128,-1,18
 201 -569 201 -569 145.5 -581.5 c 128,-1,19
 90 -594 90 -594 -5 -594 c 2,20,-1
 -63 -594 l 1,0,-1
EndSplineSet
EndChar

StartChar: circumflex
Encoding: 710 710 344
Width: 812
GlyphClass: 2
Flags: W
LayerCount: 2
Fore
SplineSet
136 1310 m 1,0,-1
 304 1669 l 1,1,-1
 496 1669 l 1,2,-1
 667 1310 l 1,3,-1
 576 1310 l 1,4,-1
 401 1605 l 1,5,-1
 225 1310 l 1,6,-1
 136 1310 l 1,0,-1
EndSplineSet
EndChar

StartChar: caron
Encoding: 711 711 345
Width: 812
GlyphClass: 2
Flags: W
LayerCount: 2
Fore
SplineSet
307 1310 m 1,0,-1
 136 1669 l 1,1,-1
 227 1669 l 1,2,-1
 402 1374 l 1,3,-1
 578 1669 l 1,4,-1
 667 1669 l 1,5,-1
 499 1310 l 1,6,-1
 307 1310 l 1,0,-1
EndSplineSet
EndChar

StartChar: breve
Encoding: 728 728 346
Width: 774
GlyphClass: 2
Flags: W
LayerCount: 2
Fore
SplineSet
389 1356 m 0,0,1
 292 1356 292 1356 225.5 1422.5 c 128,-1,2
 159 1489 159 1489 159 1608 c 1,3,-1
 251 1608 l 1,4,5
 251 1521 251 1521 286.5 1477.5 c 128,-1,6
 322 1434 322 1434 389 1434 c 0,7,8
 455 1434 455 1434 492.5 1478 c 128,-1,9
 530 1522 530 1522 530 1608 c 1,10,-1
 624 1608 l 1,11,12
 624 1490 624 1490 556 1423 c 128,-1,13
 488 1356 488 1356 389 1356 c 0,0,1
EndSplineSet
EndChar

StartChar: dotaccent
Encoding: 729 729 347
Width: 352
GlyphClass: 2
Flags: W
LayerCount: 2
Fore
SplineSet
106 1331 m 1,0,-1
 106 1516 l 1,1,-1
 259 1516 l 1,2,-1
 259 1331 l 1,3,-1
 106 1331 l 1,0,-1
EndSplineSet
EndChar

StartChar: ring
Encoding: 730 730 348
Width: 621
GlyphClass: 2
Flags: W
LayerCount: 2
Fore
SplineSet
314 1388 m 128,-1,1
 352 1388 352 1388 379.5 1416 c 128,-1,2
 407 1444 407 1444 407 1495 c 0,3,4
 406 1545 406 1545 378.5 1573.5 c 128,-1,5
 351 1602 351 1602 313 1602 c 256,6,7
 275 1602 275 1602 247.5 1573.5 c 128,-1,8
 220 1545 220 1545 220 1494 c 0,9,10
 220 1444 220 1444 248 1416 c 128,-1,0
 276 1388 276 1388 314 1388 c 128,-1,1
315 1317 m 0,11,12
 240 1317 240 1317 184.5 1364.5 c 128,-1,13
 129 1412 129 1412 129 1495 c 0,14,15
 129 1579 129 1579 183 1626 c 128,-1,16
 237 1673 237 1673 312 1673 c 0,17,18
 386 1673 386 1673 440.5 1625.5 c 128,-1,19
 495 1578 495 1578 495 1495 c 0,20,21
 495 1410 495 1410 441.5 1363.5 c 128,-1,22
 388 1317 388 1317 315 1317 c 0,11,12
EndSplineSet
EndChar

StartChar: ogonek
Encoding: 731 731 349
Width: 596
GlyphClass: 2
Flags: W
LayerCount: 2
Fore
SplineSet
307 -437 m 0,0,1
 225 -437 225 -437 172.5 -388.5 c 128,-1,2
 120 -340 120 -340 120 -258 c 0,3,4
 120 -131 120 -131 311 -14 c 1,5,-1
 428 -14 l 1,6,7
 324 -93 324 -93 273 -145.5 c 128,-1,8
 222 -198 222 -198 222 -246 c 0,9,10
 222 -288 222 -288 251.5 -312.5 c 128,-1,11
 281 -337 281 -337 313 -337 c 0,12,13
 344 -337 344 -337 356.5 -336 c 128,-1,14
 369 -335 369 -335 391.5 -328.5 c 128,-1,15
 414 -322 414 -322 447 -307 c 1,16,-1
 447 -408 l 1,17,18
 373 -437 373 -437 307 -437 c 0,0,1
EndSplineSet
EndChar

StartChar: tilde
Encoding: 732 732 350
Width: 930
GlyphClass: 2
Flags: W
LayerCount: 2
Fore
SplineSet
150 1336 m 1,0,1
 153 1443 153 1443 194.5 1482.5 c 128,-1,2
 236 1522 236 1522 309 1522 c 0,3,4
 355 1522 355 1522 452 1474 c 128,-1,5
 549 1426 549 1426 573 1426 c 0,6,7
 589 1426 589 1426 600 1435 c 128,-1,8
 611 1444 611 1444 617 1462 c 128,-1,9
 623 1480 623 1480 625 1491 c 128,-1,10
 627 1502 627 1502 629 1522 c 1,11,-1
 720 1522 l 1,12,13
 716 1421 716 1421 680.5 1378.5 c 128,-1,14
 645 1336 645 1336 579 1336 c 0,15,16
 535 1336 535 1336 429.5 1387.5 c 128,-1,17
 324 1439 324 1439 301 1439 c 0,18,19
 248 1439 248 1439 240 1336 c 1,20,-1
 150 1336 l 1,0,1
EndSplineSet
EndChar

StartChar: hungarumlaut
Encoding: 733 733 351
Width: 741
GlyphClass: 2
Flags: W
LayerCount: 2
Fore
SplineSet
118 1328 m 1,0,-1
 294 1646 l 1,1,-1
 414 1646 l 1,2,-1
 201 1328 l 1,3,-1
 118 1328 l 1,0,-1
315 1328 m 1,4,-1
 497 1646 l 1,5,-1
 612 1646 l 1,6,-1
 403 1328 l 1,7,-1
 315 1328 l 1,4,-1
EndSplineSet
EndChar

StartChar: uni0307
Encoding: 775 775 352
Width: 364
GlyphClass: 2
Flags: W
LayerCount: 2
Fore
SplineSet
115 1357 m 1,0,-1
 115 1525 l 1,1,-1
 282 1525 l 1,2,-1
 282 1357 l 1,3,-1
 115 1357 l 1,0,-1
EndSplineSet
EndChar

StartChar: uni030F
Encoding: 783 783 353
Width: 797
GlyphClass: 2
Flags: W
LayerCount: 2
Fore
SplineSet
379 1300 m 1,0,-1
 158 1633 l 1,1,-1
 251 1633 l 1,2,-1
 449 1300 l 1,3,-1
 379 1300 l 1,0,-1
603 1300 m 1,4,-1
 379 1633 l 1,5,-1
 481 1633 l 1,6,-1
 665 1300 l 1,7,-1
 603 1300 l 1,4,-1
EndSplineSet
EndChar

StartChar: uni0311
Encoding: 785 785 354
Width: 792
GlyphClass: 2
Flags: W
LayerCount: 2
Fore
SplineSet
167 1345 m 1,0,1
 167 1419 167 1419 201.5 1473 c 128,-1,2
 236 1527 236 1527 287 1552 c 128,-1,3
 338 1577 338 1577 398 1577 c 0,4,5
 459 1577 459 1577 511 1552 c 128,-1,6
 563 1527 563 1527 597.5 1473 c 128,-1,7
 632 1419 632 1419 632 1345 c 1,8,-1
 538 1345 l 1,9,10
 538 1413 538 1413 496.5 1451.5 c 128,-1,11
 455 1490 455 1490 398.5 1490 c 128,-1,12
 342 1490 342 1490 300.5 1451.5 c 128,-1,13
 259 1413 259 1413 259 1345 c 1,14,-1
 167 1345 l 1,0,1
EndSplineSet
EndChar

StartChar: uni0326
Encoding: 806 806 355
Width: 552
GlyphClass: 2
Flags: W
LayerCount: 2
Fore
SplineSet
170 -671 m 1,0,-1
 257 -185 l 1,1,-1
 396 -185 l 1,2,-1
 264 -671 l 1,3,-1
 170 -671 l 1,0,-1
EndSplineSet
EndChar

StartChar: quoteleft
Encoding: 8216 8216 356
Width: 541
GlyphClass: 2
Flags: W
LayerCount: 2
Fore
SplineSet
104 1161 m 1,0,-1
 344 1619 l 1,1,-1
 420 1619 l 1,2,-1
 258 1161 l 1,3,-1
 104 1161 l 1,0,-1
EndSplineSet
EndChar

StartChar: quoteright
Encoding: 8217 8217 357
Width: 532
GlyphClass: 2
Flags: W
LayerCount: 2
Fore
SplineSet
166 1161 m 1,0,-1
 252 1619 l 1,1,-1
 382 1619 l 1,2,-1
 259 1161 l 1,3,-1
 166 1161 l 1,0,-1
EndSplineSet
EndChar

StartChar: quotesinglbase
Encoding: 8218 8218 358
Width: 480
GlyphClass: 2
Flags: W
LayerCount: 2
Fore
SplineSet
130 -240 m 1,0,-1
 215 218 l 1,1,-1
 349 218 l 1,2,-1
 227 -240 l 1,3,-1
 130 -240 l 1,0,-1
EndSplineSet
EndChar

StartChar: quotedblleft
Encoding: 8220 8220 359
Width: 854
GlyphClass: 2
Flags: W
LayerCount: 2
Fore
SplineSet
104 1161 m 1,0,-1
 341 1619 l 1,1,-1
 420 1619 l 1,2,-1
 259 1161 l 1,3,-1
 104 1161 l 1,0,-1
419 1161 m 1,4,-1
 653 1619 l 1,5,-1
 732 1619 l 1,6,-1
 573 1161 l 1,7,-1
 419 1161 l 1,4,-1
EndSplineSet
EndChar

StartChar: quotedblright
Encoding: 8221 8221 360
Width: 723
GlyphClass: 2
Flags: W
LayerCount: 2
Fore
SplineSet
113 1161 m 1,0,-1
 200 1619 l 1,1,-1
 335 1619 l 1,2,-1
 206 1161 l 1,3,-1
 113 1161 l 1,0,-1
394 1161 m 1,4,-1
 481 1619 l 1,5,-1
 619 1619 l 1,6,-1
 492 1161 l 1,7,-1
 394 1161 l 1,4,-1
EndSplineSet
EndChar

StartChar: quotedblbase
Encoding: 8222 8222 361
Width: 734
GlyphClass: 2
Flags: W
LayerCount: 2
Fore
SplineSet
111 -240 m 1,0,-1
 192 218 l 1,1,-1
 321 218 l 1,2,-1
 204 -240 l 1,3,-1
 111 -240 l 1,0,-1
409 -240 m 1,4,-1
 487 218 l 1,5,-1
 621 218 l 1,6,-1
 498 -240 l 1,7,-1
 409 -240 l 1,4,-1
EndSplineSet
EndChar

StartChar: dagger
Encoding: 8224 8224 362
Width: 829
GlyphClass: 2
Flags: W
LayerCount: 2
Fore
SplineSet
362 125 m 1,0,-1
 362 1098 l 1,1,-1
 73 1098 l 1,2,-1
 73 1155 l 1,3,-1
 362 1155 l 1,4,-1
 362 1611 l 1,5,-1
 461 1611 l 1,6,-1
 461 1155 l 1,7,-1
 756 1155 l 1,8,-1
 756 1098 l 1,9,-1
 466 1098 l 1,10,-1
 466 125 l 1,11,-1
 362 125 l 1,0,-1
EndSplineSet
EndChar

StartChar: daggerdbl
Encoding: 8225 8225 363
Width: 929
GlyphClass: 2
Flags: W
LayerCount: 2
Fore
SplineSet
418 218 m 1,0,-1
 418 534 l 1,1,-1
 98 534 l 1,2,-1
 98 654 l 1,3,-1
 418 654 l 1,4,-1
 418 1125 l 1,5,-1
 104 1125 l 1,6,-1
 104 1249 l 1,7,-1
 418 1249 l 1,8,-1
 418 1615 l 1,9,-1
 516 1615 l 1,10,-1
 516 1249 l 1,11,-1
 837 1249 l 1,12,-1
 837 1125 l 1,13,-1
 516 1125 l 1,14,-1
 516 654 l 1,15,-1
 828 654 l 1,16,-1
 828 534 l 1,17,-1
 516 534 l 1,18,-1
 516 218 l 1,19,-1
 418 218 l 1,0,-1
EndSplineSet
EndChar

StartChar: bullet
Encoding: 8226 8226 364
Width: 808
GlyphClass: 2
Flags: W
LayerCount: 2
Fore
SplineSet
403 535 m 0,0,1
 340 535 340 535 289 556 c 128,-1,2
 238 577 238 577 207 612 c 128,-1,3
 176 647 176 647 160 690.5 c 128,-1,4
 144 734 144 734 144 782 c 0,5,6
 144 831 144 831 161 876 c 128,-1,7
 178 921 178 921 209.5 958 c 128,-1,8
 241 995 241 995 291 1017 c 128,-1,9
 341 1039 341 1039 403 1039 c 0,10,11
 466 1039 466 1039 516.5 1017.5 c 128,-1,12
 567 996 567 996 598 960 c 128,-1,13
 629 924 629 924 645.5 880 c 128,-1,14
 662 836 662 836 662 787.5 c 128,-1,15
 662 739 662 739 645.5 694.5 c 128,-1,16
 629 650 629 650 598 614 c 128,-1,17
 567 578 567 578 516 556.5 c 128,-1,18
 465 535 465 535 403 535 c 0,0,1
EndSplineSet
EndChar

StartChar: guilsinglleft
Encoding: 8249 8249 365
Width: 636
GlyphClass: 2
Flags: W
LayerCount: 2
Fore
SplineSet
372 187 m 1,0,-1
 150 593 l 1,1,-1
 377 993 l 1,2,-1
 488 993 l 1,3,-1
 270 593 l 1,4,-1
 483 187 l 1,5,-1
 372 187 l 1,0,-1
EndSplineSet
EndChar

StartChar: guilsinglright
Encoding: 8250 8250 366
Width: 632
GlyphClass: 2
Flags: W
LayerCount: 2
Fore
SplineSet
155 187 m 1,0,-1
 373 595 l 1,1,-1
 161 993 l 1,2,-1
 272 993 l 1,3,-1
 493 595 l 1,4,-1
 267 187 l 1,5,-1
 155 187 l 1,0,-1
EndSplineSet
EndChar

StartChar: fraction
Encoding: 8260 8260 367
Width: 1115
GlyphClass: 2
Flags: W
LayerCount: 2
Fore
SplineSet
69 0 m 1,0,-1
 934 1597 l 1,1,-1
 1033 1597 l 1,2,-1
 169 0 l 1,3,-1
 69 0 l 1,0,-1
EndSplineSet
EndChar

StartChar: uni2074
Encoding: 8308 8308 368
Width: 705
GlyphClass: 2
Flags: W
LayerCount: 2
Fore
SplineSet
455 684 m 1,0,-1
 455 908 l 1,1,-1
 134 908 l 1,2,-1
 134 992 l 1,3,4
 149 1019 149 1019 285 1276 c 2,5,-1
 444 1573 l 2,6,7
 443 1572 443 1572 441 1567 c 1,8,-1
 541 1567 l 1,9,-1
 541 994 l 1,10,-1
 631 994 l 1,11,-1
 639 908 l 1,12,-1
 539 908 l 1,13,-1
 539 684 l 1,14,-1
 455 684 l 1,0,-1
218 994 m 1,15,-1
 454 994 l 1,16,17
 454 1391 454 1391 456 1433 c 1,18,-1
 218 994 l 1,15,-1
EndSplineSet
EndChar

StartChar: trademark
Encoding: 8482 8482 369
Width: 1808
GlyphClass: 2
Flags: W
LayerCount: 2
Fore
SplineSet
871 571 m 1,0,-1
 871 1513 l 1,1,-1
 1001 1513 l 1,2,-1
 1292 758 l 1,3,-1
 1597 1513 l 1,4,-1
 1723 1513 l 1,5,-1
 1723 571 l 1,6,-1
 1630 571 l 1,7,-1
 1630 1438 l 1,8,-1
 1324 677 l 1,9,-1
 1246 677 l 1,10,-1
 958 1442 l 1,11,-1
 958 571 l 1,12,-1
 871 571 l 1,0,-1
361 571 m 1,13,-1
 361 1441 l 1,14,-1
 99 1441 l 1,15,-1
 99 1513 l 1,16,-1
 724 1513 l 1,17,-1
 724 1441 l 1,18,-1
 451 1441 l 1,19,-1
 451 571 l 1,20,-1
 361 571 l 1,13,-1
EndSplineSet
EndChar

StartChar: minus
Encoding: 8722 8722 370
Width: 1212
GlyphClass: 2
Flags: W
LayerCount: 2
Fore
SplineSet
123 578 m 1,0,-1
 123 701 l 1,1,-1
 1098 701 l 1,2,-1
 1098 578 l 1,3,-1
 123 578 l 1,0,-1
EndSplineSet
EndChar

StartChar: approxequal
Encoding: 8776 8776 371
Width: 1315
GlyphClass: 2
Flags: W
LayerCount: 2
Fore
SplineSet
140 367 m 1,0,1
 159 521 159 521 234 603.5 c 128,-1,2
 309 686 309 686 429 686 c 0,3,4
 473 686 473 686 522 669 c 128,-1,5
 571 652 571 652 601.5 635 c 128,-1,6
 632 618 632 618 684 585 c 0,7,8
 695 578 695 578 727.5 556.5 c 128,-1,9
 760 535 760 535 775 526.5 c 128,-1,10
 790 518 790 518 814.5 505 c 128,-1,11
 839 492 839 492 858 486.5 c 128,-1,12
 877 481 877 481 894 481 c 0,13,14
 1021 481 1021 481 1056 684 c 1,15,-1
 1161 711 l 1,16,17
 1141 548 1141 548 1083.5 471 c 128,-1,18
 1026 394 1026 394 897 394 c 0,19,20
 788 394 788 394 616 510 c 0,21,22
 498 594 498 594 431 594 c 0,23,24
 356 594 356 594 312.5 545 c 128,-1,25
 269 496 269 496 246 398 c 1,26,-1
 140 367 l 1,0,1
137 758 m 1,27,28
 155 910 155 910 231.5 993 c 128,-1,29
 308 1076 308 1076 428 1076 c 0,30,31
 489 1076 489 1076 546 1049.5 c 128,-1,32
 603 1023 603 1023 687 966 c 0,33,34
 762 914 762 914 807 892.5 c 128,-1,35
 852 871 852 871 892 871 c 0,36,37
 1019 871 1019 871 1052 1073 c 1,38,-1
 1158 1103 l 1,39,40
 1139 942 1139 942 1079.5 865 c 128,-1,41
 1020 788 1020 788 893 788 c 0,42,43
 778 788 778 788 613 904 c 0,44,45
 496 987 496 987 427 987 c 0,46,47
 352 987 352 987 308.5 939.5 c 128,-1,48
 265 892 265 892 246 796 c 1,49,-1
 137 758 l 1,27,28
EndSplineSet
EndChar

StartChar: notequal
Encoding: 8800 8800 372
Width: 1135
GlyphClass: 2
Flags: W
LayerCount: 2
Fore
SplineSet
337 50 m 1,0,-1
 247 68 l 1,1,-1
 364 378 l 1,2,-1
 106 378 l 1,3,-1
 100 479 l 1,4,-1
 420 479 l 1,5,-1
 586 823 l 1,6,-1
 106 823 l 1,7,-1
 98 930 l 1,8,-1
 636 930 l 1,9,-1
 779 1243 l 1,10,-1
 871 1231 l 1,11,-1
 755 931 l 1,12,-1
 1032 931 l 1,13,-1
 1039 823 l 1,14,-1
 706 823 l 1,15,-1
 535 479 l 1,16,-1
 1034 479 l 1,17,-1
 1039 378 l 1,18,-1
 484 378 l 1,19,-1
 337 50 l 1,0,-1
EndSplineSet
EndChar

StartChar: lessequal
Encoding: 8804 8804 373
Width: 1164
GlyphClass: 2
Flags: W
LayerCount: 2
Fore
SplineSet
1022 237 m 1,0,-1
 124 736 l 1,1,-1
 124 809 l 1,2,-1
 1022 1338 l 1,3,-1
 1022 1214 l 1,4,-1
 239 780 l 1,5,-1
 1022 362 l 1,6,-1
 1022 237 l 1,0,-1
84 12 m 1,7,-1
 84 131 l 1,8,-1
 1056 130 l 1,9,-1
 1056 12 l 1,10,-1
 84 12 l 1,7,-1
EndSplineSet
EndChar

StartChar: greaterequal
Encoding: 8805 8805 374
Width: 1164
GlyphClass: 2
Flags: W
LayerCount: 2
Fore
SplineSet
144 240 m 1,0,-1
 144 365 l 1,1,-1
 935 774 l 1,2,-1
 149 1217 l 1,3,-1
 149 1341 l 1,4,-1
 1051 809 l 1,5,-1
 1051 741 l 1,6,-1
 144 240 l 1,0,-1
109 12 m 1,7,-1
 109 130 l 1,8,-1
 1073 131 l 1,9,-1
 1073 12 l 1,10,-1
 109 12 l 1,7,-1
EndSplineSet
EndChar

StartChar: lozenge
Encoding: 9674 9674 375
Width: 1103
GlyphClass: 2
Flags: W
LayerCount: 2
Fore
SplineSet
496 -49 m 1,0,-1
 82 791 l 1,1,-1
 503 1635 l 1,2,-1
 605 1635 l 1,3,-1
 1019 794 l 1,4,-1
 596 -49 l 1,5,-1
 496 -49 l 1,0,-1
544 77 m 1,6,7
 642 263 642 263 916 791 c 1,8,9
 902 819 902 819 764.5 1089 c 128,-1,10
 627 1359 627 1359 557 1502 c 1,11,12
 482 1365 482 1365 343 1097.5 c 128,-1,13
 204 830 204 830 184 793 c 1,14,15
 224 714 224 714 348.5 462.5 c 128,-1,16
 473 211 473 211 544 77 c 1,6,7
EndSplineSet
EndChar

StartChar: uniFB01
Encoding: 64257 64257 376
Width: 1044
GlyphClass: 3
Flags: W
LayerCount: 2
Fore
SplineSet
180 0 m 1,0,-1
 180 1005 l 1,1,-1
 24 1005 l 1,2,-1
 24 1098 l 1,3,-1
 180 1098 l 1,4,5
 180 1123 180 1123 181 1143 c 0,6,7
 183 1229 183 1229 193 1292 c 128,-1,8
 203 1355 203 1355 223.5 1397.5 c 128,-1,9
 244 1440 244 1440 269.5 1466.5 c 128,-1,10
 295 1493 295 1493 335.5 1507 c 128,-1,11
 376 1521 376 1521 418 1526 c 128,-1,12
 460 1531 460 1531 521 1531 c 2,13,-1
 597 1531 l 1,14,-1
 616 1444 l 1,15,-1
 511 1444 l 2,16,17
 475 1444 475 1444 448.5 1440.5 c 128,-1,18
 422 1437 422 1437 401 1427.5 c 128,-1,19
 380 1418 380 1418 365.5 1406 c 128,-1,20
 351 1394 351 1394 340.5 1372.5 c 128,-1,21
 330 1351 330 1351 324 1329 c 128,-1,22
 318 1307 318 1307 314.5 1271 c 128,-1,23
 311 1235 311 1235 310 1201 c 128,-1,24
 309 1167 309 1167 309 1115 c 2,25,-1
 309 1107 l 1,26,-1
 308 1098 l 1,27,-1
 907 1098 l 1,28,-1
 907 0 l 1,29,-1
 778 0 l 1,30,-1
 778 1005 l 1,31,-1
 308 1005 l 1,32,-1
 308 0 l 1,33,-1
 180 0 l 1,0,-1
778 1324 m 1,34,-1
 778 1505 l 1,35,-1
 907 1505 l 1,36,-1
 907 1324 l 1,37,-1
 778 1324 l 1,34,-1
EndSplineSet
Ligature2: "'liga' Standard Ligatures lookup 0 subtable" f i
EndChar

StartChar: uniFB02
Encoding: 64258 64258 377
Width: 1165
GlyphClass: 3
Flags: W
LayerCount: 2
Fore
SplineSet
1029 -12 m 1,0,1
 981 -12 981 -12 945.5 -8 c 128,-1,2
 910 -4 910 -4 882.5 12.5 c 128,-1,3
 855 29 855 29 837.5 42 c 128,-1,4
 820 55 820 55 807.5 93.5 c 128,-1,5
 795 132 795 132 788.5 158.5 c 128,-1,6
 782 185 782 185 779 251 c 128,-1,7
 776 317 776 317 775.5 361.5 c 128,-1,8
 775 406 775 406 775 502 c 2,9,-1
 775 1402 l 1,10,11
 507 1420 507 1420 514 1404 c 1,12,13
 408 1404 408 1404 361.5 1341.5 c 128,-1,14
 315 1279 315 1279 309 1115 c 1,15,-1
 309 1107 l 1,16,-1
 308 1098 l 1,17,-1
 563 1098 l 1,18,-1
 563 1005 l 1,19,-1
 308 1005 l 1,20,-1
 308 0 l 1,21,-1
 180 0 l 1,22,-1
 180 1005 l 1,23,-1
 24 1005 l 1,24,-1
 24 1098 l 1,25,-1
 180 1098 l 1,26,-1
 180 1117 l 1,27,28
 184 1233 184 1233 210 1310 c 128,-1,29
 236 1387 236 1387 284 1426 c 128,-1,30
 332 1465 332 1465 388 1479.5 c 128,-1,31
 444 1494 444 1494 523 1494 c 1,32,33
 483 1494 483 1494 483 1499 c 0,34,35
 484 1513 484 1513 904 1486 c 1,36,-1
 904 467 l 2,37,38
 904 460 904 460 904 447 c 0,39,40
 904 364 904 364 904.5 328 c 128,-1,41
 905 292 905 292 909.5 240.5 c 128,-1,42
 914 189 914 189 923 170 c 128,-1,43
 932 151 932 151 949 128.5 c 128,-1,44
 966 106 966 106 992 99.5 c 128,-1,45
 1018 93 1018 93 1057 93 c 0,46,47
 1087 93 1087 93 1134 97 c 1,48,-1
 1145 1 l 1,49,50
 1126 -1 1126 -1 1029 -12 c 1,0,1
EndSplineSet
Ligature2: "'liga' Standard Ligatures lookup 0 subtable" f l
EndChar

StartChar: uniFB00
Encoding: 64256 64256 378
Width: 1171
GlyphClass: 3
Flags: W
LayerCount: 2
Fore
SplineSet
749 0 m 1,0,-1
 749 1005 l 1,1,-1
 340 1005 l 1,2,-1
 340 0 l 1,3,-1
 216 0 l 1,4,-1
 216 1005 l 1,5,-1
 36 1005 l 1,6,-1
 44 1082 l 1,7,-1
 216 1096 l 1,8,-1
 216 1137 l 2,9,10
 216 1353 216 1353 291.5 1451 c 128,-1,11
 367 1549 367 1549 523 1549 c 0,12,13
 568 1549 568 1549 676 1534 c 1,14,-1
 667 1452 l 1,15,16
 571 1463 571 1463 537 1463 c 0,17,18
 423 1463 423 1463 381.5 1389.5 c 128,-1,19
 340 1316 340 1316 340 1131 c 2,20,-1
 340 1096 l 1,21,-1
 749 1096 l 1,22,-1
 749 1137 l 2,23,24
 749 1353 749 1353 824.5 1451 c 128,-1,25
 900 1549 900 1549 1056 1549 c 0,26,27
 1101 1549 1101 1549 1209 1534 c 1,28,-1
 1200 1452 l 1,29,30
 1104 1463 1104 1463 1070 1463 c 0,31,32
 956 1463 956 1463 914.5 1389.5 c 128,-1,33
 873 1316 873 1316 873 1131 c 2,34,-1
 873 1096 l 1,35,-1
 1140 1096 l 1,36,-1
 1140 1005 l 1,37,-1
 873 1005 l 1,38,-1
 873 0 l 1,39,-1
 749 0 l 1,0,-1
EndSplineSet
Ligature2: "'liga' Standard Ligatures lookup 0 subtable" f f
EndChar

StartChar: f_j.liga
Encoding: 65539 -1 379
Width: 1033
GlyphClass: 3
Flags: W
LayerCount: 2
Fore
SplineSet
534 -502 m 1,0,-1
 512 -351 l 1,1,-1
 564 -351 l 2,2,3
 603 -351 603 -351 631.5 -346.5 c 128,-1,4
 660 -342 660 -342 680.5 -335 c 128,-1,5
 701 -328 701 -328 714 -312 c 128,-1,6
 727 -296 727 -296 734.5 -281.5 c 128,-1,7
 742 -267 742 -267 745.5 -238 c 128,-1,8
 749 -209 749 -209 750 -186 c 128,-1,9
 751 -163 751 -163 751 -121 c 2,10,-1
 751 980 l 1,11,-1
 348 980 l 1,12,-1
 348 0 l 1,13,-1
 180 0 l 1,14,-1
 180 980 l 1,15,-1
 20 980 l 1,16,-1
 20 1098 l 1,17,-1
 180 1098 l 1,18,19
 180 1206 180 1206 191.5 1279.5 c 128,-1,20
 203 1353 203 1353 227 1404 c 128,-1,21
 251 1455 251 1455 294.5 1483.5 c 128,-1,22
 338 1512 338 1512 395.5 1524 c 128,-1,23
 453 1536 453 1536 538 1536 c 2,24,-1
 611 1536 l 1,25,-1
 631 1408 l 1,26,-1
 537 1408 l 2,27,28
 506 1408 506 1408 482 1404.5 c 128,-1,29
 458 1401 458 1401 439 1396 c 128,-1,30
 420 1391 420 1391 406.5 1379 c 128,-1,31
 393 1367 393 1367 383 1356 c 128,-1,32
 373 1345 373 1345 366.5 1323 c 128,-1,33
 360 1301 360 1301 356.5 1282.5 c 128,-1,34
 353 1264 353 1264 351 1230.5 c 128,-1,35
 349 1197 349 1197 348.5 1170.5 c 128,-1,36
 348 1144 348 1144 348 1098 c 1,37,-1
 919 1098 l 1,38,-1
 919 -139 l 2,39,40
 919 -245 919 -245 905.5 -310 c 128,-1,41
 892 -375 892 -375 854.5 -420.5 c 128,-1,42
 817 -466 817 -466 753 -484 c 128,-1,43
 689 -502 689 -502 586 -502 c 2,44,-1
 534 -502 l 1,0,-1
751 1298 m 1,45,-1
 751 1496 l 1,46,-1
 919 1496 l 1,47,-1
 919 1298 l 1,48,-1
 751 1298 l 1,45,-1
EndSplineSet
Ligature2: "'liga' Standard Ligatures lookup 0 subtable" f j
EndChar

StartChar: glyph382
Encoding: 65541 -1 382
Width: 554
GlyphClass: 2
Flags: W
LayerCount: 2
Fore
SplineSet
164 -648 m 1,0,-1
 241 -648 l 1,1,-1
 404 -145 l 1,2,-1
 263 -145 l 1,3,-1
 164 -648 l 1,0,-1
EndSplineSet
EndChar

StartChar: glyph383
Encoding: 65542 -1 383
Width: 468
GlyphClass: 2
Flags: W
LayerCount: 2
Fore
SplineSet
150 561 m 1,0,-1
 318 561 l 1,1,-1
 318 759 l 1,2,-1
 150 759 l 1,3,-1
 150 561 l 1,0,-1
EndSplineSet
EndChar

